%FSLAX42Y42*%
%MOMM*%
G71*
G01*
G75*
G04 Layer_Color=16711935*
%ADD10R,1.30X1.50*%
%ADD11R,1.00X1.10*%
%ADD12R,1.10X1.00*%
%ADD13O,2.20X0.60*%
%ADD14R,1.50X1.30*%
%ADD15R,1.40X3.00*%
%ADD16R,3.00X1.40*%
%ADD17O,1.00X3.20*%
%ADD18R,1.00X3.20*%
%ADD19R,2.00X1.10*%
%ADD20R,6.00X2.00*%
%ADD21R,2.00X6.00*%
%ADD22R,0.80X2.00*%
%ADD23R,1.75X3.50*%
%ADD24R,1.75X1.10*%
%ADD25R,1.75X1.10*%
%ADD26R,2.30X2.30*%
%ADD27R,0.90X0.95*%
%ADD28R,0.90X0.95*%
%ADD29R,0.65X1.10*%
%ADD30R,0.55X1.45*%
%ADD31R,0.55X1.45*%
%ADD32R,1.00X1.00*%
%ADD33R,3.30X1.40*%
%ADD34C,1.00*%
%ADD35R,1.20X0.23*%
%ADD36C,0.40*%
%ADD37C,0.45*%
%ADD38C,0.25*%
%ADD39C,0.60*%
%ADD40C,0.25*%
%ADD41C,0.30*%
%ADD42C,1.52*%
%ADD43C,3.22*%
%ADD44C,1.68*%
%ADD45C,1.50*%
%ADD46R,1.50X1.50*%
%ADD47R,1.50X1.50*%
%ADD48C,1.85*%
%ADD49R,1.85X1.85*%
G04:AMPARAMS|DCode=50|XSize=1.25mm|YSize=2mm|CornerRadius=0.31mm|HoleSize=0mm|Usage=FLASHONLY|Rotation=270.000|XOffset=0mm|YOffset=0mm|HoleType=Round|Shape=RoundedRectangle|*
%AMROUNDEDRECTD50*
21,1,1.25,1.38,0,0,270.0*
21,1,0.63,2.00,0,0,270.0*
1,1,0.63,-0.69,-0.31*
1,1,0.63,-0.69,0.31*
1,1,0.63,0.69,0.31*
1,1,0.63,0.69,-0.31*
%
%ADD50ROUNDEDRECTD50*%
G04:AMPARAMS|DCode=51|XSize=1.25mm|YSize=1.8mm|CornerRadius=0.31mm|HoleSize=0mm|Usage=FLASHONLY|Rotation=270.000|XOffset=0mm|YOffset=0mm|HoleType=Round|Shape=RoundedRectangle|*
%AMROUNDEDRECTD51*
21,1,1.25,1.18,0,0,270.0*
21,1,0.63,1.80,0,0,270.0*
1,1,0.63,-0.59,-0.31*
1,1,0.63,-0.59,0.31*
1,1,0.63,0.59,0.31*
1,1,0.63,0.59,-0.31*
%
%ADD51ROUNDEDRECTD51*%
%ADD52C,0.70*%
%ADD53C,0.66*%
%ADD54O,0.85X0.30*%
%ADD55O,0.30X0.85*%
%ADD56R,2.80X2.80*%
%ADD57O,0.25X0.75*%
%ADD58O,0.75X0.25*%
%ADD59R,3.80X3.80*%
%ADD60R,1.70X1.10*%
%ADD61R,1.40X3.30*%
%ADD62R,2.00X0.70*%
%ADD63C,0.50*%
%ADD64C,0.10*%
%ADD65C,0.20*%
%ADD66C,0.10*%
%ADD67C,0.80*%
%ADD68C,0.13*%
%ADD69C,0.20*%
%ADD70R,0.70X0.60*%
%ADD71R,0.60X0.70*%
%ADD72R,1.50X1.70*%
%ADD73R,1.20X1.30*%
%ADD74R,1.30X1.20*%
%ADD75O,2.40X0.80*%
%ADD76R,1.70X1.50*%
%ADD77R,1.60X3.20*%
%ADD78R,3.20X1.60*%
%ADD79O,1.20X3.40*%
%ADD80R,1.20X3.40*%
%ADD81R,2.20X1.30*%
%ADD82R,6.20X2.20*%
%ADD83R,2.20X6.20*%
%ADD84R,1.00X2.20*%
%ADD85R,1.95X3.70*%
%ADD86R,1.95X1.30*%
%ADD87R,1.95X1.30*%
%ADD88R,2.50X2.50*%
%ADD89R,1.10X1.15*%
%ADD90R,1.10X1.15*%
%ADD91R,0.85X1.30*%
%ADD92R,0.75X1.65*%
%ADD93R,0.75X1.65*%
%ADD94R,1.20X1.20*%
%ADD95R,3.50X1.60*%
%ADD96C,1.20*%
%ADD97R,1.40X0.43*%
%ADD98C,1.73*%
%ADD99C,3.42*%
%ADD100C,1.88*%
%ADD101C,1.70*%
%ADD102R,1.70X1.70*%
%ADD103R,1.70X1.70*%
%ADD104C,2.05*%
%ADD105R,2.05X2.05*%
G04:AMPARAMS|DCode=106|XSize=1.45mm|YSize=2.2mm|CornerRadius=0.41mm|HoleSize=0mm|Usage=FLASHONLY|Rotation=270.000|XOffset=0mm|YOffset=0mm|HoleType=Round|Shape=RoundedRectangle|*
%AMROUNDEDRECTD106*
21,1,1.45,1.38,0,0,270.0*
21,1,0.63,2.20,0,0,270.0*
1,1,0.83,-0.69,-0.31*
1,1,0.83,-0.69,0.31*
1,1,0.83,0.69,0.31*
1,1,0.83,0.69,-0.31*
%
%ADD106ROUNDEDRECTD106*%
G04:AMPARAMS|DCode=107|XSize=1.45mm|YSize=2mm|CornerRadius=0.41mm|HoleSize=0mm|Usage=FLASHONLY|Rotation=270.000|XOffset=0mm|YOffset=0mm|HoleType=Round|Shape=RoundedRectangle|*
%AMROUNDEDRECTD107*
21,1,1.45,1.18,0,0,270.0*
21,1,0.63,2.00,0,0,270.0*
1,1,0.83,-0.59,-0.31*
1,1,0.83,-0.59,0.31*
1,1,0.83,0.59,0.31*
1,1,0.83,0.59,-0.31*
%
%ADD107ROUNDEDRECTD107*%
%ADD108O,1.05X0.50*%
%ADD109O,0.50X1.05*%
%ADD110R,3.00X3.00*%
%ADD111O,0.45X0.95*%
%ADD112O,0.95X0.45*%
%ADD113R,4.00X4.00*%
%ADD114R,1.90X1.30*%
%ADD115R,1.60X3.50*%
%ADD116R,2.20X0.90*%
D73*
X-1497Y-1368D02*
D03*
Y-1198D02*
D03*
X-208Y-1347D02*
D03*
Y-1517D02*
D03*
X-515Y-1337D02*
D03*
Y-1507D02*
D03*
X-1278Y-1369D02*
D03*
Y-1539D02*
D03*
X-1093Y-1372D02*
D03*
Y-1542D02*
D03*
X-855Y-1379D02*
D03*
Y-1549D02*
D03*
X-2480Y1739D02*
D03*
Y1909D02*
D03*
X-2235Y1723D02*
D03*
Y1553D02*
D03*
X-2252Y1927D02*
D03*
Y2097D02*
D03*
X-798Y-97D02*
D03*
Y-267D02*
D03*
D74*
X494Y1217D02*
D03*
X664D02*
D03*
X497Y952D02*
D03*
X667D02*
D03*
X494Y677D02*
D03*
X664D02*
D03*
X502Y412D02*
D03*
X672D02*
D03*
X-2051Y1545D02*
D03*
X-1881D02*
D03*
X-414Y-482D02*
D03*
X-584D02*
D03*
X-628Y-788D02*
D03*
X-458D02*
D03*
X-701Y-1098D02*
D03*
X-531D02*
D03*
X564Y1587D02*
D03*
X734D02*
D03*
X-907Y-1032D02*
D03*
X-1077D02*
D03*
X-1282Y2153D02*
D03*
X-1452D02*
D03*
X-2413Y2882D02*
D03*
X-2243D02*
D03*
X-2147Y-1250D02*
D03*
X-2317D02*
D03*
X-2149Y-1052D02*
D03*
X-2319D02*
D03*
X-4334Y1850D02*
D03*
X-4504D02*
D03*
X-5148Y832D02*
D03*
X-4978D02*
D03*
X-5143Y1090D02*
D03*
X-4973D02*
D03*
X-2418Y3227D02*
D03*
X-2248D02*
D03*
D76*
X-48Y-526D02*
D03*
Y-336D02*
D03*
D98*
X1105Y3075D02*
D03*
D99*
X265Y-335D02*
D03*
Y-1535D02*
D03*
D100*
X-6Y-810D02*
D03*
Y-1060D02*
D03*
X-206D02*
D03*
Y-810D02*
D03*
D101*
X-2136Y-294D02*
D03*
X-1883D02*
D03*
X-2136Y-548D02*
D03*
X-1883D02*
D03*
X-2136Y-802D02*
D03*
X-4743Y3370D02*
D03*
Y3116D02*
D03*
Y2862D02*
D03*
Y2608D02*
D03*
Y2354D02*
D03*
Y2100D02*
D03*
Y1846D02*
D03*
Y1592D02*
D03*
Y1338D02*
D03*
Y1084D02*
D03*
Y830D02*
D03*
Y576D02*
D03*
Y322D02*
D03*
X-3981Y3624D02*
D03*
Y3370D02*
D03*
Y3116D02*
D03*
Y2862D02*
D03*
Y2608D02*
D03*
Y2354D02*
D03*
Y2100D02*
D03*
Y1846D02*
D03*
Y1592D02*
D03*
Y1338D02*
D03*
Y1084D02*
D03*
Y830D02*
D03*
Y576D02*
D03*
Y322D02*
D03*
X-3134Y1857D02*
D03*
Y1602D02*
D03*
X-3388Y1857D02*
D03*
Y1602D02*
D03*
X-3642Y1857D02*
D03*
X-5960Y-1234D02*
D03*
X-5960Y-2054D02*
D03*
D102*
X-1883Y-802D02*
D03*
X-5960Y-980D02*
D03*
X-5960Y-1800D02*
D03*
D103*
X-4743Y3624D02*
D03*
X-3642Y1602D02*
D03*
D104*
X-5965Y-11D02*
D03*
D105*
Y-519D02*
D03*
D106*
X-5747Y2570D02*
D03*
Y3650D02*
D03*
D107*
X-6197D02*
D03*
X-6208Y2565D02*
D03*
D108*
X-1777Y1655D02*
D03*
Y1705D02*
D03*
Y1755D02*
D03*
Y1805D02*
D03*
Y1855D02*
D03*
Y1905D02*
D03*
X-1362D02*
D03*
Y1855D02*
D03*
Y1805D02*
D03*
Y1755D02*
D03*
Y1705D02*
D03*
Y1655D02*
D03*
D109*
X-1695Y1988D02*
D03*
X-1645D02*
D03*
X-1595D02*
D03*
X-1545D02*
D03*
X-1495D02*
D03*
X-1445D02*
D03*
Y1573D02*
D03*
X-1495D02*
D03*
X-1545D02*
D03*
X-1595D02*
D03*
X-1645D02*
D03*
X-1695D02*
D03*
D110*
X-1570Y1780D02*
D03*
D111*
X-1025Y-840D02*
D03*
X-1075D02*
D03*
X-1125D02*
D03*
X-1175D02*
D03*
X-1225D02*
D03*
X-1275D02*
D03*
X-1325D02*
D03*
X-1375D02*
D03*
Y-335D02*
D03*
X-1325D02*
D03*
X-1275D02*
D03*
X-1225D02*
D03*
X-1175D02*
D03*
X-1125D02*
D03*
X-1075D02*
D03*
X-1025D02*
D03*
D112*
X-1453Y-762D02*
D03*
Y-712D02*
D03*
Y-662D02*
D03*
Y-612D02*
D03*
Y-562D02*
D03*
Y-512D02*
D03*
Y-462D02*
D03*
Y-412D02*
D03*
X-948D02*
D03*
Y-462D02*
D03*
Y-512D02*
D03*
Y-562D02*
D03*
Y-612D02*
D03*
Y-662D02*
D03*
Y-712D02*
D03*
Y-762D02*
D03*
D113*
X-1200Y-588D02*
D03*
D114*
X-565Y-270D02*
D03*
Y0D02*
D03*
D115*
X-5008Y3625D02*
D03*
X-5388D02*
D03*
D116*
X-5058Y1377D02*
D03*
Y1477D02*
D03*
Y1577D02*
D03*
M02*
