%FSLAX42Y42*%
%MOMM*%
G71*
G01*
G75*
%ADD10R,1.30X1.50*%
%ADD11R,1.00X1.10*%
%ADD12R,1.10X1.00*%
%ADD13O,2.20X0.60*%
%ADD14R,1.50X1.30*%
%ADD15R,1.40X3.00*%
%ADD16R,3.00X1.40*%
%ADD17O,1.00X3.20*%
%ADD18R,1.00X3.20*%
%ADD19R,2.00X1.10*%
%ADD20R,6.00X2.00*%
%ADD21R,2.00X6.00*%
%ADD22R,0.80X2.00*%
%ADD23R,1.75X3.50*%
%ADD24R,1.75X1.10*%
%ADD25R,1.75X1.10*%
%ADD26R,2.30X2.30*%
%ADD27R,0.90X0.95*%
%ADD28R,0.90X0.95*%
%ADD29R,0.65X1.10*%
%ADD30R,0.55X1.45*%
%ADD31R,0.55X1.45*%
%ADD32R,1.00X1.00*%
%ADD33R,3.30X1.40*%
%ADD34C,1.00*%
%ADD35R,1.20X0.23*%
%ADD36C,0.40*%
%ADD37C,0.45*%
%ADD38C,0.25*%
%ADD39C,0.60*%
%ADD40C,0.25*%
%ADD41C,0.30*%
%ADD42C,1.52*%
%ADD43C,3.22*%
%ADD44C,1.68*%
%ADD45C,1.50*%
%ADD46R,1.50X1.50*%
%ADD47R,1.50X1.50*%
%ADD48C,1.85*%
%ADD49R,1.85X1.85*%
G04:AMPARAMS|DCode=50|XSize=1.25mm|YSize=2mm|CornerRadius=0.31mm|HoleSize=0mm|Usage=FLASHONLY|Rotation=270.000|XOffset=0mm|YOffset=0mm|HoleType=Round|Shape=RoundedRectangle|*
%AMROUNDEDRECTD50*
21,1,1.25,1.38,0,0,270.0*
21,1,0.63,2.00,0,0,270.0*
1,1,0.63,-0.69,-0.31*
1,1,0.63,-0.69,0.31*
1,1,0.63,0.69,0.31*
1,1,0.63,0.69,-0.31*
%
%ADD50ROUNDEDRECTD50*%
G04:AMPARAMS|DCode=51|XSize=1.25mm|YSize=1.8mm|CornerRadius=0.31mm|HoleSize=0mm|Usage=FLASHONLY|Rotation=270.000|XOffset=0mm|YOffset=0mm|HoleType=Round|Shape=RoundedRectangle|*
%AMROUNDEDRECTD51*
21,1,1.25,1.18,0,0,270.0*
21,1,0.63,1.80,0,0,270.0*
1,1,0.63,-0.59,-0.31*
1,1,0.63,-0.59,0.31*
1,1,0.63,0.59,0.31*
1,1,0.63,0.59,-0.31*
%
%ADD51ROUNDEDRECTD51*%
%ADD52C,0.70*%
%ADD53C,0.66*%
%ADD54O,0.85X0.30*%
%ADD55O,0.30X0.85*%
%ADD56R,2.80X2.80*%
%ADD57O,0.25X0.75*%
%ADD58O,0.75X0.25*%
%ADD59R,3.80X3.80*%
%ADD60R,1.70X1.10*%
%ADD61R,1.40X3.30*%
%ADD62R,2.00X0.70*%
%ADD63C,0.50*%
%ADD64C,0.10*%
%ADD65C,0.20*%
%ADD66C,0.10*%
%ADD67C,0.80*%
%ADD68C,0.13*%
%ADD69C,0.20*%
%ADD70R,0.70X0.60*%
%ADD71R,0.60X0.70*%
G36*
X-5874Y1693D02*
X-5873Y1693D01*
X-5872Y1692D01*
X-5869Y1691D01*
X-5865Y1690D01*
X-5860Y1688D01*
X-5855Y1686D01*
X-5850Y1683D01*
X-5846Y1680D01*
X-5845Y1679D01*
X-5844Y1678D01*
X-5842Y1676D01*
X-5839Y1674D01*
X-5836Y1671D01*
X-5833Y1667D01*
X-5831Y1662D01*
X-5828Y1658D01*
X-5828Y1657D01*
X-5827Y1655D01*
X-5826Y1652D01*
X-5825Y1649D01*
X-5824Y1644D01*
X-5823Y1638D01*
X-5823Y1631D01*
X-5822Y1624D01*
Y1624D01*
Y1623D01*
Y1622D01*
Y1620D01*
X-5823Y1618D01*
Y1615D01*
X-5823Y1610D01*
X-5824Y1603D01*
X-5825Y1597D01*
X-5827Y1590D01*
X-5829Y1583D01*
Y1583D01*
X-5830Y1583D01*
X-5830Y1582D01*
X-5831Y1581D01*
X-5833Y1578D01*
X-5835Y1574D01*
X-5839Y1570D01*
X-5843Y1565D01*
X-5848Y1561D01*
X-5855Y1556D01*
X-5855D01*
X-5856Y1556D01*
X-5857Y1555D01*
X-5858Y1555D01*
X-5860Y1554D01*
X-5862Y1553D01*
X-5865Y1552D01*
X-5867Y1551D01*
X-5871Y1550D01*
X-5874Y1549D01*
X-5878Y1548D01*
X-5882Y1547D01*
X-5891Y1546D01*
X-5901Y1545D01*
X-5905D01*
X-5908Y1545D01*
X-5911Y1546D01*
X-5914Y1546D01*
X-5918Y1547D01*
X-5923Y1548D01*
X-5932Y1550D01*
X-5937Y1551D01*
X-5942Y1553D01*
X-5947Y1556D01*
X-5951Y1558D01*
X-5955Y1561D01*
X-5959Y1565D01*
X-5960Y1565D01*
X-5960Y1566D01*
X-5961Y1567D01*
X-5963Y1569D01*
X-5964Y1571D01*
X-5966Y1573D01*
X-5968Y1576D01*
X-5970Y1580D01*
X-5972Y1583D01*
X-5973Y1588D01*
X-5975Y1592D01*
X-5977Y1597D01*
X-5978Y1603D01*
X-5979Y1609D01*
X-5980Y1615D01*
X-5980Y1622D01*
Y1622D01*
Y1623D01*
Y1625D01*
X-5980Y1626D01*
Y1629D01*
X-5979Y1632D01*
X-5979Y1635D01*
X-5978Y1638D01*
X-5977Y1645D01*
X-5975Y1653D01*
X-5972Y1660D01*
X-5970Y1664D01*
X-5968Y1667D01*
Y1667D01*
X-5968Y1668D01*
X-5967Y1669D01*
X-5966Y1670D01*
X-5963Y1673D01*
X-5959Y1676D01*
X-5954Y1680D01*
X-5948Y1684D01*
X-5941Y1688D01*
X-5932Y1692D01*
X-5923Y1650D01*
X-5924D01*
X-5925Y1650D01*
X-5926Y1649D01*
X-5927Y1649D01*
X-5930Y1647D01*
X-5932Y1646D01*
X-5933Y1645D01*
X-5934Y1645D01*
X-5934Y1645D01*
X-5935Y1644D01*
X-5937Y1643D01*
X-5939Y1640D01*
X-5942Y1635D01*
Y1635D01*
X-5942Y1635D01*
X-5943Y1633D01*
X-5943Y1632D01*
X-5944Y1630D01*
X-5944Y1628D01*
X-5945Y1623D01*
Y1623D01*
Y1622D01*
Y1621D01*
X-5944Y1620D01*
X-5944Y1617D01*
X-5943Y1614D01*
X-5942Y1610D01*
X-5939Y1606D01*
X-5936Y1602D01*
X-5934Y1600D01*
X-5932Y1599D01*
X-5931Y1598D01*
X-5930Y1598D01*
X-5928Y1597D01*
X-5925Y1595D01*
X-5920Y1594D01*
X-5915Y1593D01*
X-5909Y1592D01*
X-5902Y1592D01*
X-5898D01*
X-5896Y1592D01*
X-5893D01*
X-5888Y1593D01*
X-5882Y1594D01*
X-5877Y1595D01*
X-5871Y1597D01*
X-5869Y1598D01*
X-5867Y1600D01*
X-5867Y1600D01*
X-5866Y1601D01*
X-5864Y1603D01*
X-5862Y1605D01*
X-5861Y1609D01*
X-5859Y1612D01*
X-5858Y1616D01*
X-5858Y1621D01*
Y1622D01*
Y1622D01*
Y1624D01*
X-5858Y1626D01*
X-5859Y1629D01*
X-5860Y1632D01*
X-5861Y1636D01*
X-5863Y1639D01*
X-5865Y1642D01*
X-5865Y1642D01*
X-5867Y1643D01*
X-5868Y1644D01*
X-5871Y1645D01*
X-5874Y1647D01*
X-5878Y1649D01*
X-5882Y1650D01*
X-5887Y1652D01*
X-5875Y1693D01*
X-5874D01*
X-5874Y1693D01*
D02*
G37*
G36*
X-5825Y1815D02*
X-5887D01*
Y1763D01*
X-5825D01*
Y1716D01*
X-5977D01*
Y1763D01*
X-5924D01*
Y1815D01*
X-5977D01*
Y1862D01*
X-5825D01*
Y1815D01*
D02*
G37*
G36*
X-5583Y2064D02*
X-5666Y2007D01*
X-5583D01*
Y1962D01*
X-5735D01*
Y2006D01*
X-5650Y2064D01*
X-5735D01*
Y2108D01*
X-5583D01*
Y2064D01*
D02*
G37*
G36*
Y2240D02*
X-5608Y2233D01*
Y2180D01*
X-5583Y2172D01*
Y2124D01*
X-5735Y2181D01*
Y2233D01*
X-5583Y2290D01*
Y2240D01*
D02*
G37*
G36*
X-6078Y2177D02*
X-6103Y2169D01*
Y2116D01*
X-6078Y2108D01*
Y2061D01*
X-6230Y2118D01*
Y2169D01*
X-6078Y2226D01*
Y2177D01*
D02*
G37*
G36*
Y2008D02*
X-6193D01*
X-6078Y1978D01*
Y1943D01*
X-6193Y1914D01*
X-6078D01*
Y1875D01*
X-6230D01*
Y1937D01*
X-6137Y1961D01*
X-6230Y1984D01*
Y2046D01*
X-6078D01*
Y2008D01*
D02*
G37*
G36*
X-5825Y1895D02*
X-5977D01*
Y1942D01*
X-5825D01*
Y1895D01*
D02*
G37*
%LPC*%
G36*
X-6135Y2160D02*
X-6190Y2143D01*
X-6135Y2126D01*
Y2160D01*
D02*
G37*
G36*
X-5640Y2223D02*
X-5695Y2206D01*
X-5640Y2189D01*
Y2223D01*
D02*
G37*
%LPD*%
D36*
X1145Y3210D02*
X1045D01*
Y3260D01*
X1062Y3277D01*
X1095D01*
X1112Y3260D01*
Y3210D01*
Y3243D02*
X1145Y3277D01*
X1045Y3310D02*
X1145Y3377D01*
X1045D02*
X1145Y3310D01*
X1045Y3410D02*
X1145D01*
Y3460D01*
X1128Y3477D01*
X1062D01*
X1045Y3460D01*
Y3410D01*
Y3510D02*
Y3543D01*
Y3527D01*
X1145D01*
Y3510D01*
Y3543D01*
Y3593D02*
X1045D01*
X1145Y3660D01*
X1045D01*
D38*
X-2365Y3237D02*
G03*
X-2365Y3237I-228J0D01*
G01*
X-3165Y3237D02*
G03*
X-3165Y3237I-228J0D01*
G01*
X497Y1110D02*
X843D01*
X900Y1168D01*
Y1282D01*
X852Y1330D02*
X900Y1282D01*
X497Y1330D02*
X852D01*
X497Y1110D02*
Y1325D01*
X500Y840D02*
X845D01*
X902Y898D01*
Y1012D01*
X855Y1060D02*
X902Y1012D01*
X500Y1060D02*
X855D01*
X500Y840D02*
Y1055D01*
X500Y570D02*
X845D01*
X902Y628D01*
Y742D01*
X855Y790D02*
X902Y742D01*
X500Y790D02*
X855D01*
X500Y570D02*
Y785D01*
X505Y305D02*
X850D01*
X907Y362D01*
Y477D01*
X860Y525D02*
X907Y477D01*
X505Y525D02*
X860D01*
X505Y305D02*
Y520D01*
X-5031Y1810D02*
X-4894D01*
X-5031D02*
Y2130D01*
X-4894D01*
Y1810D02*
Y2130D01*
X481Y2950D02*
X618D01*
Y2630D02*
Y2950D01*
X481Y2630D02*
X618D01*
X481D02*
Y2950D01*
X545Y-1993D02*
Y-1856D01*
X225Y-1993D02*
X545D01*
X225D02*
Y-1856D01*
X545D01*
X543Y-2281D02*
Y-2144D01*
X223Y-2281D02*
X543D01*
X223D02*
Y-2144D01*
X543D01*
X94Y2622D02*
X231D01*
X94D02*
Y2942D01*
X231D01*
Y2622D02*
Y2942D01*
X-3905Y-2279D02*
Y-1987D01*
X-3953Y-2327D02*
X-3905Y-2279D01*
X-4032Y-2327D02*
X-3953D01*
X-4082Y-2276D02*
X-4032Y-2327D01*
X-4082Y-2276D02*
Y-1987D01*
X-2593Y3257D02*
X-2487D01*
X-2677D02*
X-2619Y3316D01*
X-2680Y3257D02*
X-2677D01*
X-2769D02*
X-2680D01*
X-2286Y2828D02*
Y3643D01*
X-2873Y2828D02*
Y3643D01*
X-3393Y3257D02*
X-3287D01*
X-3477D02*
X-3419Y3316D01*
X-3480Y3257D02*
X-3477D01*
X-3569D02*
X-3480D01*
X-3086Y2828D02*
Y3643D01*
X-3673Y2828D02*
Y3643D01*
X807Y1585D02*
X990D01*
X562Y1588D02*
X762Y1668D01*
X303Y1585D02*
X562D01*
X303Y1440D02*
X990D01*
X303Y1843D02*
X562D01*
Y1845D02*
X762Y1925D01*
X807Y1843D02*
X990D01*
X303Y2100D02*
X562D01*
Y2103D02*
X762Y2183D01*
X807Y2100D02*
X990D01*
X807Y2350D02*
X990D01*
X562Y2353D02*
X762Y2433D01*
X303Y2350D02*
X562D01*
X303Y2488D02*
X990D01*
X303Y1440D02*
Y2488D01*
X990Y1440D02*
Y2488D01*
X-295Y-1525D02*
Y-345D01*
X1280D01*
Y-1525D02*
Y-345D01*
X-295Y-1525D02*
X1280D01*
X632Y-2327D02*
Y-2112D01*
Y-2108D02*
X988D01*
X1035Y-2155D01*
Y-2270D02*
Y-2155D01*
X977Y-2327D02*
X1035Y-2270D01*
X632Y-2327D02*
X977D01*
X640Y-2038D02*
Y-1823D01*
Y-1817D02*
X995D01*
X1042Y-1865D01*
Y-1980D02*
Y-1865D01*
X985Y-2038D02*
X1042Y-1980D01*
X640Y-2038D02*
X985D01*
X-1384Y-760D02*
X-1247D01*
Y-1080D02*
Y-760D01*
X-1384Y-1080D02*
X-1247D01*
X-1384D02*
Y-760D01*
X-525Y-1215D02*
X-522Y-1212D01*
X-1980Y-1215D02*
X-525D01*
X-1980Y-1715D02*
X-1977Y-1717D01*
X-522D01*
Y-1212D01*
X-1980Y-1715D02*
Y-1215D01*
X-2733Y2565D02*
X-2730Y2563D01*
Y1107D02*
Y2563D01*
X-2230Y1107D02*
X-2227Y1110D01*
Y2565D01*
X-2733D02*
X-2227D01*
X-2730Y1107D02*
X-2230D01*
X-4905Y3554D02*
Y3691D01*
X-5225Y3554D02*
X-4905D01*
X-5225D02*
Y3691D01*
X-4905D01*
X-3165Y2274D02*
Y2411D01*
X-3485Y2274D02*
X-3165D01*
X-3485D02*
Y2411D01*
X-3165D01*
X-5586Y346D02*
Y650D01*
Y346D02*
X-5535Y295D01*
X-5307D01*
Y650D01*
X-5586D02*
X-5307D01*
X-2721Y-297D02*
X-2584D01*
Y-617D02*
Y-297D01*
X-2721Y-617D02*
X-2584D01*
X-2721D02*
Y-297D01*
X-2938Y-772D02*
X-2646D01*
X-2598Y-820D01*
Y-899D02*
Y-820D01*
X-2649Y-950D02*
X-2598Y-899D01*
X-2938Y-950D02*
X-2649D01*
X-3508Y-924D02*
Y-787D01*
X-3188D01*
Y-924D02*
Y-787D01*
X-3508Y-924D02*
X-3188D01*
X-5521Y-1100D02*
X-5384D01*
X-5521D02*
Y-780D01*
X-5384D01*
Y-1100D02*
Y-780D01*
X-5281Y-1290D02*
X-5144D01*
X-5281D02*
Y-970D01*
X-5144D01*
Y-1290D02*
Y-970D01*
X-5313Y-2156D02*
Y-2019D01*
X-4993D01*
Y-2156D02*
Y-2019D01*
X-5313Y-2156D02*
X-4993D01*
X-4061Y-1665D02*
X-3924D01*
X-4061D02*
Y-1345D01*
X-3924D01*
Y-1665D02*
Y-1345D01*
X-3308Y-1610D02*
X-3171D01*
X-3308D02*
Y-1290D01*
X-3171D01*
Y-1610D02*
Y-1290D01*
X-6105Y927D02*
X-6092D01*
X-705Y-56D02*
Y-138D01*
X-678Y-110D01*
X-651Y-138D01*
Y-56D01*
X-624Y-138D02*
X-597D01*
X-610D01*
Y-83D01*
X-624D01*
X-502Y-56D02*
X-556D01*
Y-97D01*
X-529D01*
X-556D01*
Y-138D01*
X-475D02*
X-448D01*
X-461D01*
Y-56D01*
X-475D01*
X-407Y-83D02*
Y-124D01*
X-394Y-138D01*
X-353D01*
Y-151D01*
X-366Y-165D01*
X-380D01*
X-353Y-138D02*
Y-83D01*
X-190Y-70D02*
X-204Y-56D01*
X-231D01*
X-245Y-70D01*
Y-124D01*
X-231Y-138D01*
X-204D01*
X-190Y-124D01*
Y-97D01*
X-217D01*
X-109Y-70D02*
X-123Y-56D01*
X-150D01*
X-163Y-70D01*
Y-83D01*
X-150Y-97D01*
X-123D01*
X-109Y-110D01*
Y-124D01*
X-123Y-138D01*
X-150D01*
X-163Y-124D01*
X-82Y-56D02*
X-28Y-138D01*
Y-56D02*
X-82Y-138D01*
X-1900Y2600D02*
X-1873D01*
X-1886D01*
Y2681D01*
X-1900Y2668D01*
X-6087Y3300D02*
X-6147D01*
X-6117D01*
Y3259D01*
X-6087D01*
X-6147D01*
X-6087Y3239D02*
X-6147D01*
Y3209D01*
X-6137Y3198D01*
X-6097D01*
X-6087Y3209D01*
Y3239D01*
X-6147Y3178D02*
X-6087D01*
X-6107Y3158D01*
X-6087Y3137D01*
X-6147D01*
X-6087Y3117D02*
Y3097D01*
Y3107D01*
X-6147D01*
Y3117D01*
Y3097D01*
X-6117Y3066D02*
Y3026D01*
X-6147Y3005D02*
X-6087D01*
X-6107Y2985D01*
X-6087Y2965D01*
X-6147D01*
Y2945D02*
Y2924D01*
Y2934D01*
X-6107D01*
Y2945D01*
X-6147Y2894D02*
X-6107D01*
Y2863D01*
X-6117Y2853D01*
X-6147D01*
Y2833D02*
Y2812D01*
Y2823D01*
X-6107D01*
Y2833D01*
D39*
X-4497Y3643D02*
G03*
X-4497Y3643I-30J0D01*
G01*
D40*
X-4280Y-1488D02*
G03*
X-4280Y-1488I-12J0D01*
G01*
X-4731Y3754D02*
G03*
X-4731Y3754I-12J0D01*
G01*
X-5952Y-741D02*
G03*
X-5952Y-741I-12J0D01*
G01*
X-4560Y-138D02*
G03*
X-4560Y-138I-12J0D01*
G01*
X-4585Y-1968D02*
G03*
X-4585Y-1968I-12J0D01*
G01*
X-5012Y-1627D02*
G03*
X-5012Y-1627I-12J0D01*
G01*
X-3558Y2112D02*
Y2212D01*
X-3508D01*
X-3491Y2196D01*
Y2162D01*
X-3508Y2146D01*
X-3558D01*
X-3524D02*
X-3491Y2112D01*
X-3391Y2212D02*
X-3458D01*
Y2112D01*
X-3391D01*
X-3458Y2162D02*
X-3424D01*
X-3291Y2196D02*
X-3308Y2212D01*
X-3341D01*
X-3358Y2196D01*
Y2179D01*
X-3341Y2162D01*
X-3308D01*
X-3291Y2146D01*
Y2129D01*
X-3308Y2112D01*
X-3341D01*
X-3358Y2129D01*
X-3191Y2212D02*
X-3258D01*
Y2112D01*
X-3191D01*
X-3258Y2162D02*
X-3224D01*
X-3158Y2212D02*
X-3091D01*
X-3124D01*
Y2112D01*
D41*
X-5655Y-855D02*
X-5755D01*
Y-905D01*
X-5738Y-922D01*
X-5722D01*
X-5705Y-905D01*
Y-855D01*
Y-905D01*
X-5688Y-922D01*
X-5672D01*
X-5655Y-905D01*
Y-855D01*
X-5755Y-955D02*
X-5688D01*
X-5655Y-988D01*
X-5688Y-1022D01*
X-5755D01*
X-5705D01*
Y-955D01*
X-5655Y-1055D02*
Y-1122D01*
Y-1088D01*
X-5755D01*
X-5655Y-1222D02*
Y-1155D01*
X-5755D01*
Y-1222D01*
X-5705Y-1155D02*
Y-1188D01*
X-5755Y-1255D02*
X-5655D01*
Y-1305D01*
X-5672Y-1322D01*
X-5705D01*
X-5722Y-1305D01*
Y-1255D01*
Y-1288D02*
X-5755Y-1322D01*
X-5655Y-1355D02*
X-5672D01*
X-5705Y-1388D01*
X-5672Y-1421D01*
X-5655D01*
X-5705Y-1388D02*
X-5755D01*
X-5635Y-1608D02*
X-5725D01*
Y-1652D01*
X-5710Y-1667D01*
X-5695D01*
X-5680Y-1652D01*
Y-1608D01*
Y-1652D01*
X-5665Y-1667D01*
X-5650D01*
X-5635Y-1652D01*
Y-1608D01*
X-5725Y-1697D02*
X-5665D01*
X-5635Y-1727D01*
X-5665Y-1757D01*
X-5725D01*
X-5680D01*
Y-1697D01*
X-5635Y-1787D02*
Y-1847D01*
Y-1817D01*
X-5725D01*
X-5740Y-1877D02*
Y-1937D01*
X-5650Y-2027D02*
X-5635Y-2012D01*
Y-1982D01*
X-5650Y-1967D01*
X-5710D01*
X-5725Y-1982D01*
Y-2012D01*
X-5710Y-2027D01*
X-5635Y-2057D02*
X-5725D01*
X-5680D01*
Y-2117D01*
X-5635D01*
X-5725D01*
Y-2147D02*
X-5635D01*
Y-2192D01*
X-5650Y-2207D01*
X-5680D01*
X-5695Y-2192D01*
Y-2147D01*
Y-2177D02*
X-5725Y-2207D01*
X-5650Y-2297D02*
X-5635Y-2282D01*
Y-2252D01*
X-5650Y-2237D01*
X-5710D01*
X-5725Y-2252D01*
Y-2282D01*
X-5710Y-2297D01*
X-5680D01*
Y-2267D01*
X-6150Y3D02*
Y43D01*
X-6170Y62D01*
X-6250D01*
X-6270Y43D01*
Y3D01*
X-6250Y-17D01*
X-6170D01*
X-6150Y3D01*
X-6270Y-57D02*
X-6150D01*
X-6270Y-137D01*
X-6150D01*
X-6290Y-177D02*
Y-257D01*
X-6150Y-357D02*
Y-317D01*
X-6170Y-297D01*
X-6250D01*
X-6270Y-317D01*
Y-357D01*
X-6250Y-377D01*
X-6170D01*
X-6150Y-357D01*
Y-497D02*
Y-417D01*
X-6210D01*
Y-457D01*
Y-417D01*
X-6270D01*
X-6150Y-617D02*
Y-537D01*
X-6210D01*
Y-577D01*
Y-537D01*
X-6270D01*
D63*
X-6216Y-948D02*
Y-1049D01*
X-6166Y-998D02*
X-6267D01*
X-6216Y-1252D02*
Y-1354D01*
Y-1748D02*
Y-1849D01*
X-6166Y-1798D02*
X-6267D01*
X-6216Y-2052D02*
Y-2154D01*
D64*
X-4828Y-535D02*
G03*
X-4828Y55I-95J295D01*
G01*
X-5017D02*
G03*
X-5017Y-535I95J-295D01*
G01*
X-4613Y-240D02*
G03*
X-4613Y-240I-310J0D01*
G01*
X-3498Y-457D02*
G03*
X-2907Y-457I295J95D01*
G01*
Y-268D02*
G03*
X-3498Y-268I-295J-95D01*
G01*
X-2893Y-362D02*
G03*
X-2893Y-362I-310J0D01*
G01*
X-2795Y-1338D02*
G03*
X-2795Y-1928I95J-295D01*
G01*
X-2605D02*
G03*
X-2605Y-1338I-95J295D01*
G01*
X-2390Y-1633D02*
G03*
X-2390Y-1633I-310J0D01*
G01*
X-4598Y-395D02*
Y85D01*
X-4768Y-565D02*
X-4598Y-395D01*
X-5077Y-565D02*
X-4768D01*
X-5247Y-395D02*
X-5077Y-565D01*
X-5247Y-395D02*
Y85D01*
X-4598D01*
X-4828D02*
X-4598D01*
Y-395D02*
Y85D01*
X-4768Y-565D02*
X-4598Y-395D01*
X-4828Y-565D02*
X-4768D01*
X-5077D02*
X-5017D01*
X-5247Y-395D02*
X-5077Y-565D01*
X-5247Y-395D02*
Y85D01*
X-5017D01*
X-5142Y-30D02*
X-4698D01*
X-3357Y-687D02*
X-2878D01*
X-3527Y-517D02*
X-3357Y-687D01*
X-3527Y-517D02*
Y-208D01*
X-3357Y-38D01*
X-2878D01*
Y-687D02*
Y-38D01*
Y-687D02*
Y-457D01*
X-3357Y-687D02*
X-2878D01*
X-3527Y-517D02*
X-3357Y-687D01*
X-3527Y-517D02*
Y-457D01*
Y-268D02*
Y-208D01*
X-3357Y-38D01*
X-2878D01*
Y-268D02*
Y-38D01*
X-2992Y-587D02*
Y-143D01*
X-3025Y-1957D02*
Y-1478D01*
X-2855Y-1308D01*
X-2545D01*
X-2375Y-1478D01*
Y-1957D02*
Y-1478D01*
X-3025Y-1957D02*
X-2375D01*
X-3025D02*
X-2795D01*
X-3025D02*
Y-1478D01*
X-2855Y-1308D01*
X-2795D01*
X-2605D02*
X-2545D01*
X-2375Y-1478D01*
Y-1957D02*
Y-1478D01*
X-2605Y-1957D02*
X-2375D01*
X-2925Y-1843D02*
X-2480D01*
D65*
X-4426Y3743D02*
G03*
X-4299Y3743I63J0D01*
G01*
X-4442Y-1462D02*
Y-962D01*
X-4622Y-1462D02*
Y-962D01*
Y-1462D02*
X-4442D01*
X-4622Y-962D02*
X-4442D01*
X-2873Y3643D02*
X-2286D01*
X-2873Y2828D02*
X-2286D01*
X-3673Y3643D02*
X-3086D01*
X-3673Y2828D02*
X-3086D01*
X-1756Y-654D02*
Y-167D01*
Y-929D02*
Y-167D01*
X-2264Y-929D02*
Y-167D01*
Y-929D02*
X-1756D01*
X-2264Y-167D02*
X-1756D01*
X-4627Y203D02*
Y3743D01*
X-4097Y203D02*
Y3743D01*
X-4627D02*
X-4426D01*
X-4299D02*
X-4097D01*
X-4627Y203D02*
X-4097D01*
X-3494Y1476D02*
X-3008D01*
X-3769D02*
X-3008D01*
X-3769Y1983D02*
X-3008D01*
X-3769Y1476D02*
Y1983D01*
X-3008Y1476D02*
Y1983D01*
X-6092Y-693D02*
X-5838D01*
Y163D01*
X-6092D02*
X-5838D01*
X-6092Y-693D02*
Y163D01*
X-5833Y-1361D02*
Y-853D01*
X-6087D02*
X-5833D01*
X-6087Y-1361D02*
Y-853D01*
Y-1361D02*
X-5833D01*
X-4285Y-703D02*
Y-32D01*
Y-703D02*
X-3915D01*
Y-32D01*
X-4285D02*
X-3915D01*
X-5833Y-2181D02*
Y-1673D01*
X-6087D02*
X-5833D01*
X-6087Y-2181D02*
Y-1673D01*
Y-2181D02*
X-5833D01*
X-5663Y95D02*
X-5352D01*
X-5663Y-650D02*
X-5618Y-695D01*
X-5397D02*
X-5352Y-650D01*
X-5618Y-695D02*
X-5397D01*
X-5663Y-165D02*
Y95D01*
X-5352Y-165D02*
Y95D01*
Y-650D02*
Y-405D01*
X-5663Y-650D02*
Y-405D01*
X-4728Y-1865D02*
X-4683D01*
X-4513D02*
X-4468D01*
X-4728D02*
Y-1718D01*
X-4468Y-1865D02*
Y-1718D01*
X-5362Y-1773D02*
X-5053D01*
X-5362Y-1723D02*
X-5053D01*
X-5362Y-1773D02*
Y-1723D01*
X-5053Y-1773D02*
Y-1723D01*
X-3705Y-1168D02*
X-3700D01*
X-3705Y-1348D02*
X-3700D01*
X-3400Y-1168D02*
X-3395D01*
X-3400Y-1348D02*
X-3395D01*
Y-1168D01*
X-3705Y-1348D02*
Y-1168D01*
X-405Y-605D02*
Y-445D01*
X-715Y-605D02*
Y-445D01*
X-3102Y2400D02*
Y2300D01*
X-3069Y2333D01*
X-3036Y2300D01*
Y2400D01*
X-3003Y2300D02*
X-2969D01*
X-2986D01*
Y2400D01*
X-3003Y2383D01*
X-2458Y-2017D02*
X-2475Y-2000D01*
X-2508D01*
X-2525Y-2017D01*
Y-2083D01*
X-2508Y-2100D01*
X-2475D01*
X-2458Y-2083D01*
X-2425Y-2100D02*
X-2392D01*
X-2408D01*
Y-2000D01*
X-2425Y-2017D01*
X-3219Y-1744D02*
X-3203Y-1727D01*
Y-1694D01*
X-3219Y-1677D01*
X-3286D01*
X-3303Y-1694D01*
Y-1727D01*
X-3286Y-1744D01*
X-3303Y-1844D02*
Y-1777D01*
X-3236Y-1844D01*
X-3219D01*
X-3203Y-1827D01*
Y-1794D01*
X-3219Y-1777D01*
X-4913Y-684D02*
X-4930Y-668D01*
X-4963D01*
X-4980Y-684D01*
Y-751D01*
X-4963Y-768D01*
X-4930D01*
X-4913Y-751D01*
X-4880Y-684D02*
X-4863Y-668D01*
X-4830D01*
X-4813Y-684D01*
Y-701D01*
X-4830Y-718D01*
X-4847D01*
X-4830D01*
X-4813Y-734D01*
Y-751D01*
X-4830Y-768D01*
X-4863D01*
X-4880Y-751D01*
X-5104Y1996D02*
X-5088Y2013D01*
Y2046D01*
X-5104Y2062D01*
X-5171D01*
X-5188Y2046D01*
Y2013D01*
X-5171Y1996D01*
X-5188Y1913D02*
X-5088D01*
X-5138Y1963D01*
Y1896D01*
X-3198Y86D02*
X-3215Y102D01*
X-3248D01*
X-3265Y86D01*
Y19D01*
X-3248Y3D01*
X-3215D01*
X-3198Y19D01*
X-3098Y102D02*
X-3165D01*
Y52D01*
X-3132Y69D01*
X-3115D01*
X-3098Y52D01*
Y19D01*
X-3115Y3D01*
X-3148D01*
X-3165Y19D01*
X-2452Y-449D02*
X-2435Y-432D01*
Y-399D01*
X-2452Y-383D01*
X-2518D01*
X-2535Y-399D01*
Y-432D01*
X-2518Y-449D01*
X-2435Y-549D02*
X-2452Y-516D01*
X-2485Y-482D01*
X-2518D01*
X-2535Y-499D01*
Y-532D01*
X-2518Y-549D01*
X-2502D01*
X-2485Y-532D01*
Y-482D01*
X-5193Y-2227D02*
X-5210Y-2210D01*
X-5243D01*
X-5260Y-2227D01*
Y-2293D01*
X-5243Y-2310D01*
X-5210D01*
X-5193Y-2293D01*
X-5160Y-2227D02*
X-5143Y-2210D01*
X-5110D01*
X-5093Y-2227D01*
Y-2243D01*
X-5110Y-2260D01*
X-5093Y-2277D01*
Y-2293D01*
X-5110Y-2310D01*
X-5143D01*
X-5160Y-2293D01*
Y-2277D01*
X-5143Y-2260D01*
X-5160Y-2243D01*
Y-2227D01*
X-5143Y-2260D02*
X-5110D01*
X-1069Y-904D02*
X-1053Y-887D01*
Y-854D01*
X-1069Y-838D01*
X-1136D01*
X-1152Y-854D01*
Y-887D01*
X-1136Y-904D01*
X-1152Y-937D02*
Y-971D01*
Y-954D01*
X-1053D01*
X-1069Y-937D01*
X-1152Y-1021D02*
Y-1054D01*
Y-1037D01*
X-1053D01*
X-1069Y-1021D01*
X-2865Y-985D02*
Y-1085D01*
X-2815D01*
X-2798Y-1068D01*
Y-1002D01*
X-2815Y-985D01*
X-2865D01*
X-2765Y-1085D02*
X-2732D01*
X-2748D01*
Y-985D01*
X-2765Y-1002D01*
X-5305Y-645D02*
Y-745D01*
X-5255D01*
X-5238Y-728D01*
Y-662D01*
X-5255Y-645D01*
X-5305D01*
X-5205Y-662D02*
X-5188Y-645D01*
X-5155D01*
X-5138Y-662D01*
Y-678D01*
X-5155Y-695D01*
X-5172D01*
X-5155D01*
X-5138Y-712D01*
Y-728D01*
X-5155Y-745D01*
X-5188D01*
X-5205Y-728D01*
X-3735Y-2070D02*
X-3835D01*
Y-2120D01*
X-3818Y-2137D01*
X-3752D01*
X-3735Y-2120D01*
Y-2070D01*
Y-2237D02*
X-3752Y-2203D01*
X-3785Y-2170D01*
X-3818D01*
X-3835Y-2187D01*
Y-2220D01*
X-3818Y-2237D01*
X-3802D01*
X-3785Y-2220D01*
Y-2170D01*
X1048Y-1710D02*
Y-1810D01*
X1097D01*
X1114Y-1793D01*
Y-1727D01*
X1097Y-1710D01*
X1048D01*
X1147Y-1727D02*
X1164Y-1710D01*
X1197D01*
X1214Y-1727D01*
Y-1743D01*
X1197Y-1760D01*
X1214Y-1777D01*
Y-1793D01*
X1197Y-1810D01*
X1164D01*
X1147Y-1793D01*
Y-1777D01*
X1164Y-1760D01*
X1147Y-1743D01*
Y-1727D01*
X1164Y-1760D02*
X1197D01*
X1050Y-2028D02*
Y-2127D01*
X1100D01*
X1117Y-2111D01*
Y-2044D01*
X1100Y-2028D01*
X1050D01*
X1150Y-2111D02*
X1167Y-2127D01*
X1200D01*
X1217Y-2111D01*
Y-2044D01*
X1200Y-2028D01*
X1167D01*
X1150Y-2044D01*
Y-2061D01*
X1167Y-2078D01*
X1217D01*
X203Y457D02*
Y358D01*
X252D01*
X269Y374D01*
Y441D01*
X252Y457D01*
X203D01*
X302Y358D02*
X336D01*
X319D01*
Y457D01*
X302Y441D01*
X386D02*
X402Y457D01*
X436D01*
X452Y441D01*
Y374D01*
X436Y358D01*
X402D01*
X386Y374D01*
Y441D01*
X228Y737D02*
Y638D01*
X277D01*
X294Y654D01*
Y721D01*
X277Y737D01*
X228D01*
X327Y638D02*
X361D01*
X344D01*
Y737D01*
X327Y721D01*
X411Y638D02*
X444D01*
X427D01*
Y737D01*
X411Y721D01*
X188Y1005D02*
Y905D01*
X237D01*
X254Y922D01*
Y988D01*
X237Y1005D01*
X188D01*
X287Y905D02*
X321D01*
X304D01*
Y1005D01*
X287Y988D01*
X437Y905D02*
X371D01*
X437Y972D01*
Y988D01*
X421Y1005D01*
X387D01*
X371Y988D01*
X180Y1272D02*
Y1173D01*
X230D01*
X247Y1189D01*
Y1256D01*
X230Y1272D01*
X180D01*
X280Y1173D02*
X313D01*
X297D01*
Y1272D01*
X280Y1256D01*
X363D02*
X380Y1272D01*
X413D01*
X430Y1256D01*
Y1239D01*
X413Y1222D01*
X397D01*
X413D01*
X430Y1206D01*
Y1189D01*
X413Y1173D01*
X380D01*
X363Y1189D01*
X-783Y-519D02*
Y-453D01*
X-833D01*
Y-486D01*
Y-453D01*
X-882D01*
Y-552D02*
Y-586D01*
Y-569D01*
X-783D01*
X-799Y-552D01*
X-6020Y-1485D02*
Y-1385D01*
X-5970D01*
X-5953Y-1402D01*
Y-1435D01*
X-5970Y-1452D01*
X-6020D01*
X-5920Y-1485D02*
X-5887D01*
X-5903D01*
Y-1385D01*
X-5920Y-1402D01*
X-6070Y2350D02*
Y2450D01*
X-6020D01*
X-6003Y2433D01*
Y2400D01*
X-6020Y2383D01*
X-6070D01*
X-5903Y2350D02*
X-5970D01*
X-5903Y2417D01*
Y2433D01*
X-5920Y2450D01*
X-5953D01*
X-5970Y2433D01*
X-3475Y1318D02*
Y1417D01*
X-3425D01*
X-3408Y1401D01*
Y1367D01*
X-3425Y1351D01*
X-3475D01*
X-3375Y1401D02*
X-3358Y1417D01*
X-3325D01*
X-3308Y1401D01*
Y1384D01*
X-3325Y1367D01*
X-3342D01*
X-3325D01*
X-3308Y1351D01*
Y1334D01*
X-3325Y1318D01*
X-3358D01*
X-3375Y1334D01*
X-6038Y-2338D02*
Y-2238D01*
X-5988D01*
X-5971Y-2254D01*
Y-2288D01*
X-5988Y-2304D01*
X-6038D01*
X-5888Y-2338D02*
Y-2238D01*
X-5938Y-2288D01*
X-5871D01*
X-1700Y-250D02*
X-1600D01*
Y-300D01*
X-1617Y-317D01*
X-1650D01*
X-1667Y-300D01*
Y-250D01*
X-1600Y-417D02*
X-1617Y-383D01*
X-1650Y-350D01*
X-1683D01*
X-1700Y-367D01*
Y-400D01*
X-1683Y-417D01*
X-1667D01*
X-1650Y-400D01*
Y-350D01*
X-4591Y-2118D02*
Y-2052D01*
X-4608Y-2035D01*
X-4641D01*
X-4658Y-2052D01*
Y-2118D01*
X-4641Y-2135D01*
X-4608D01*
X-4624Y-2102D02*
X-4591Y-2135D01*
X-4608D02*
X-4591Y-2118D01*
X-4558Y-2135D02*
X-4524D01*
X-4541D01*
Y-2035D01*
X-4558Y-2052D01*
X-3330Y-1070D02*
Y-970D01*
X-3280D01*
X-3263Y-987D01*
Y-1020D01*
X-3280Y-1037D01*
X-3330D01*
X-3297D02*
X-3263Y-1070D01*
X-3230D02*
X-3197D01*
X-3213D01*
Y-970D01*
X-3230Y-987D01*
X-5153Y3420D02*
Y3520D01*
X-5103D01*
X-5086Y3503D01*
Y3470D01*
X-5103Y3453D01*
X-5153D01*
X-5119D02*
X-5086Y3420D01*
X-5053Y3520D02*
X-4986D01*
Y3503D01*
X-5053Y3437D01*
Y3420D01*
X-5500Y-1170D02*
X-5400D01*
Y-1220D01*
X-5417Y-1237D01*
X-5450D01*
X-5467Y-1220D01*
Y-1170D01*
Y-1203D02*
X-5500Y-1237D01*
X-5483Y-1270D02*
X-5500Y-1287D01*
Y-1320D01*
X-5483Y-1337D01*
X-5417D01*
X-5400Y-1320D01*
Y-1287D01*
X-5417Y-1270D01*
X-5433D01*
X-5450Y-1287D01*
Y-1337D01*
X-3875Y-1375D02*
X-3775D01*
Y-1425D01*
X-3792Y-1442D01*
X-3825D01*
X-3842Y-1425D01*
Y-1375D01*
Y-1408D02*
X-3875Y-1442D01*
Y-1475D02*
Y-1508D01*
Y-1492D01*
X-3775D01*
X-3792Y-1475D01*
Y-1558D02*
X-3775Y-1575D01*
Y-1608D01*
X-3792Y-1625D01*
X-3858D01*
X-3875Y-1608D01*
Y-1575D01*
X-3858Y-1558D01*
X-3792D01*
X-5083Y-1045D02*
X-4983D01*
Y-1095D01*
X-4999Y-1112D01*
X-5033D01*
X-5049Y-1095D01*
Y-1045D01*
Y-1078D02*
X-5083Y-1112D01*
Y-1145D02*
Y-1178D01*
Y-1162D01*
X-4983D01*
X-4999Y-1145D01*
X-5083Y-1228D02*
Y-1262D01*
Y-1245D01*
X-4983D01*
X-4999Y-1228D01*
X388Y2673D02*
X288D01*
Y2722D01*
X304Y2739D01*
X338D01*
X354Y2722D01*
Y2673D01*
Y2706D02*
X388Y2739D01*
Y2772D02*
Y2806D01*
Y2789D01*
X288D01*
X304Y2772D01*
X288Y2922D02*
Y2856D01*
X338D01*
X321Y2889D01*
Y2906D01*
X338Y2922D01*
X371D01*
X388Y2906D01*
Y2872D01*
X371Y2856D01*
X-85Y-2262D02*
Y-2163D01*
X-35D01*
X-18Y-2179D01*
Y-2213D01*
X-35Y-2229D01*
X-85D01*
X-52D02*
X-18Y-2262D01*
X15D02*
X48D01*
X32D01*
Y-2163D01*
X15Y-2179D01*
X165Y-2163D02*
X132Y-2179D01*
X98Y-2213D01*
Y-2246D01*
X115Y-2262D01*
X148D01*
X165Y-2246D01*
Y-2229D01*
X148Y-2213D01*
X98D01*
X-62Y-2102D02*
Y-2003D01*
X-13D01*
X4Y-2019D01*
Y-2053D01*
X-13Y-2069D01*
X-62D01*
X-29D02*
X4Y-2102D01*
X37D02*
X71D01*
X54D01*
Y-2003D01*
X37Y-2019D01*
X121Y-2003D02*
X187D01*
Y-2019D01*
X121Y-2086D01*
Y-2102D01*
X790Y2680D02*
X690D01*
Y2730D01*
X707Y2747D01*
X740D01*
X757Y2730D01*
Y2680D01*
Y2713D02*
X790Y2747D01*
Y2780D02*
Y2813D01*
Y2797D01*
X690D01*
X707Y2780D01*
X773Y2863D02*
X790Y2880D01*
Y2913D01*
X773Y2930D01*
X707D01*
X690Y2913D01*
Y2880D01*
X707Y2863D01*
X723D01*
X740Y2880D01*
Y2930D01*
X-5966Y301D02*
X-5983Y317D01*
X-6016D01*
X-6033Y301D01*
Y284D01*
X-6016Y267D01*
X-5983D01*
X-5966Y251D01*
Y234D01*
X-5983Y217D01*
X-6016D01*
X-6033Y234D01*
X-5933Y217D02*
X-5899D01*
X-5916D01*
Y317D01*
X-5933Y301D01*
X-3383Y2716D02*
X-3400Y2732D01*
X-3433D01*
X-3450Y2716D01*
Y2699D01*
X-3433Y2682D01*
X-3400D01*
X-3383Y2666D01*
Y2649D01*
X-3400Y2633D01*
X-3433D01*
X-3450Y2649D01*
X-3283Y2633D02*
X-3350D01*
X-3283Y2699D01*
Y2716D01*
X-3300Y2732D01*
X-3333D01*
X-3350Y2716D01*
X-2841Y2698D02*
X-2858Y2715D01*
X-2891D01*
X-2908Y2698D01*
Y2682D01*
X-2891Y2665D01*
X-2858D01*
X-2841Y2648D01*
Y2632D01*
X-2858Y2615D01*
X-2891D01*
X-2908Y2632D01*
X-2808Y2698D02*
X-2791Y2715D01*
X-2758D01*
X-2741Y2698D01*
Y2682D01*
X-2758Y2665D01*
X-2774D01*
X-2758D01*
X-2741Y2648D01*
Y2632D01*
X-2758Y2615D01*
X-2791D01*
X-2808Y2632D01*
X-4190Y-768D02*
Y-851D01*
X-4173Y-868D01*
X-4140D01*
X-4123Y-851D01*
Y-768D01*
X-4023Y-868D02*
X-4090D01*
X-4023Y-801D01*
Y-784D01*
X-4040Y-768D01*
X-4073D01*
X-4090Y-784D01*
X-3867Y507D02*
Y424D01*
X-3851Y407D01*
X-3818D01*
X-3801Y424D01*
Y507D01*
X-3768Y491D02*
X-3751Y507D01*
X-3718D01*
X-3701Y491D01*
Y474D01*
X-3718Y457D01*
X-3734D01*
X-3718D01*
X-3701Y441D01*
Y424D01*
X-3718Y407D01*
X-3751D01*
X-3768Y424D01*
X-4322Y-1550D02*
Y-1633D01*
X-4306Y-1650D01*
X-4273D01*
X-4256Y-1633D01*
Y-1550D01*
X-4173Y-1650D02*
Y-1550D01*
X-4223Y-1600D01*
X-4156D01*
X-5003Y-1695D02*
Y-1778D01*
X-4986Y-1795D01*
X-4953D01*
X-4936Y-1778D01*
Y-1695D01*
X-4836D02*
X-4903D01*
Y-1745D01*
X-4869Y-1728D01*
X-4853D01*
X-4836Y-1745D01*
Y-1778D01*
X-4853Y-1795D01*
X-4886D01*
X-4903Y-1778D01*
X100Y3765D02*
Y3682D01*
X117Y3665D01*
X150D01*
X167Y3682D01*
Y3765D01*
X200D02*
X267D01*
Y3748D01*
X200Y3682D01*
Y3665D01*
X-760Y-1775D02*
Y-1792D01*
X-727Y-1825D01*
X-693Y-1792D01*
Y-1775D01*
X-727Y-1825D02*
Y-1875D01*
X-593D02*
X-660D01*
X-593Y-1808D01*
Y-1792D01*
X-610Y-1775D01*
X-643D01*
X-660Y-1792D01*
X-2570Y975D02*
Y958D01*
X-2537Y925D01*
X-2503Y958D01*
Y975D01*
X-2537Y925D02*
Y875D01*
X-2470Y958D02*
X-2453Y975D01*
X-2420D01*
X-2403Y958D01*
Y942D01*
X-2420Y925D01*
X-2437D01*
X-2420D01*
X-2403Y908D01*
Y892D01*
X-2420Y875D01*
X-2453D01*
X-2470Y892D01*
X-3600Y-1505D02*
Y-1588D01*
X-3583Y-1605D01*
X-3550D01*
X-3533Y-1588D01*
Y-1505D01*
X-3500Y-1605D02*
X-3467D01*
X-3483D01*
Y-1505D01*
X-3500Y-1522D01*
X550Y-285D02*
Y-185D01*
X600D01*
X617Y-202D01*
Y-235D01*
X600Y-252D01*
X550D01*
X717Y-185D02*
X650D01*
Y-235D01*
X683Y-218D01*
X700D01*
X717Y-235D01*
Y-268D01*
X700Y-285D01*
X667D01*
X650Y-268D01*
X959Y2613D02*
X942Y2630D01*
X909D01*
X893Y2613D01*
Y2597D01*
X909Y2580D01*
X942D01*
X959Y2563D01*
Y2547D01*
X942Y2530D01*
X909D01*
X893Y2547D01*
X992Y2630D02*
Y2530D01*
X1026Y2563D01*
X1059Y2530D01*
Y2630D01*
X1092Y2530D02*
X1126D01*
X1109D01*
Y2630D01*
X1092Y2613D01*
X-5638Y568D02*
X-5738D01*
Y518D01*
X-5721Y501D01*
X-5654D01*
X-5638Y518D01*
Y568D01*
X-5738Y401D02*
Y468D01*
X-5671Y401D01*
X-5654D01*
X-5638Y418D01*
Y451D01*
X-5654Y468D01*
D66*
X-3392Y-1128D02*
G03*
X-3392Y-1128I-5J0D01*
G01*
D67*
X-6050Y840D02*
G03*
X-6050Y840I-100J0D01*
G01*
X-5565D02*
G03*
X-5565Y840I-100J0D01*
G01*
X-6050Y1330D02*
G03*
X-6050Y1330I-100J0D01*
G01*
X-5565D02*
G03*
X-5565Y1330I-100J0D01*
G01*
X-6047Y832D02*
X-5762D01*
X-6055Y1330D02*
X-5778D01*
X-6092Y927D02*
X-5940Y1080D01*
D68*
X-2100Y3000D02*
X0D01*
X-2100D02*
Y3800D01*
Y0D02*
Y3000D01*
Y0D02*
X0D01*
Y3000D01*
Y3800D01*
X-2100D02*
X0D01*
X-2050Y2950D02*
X-50D01*
X-2050Y50D02*
Y2950D01*
Y3750D01*
X-50D01*
Y2950D02*
Y3750D01*
Y50D02*
Y2950D01*
X-2050Y50D02*
X-50D01*
X-6347Y2565D02*
Y3650D01*
Y2565D02*
X-5648D01*
Y3650D01*
X-6347D02*
X-5648D01*
D69*
X-1832Y-1006D02*
Y-963D01*
Y-985D01*
X-1959D01*
X-1937Y-1006D01*
X-2086Y-972D02*
Y-1056D01*
X-2170Y-972D01*
X-2191D01*
X-2213Y-993D01*
Y-1035D01*
X-2191Y-1056D01*
X-1959Y-57D02*
Y-142D01*
X-1895D01*
X-1916Y-100D01*
Y-79D01*
X-1895Y-57D01*
X-1853D01*
X-1832Y-79D01*
Y-121D01*
X-1853Y-142D01*
X-2213Y-57D02*
X-2191Y-100D01*
X-2149Y-142D01*
X-2107D01*
X-2086Y-121D01*
Y-79D01*
X-2107Y-57D01*
X-2128D01*
X-2149Y-79D01*
Y-142D01*
X-3846Y1552D02*
X-3803D01*
X-3825D01*
Y1679D01*
X-3846Y1657D01*
X-3812Y1806D02*
X-3897D01*
X-3812Y1890D01*
Y1911D01*
X-3833Y1933D01*
X-3875D01*
X-3897Y1911D01*
X-2897Y1679D02*
X-2982D01*
Y1615D01*
X-2940Y1636D01*
X-2919D01*
X-2897Y1615D01*
Y1573D01*
X-2919Y1552D01*
X-2961D01*
X-2982Y1573D01*
X-2897Y1933D02*
X-2940Y1911D01*
X-2982Y1869D01*
Y1827D01*
X-2961Y1806D01*
X-2919D01*
X-2897Y1827D01*
Y1848D01*
X-2919Y1869D01*
X-2982D01*
D70*
X-4922Y95D02*
D03*
Y-575D02*
D03*
X-2700Y-1967D02*
D03*
Y-1297D02*
D03*
D71*
X-2867Y-363D02*
D03*
X-3537D02*
D03*
M02*
