%FSLAX42Y42*%
%MOMM*%
G71*
G01*
G75*
G04 Layer_Physical_Order=1*
G04 Layer_Color=255*
%ADD10R,1.30X1.50*%
%ADD11R,1.00X1.10*%
%ADD12R,1.10X1.00*%
%ADD13O,2.20X0.60*%
%ADD14R,1.50X1.30*%
%ADD15R,1.40X3.00*%
%ADD16R,3.00X1.40*%
%ADD17O,1.00X3.20*%
%ADD18R,1.00X3.20*%
%ADD19R,2.00X1.10*%
%ADD20R,6.00X2.00*%
%ADD21R,2.00X6.00*%
%ADD22R,0.80X2.00*%
%ADD23R,1.75X3.50*%
%ADD24R,1.75X1.10*%
%ADD25R,1.75X1.10*%
%ADD26R,2.30X2.30*%
%ADD27R,0.90X0.95*%
%ADD28R,0.90X0.95*%
%ADD29R,0.65X1.10*%
%ADD30R,0.55X1.45*%
%ADD31R,0.55X1.45*%
%ADD32R,1.00X1.00*%
%ADD33R,3.30X1.40*%
%ADD34C,1.00*%
%ADD35R,1.20X0.23*%
%ADD36C,0.40*%
%ADD37C,0.45*%
%ADD38C,0.25*%
%ADD39C,0.60*%
%ADD40C,0.25*%
%ADD41C,0.30*%
%ADD42C,1.52*%
%ADD43C,3.22*%
%ADD44C,1.68*%
%ADD45C,1.50*%
%ADD46R,1.50X1.50*%
%ADD47R,1.50X1.50*%
%ADD48C,1.85*%
%ADD49R,1.85X1.85*%
G04:AMPARAMS|DCode=50|XSize=1.25mm|YSize=2mm|CornerRadius=0.31mm|HoleSize=0mm|Usage=FLASHONLY|Rotation=270.000|XOffset=0mm|YOffset=0mm|HoleType=Round|Shape=RoundedRectangle|*
%AMROUNDEDRECTD50*
21,1,1.25,1.38,0,0,270.0*
21,1,0.63,2.00,0,0,270.0*
1,1,0.63,-0.69,-0.31*
1,1,0.63,-0.69,0.31*
1,1,0.63,0.69,0.31*
1,1,0.63,0.69,-0.31*
%
%ADD50ROUNDEDRECTD50*%
G04:AMPARAMS|DCode=51|XSize=1.25mm|YSize=1.8mm|CornerRadius=0.31mm|HoleSize=0mm|Usage=FLASHONLY|Rotation=270.000|XOffset=0mm|YOffset=0mm|HoleType=Round|Shape=RoundedRectangle|*
%AMROUNDEDRECTD51*
21,1,1.25,1.18,0,0,270.0*
21,1,0.63,1.80,0,0,270.0*
1,1,0.63,-0.59,-0.31*
1,1,0.63,-0.59,0.31*
1,1,0.63,0.59,0.31*
1,1,0.63,0.59,-0.31*
%
%ADD51ROUNDEDRECTD51*%
%ADD52C,0.70*%
%ADD53C,0.66*%
G36*
X-5701Y2574D02*
X-5698Y2566D01*
X-5698Y2565D01*
X-5698Y2564D01*
X-5701Y2557D01*
X-5748D01*
Y2570D01*
X-5760D01*
Y2577D01*
X-5710D01*
X-5709Y2577D01*
X-5701Y2574D01*
D02*
G37*
G36*
X-6195Y2553D02*
X-6220D01*
Y2565D01*
X-6195D01*
Y2553D01*
D02*
G37*
G36*
X-4279Y3195D02*
X-4282Y3191D01*
X-4286Y3170D01*
X-4282Y3149D01*
X-4270Y3130D01*
X-4263Y3126D01*
Y3008D01*
X-4275Y3005D01*
X-4276Y3006D01*
X-4409Y3139D01*
X-4420Y3146D01*
X-4433Y3149D01*
X-4654D01*
X-4661Y3163D01*
X-4676Y3183D01*
X-4696Y3198D01*
X-4694Y3207D01*
X-4285D01*
X-4279Y3195D01*
D02*
G37*
G36*
X-6293Y3582D02*
X-6276Y3570D01*
X-6256Y3566D01*
X-6248D01*
Y2649D01*
X-6266D01*
X-6286Y2645D01*
X-6300Y2635D01*
X-6312Y2641D01*
Y3588D01*
X-6300Y3591D01*
X-6293Y3582D01*
D02*
G37*
G36*
X-1385Y-1026D02*
Y-1081D01*
X-1381D01*
X-1376Y-1093D01*
X-1458Y-1174D01*
X-1711D01*
X-1724Y-1166D01*
X-1745Y-1161D01*
X-1747Y-1157D01*
X-1679Y-1088D01*
X-1574D01*
X-1570Y-1095D01*
X-1551Y-1107D01*
X-1530Y-1111D01*
X-1509Y-1107D01*
X-1490Y-1095D01*
X-1478Y-1076D01*
X-1476Y-1065D01*
X-1465Y-1058D01*
X-1450Y-1061D01*
X-1429Y-1057D01*
X-1410Y-1045D01*
X-1398Y-1026D01*
X-1398Y-1025D01*
X-1385Y-1026D01*
D02*
G37*
G36*
X-2170Y2900D02*
X-2136D01*
X-2131Y2888D01*
X-2179Y2840D01*
X-2190Y2824D01*
X-2194Y2804D01*
Y2122D01*
X-2195Y2121D01*
X-2197Y2112D01*
X-2090D01*
X-2091Y2121D01*
X-2092Y2122D01*
Y2783D01*
X-2026Y2849D01*
X-1920D01*
Y2830D01*
X-1863D01*
Y2900D01*
X-1837D01*
Y2830D01*
X-1780D01*
Y2849D01*
X-1720D01*
Y2830D01*
X-1663D01*
Y2900D01*
X-1637D01*
Y2830D01*
X-1580D01*
Y2849D01*
X-1556D01*
X-1555Y2849D01*
Y2900D01*
X-1530D01*
Y2849D01*
X-1530Y2849D01*
X-1520Y2841D01*
Y2830D01*
X-1463D01*
Y2900D01*
X-1437D01*
Y2830D01*
X-1380D01*
Y2849D01*
X-1320D01*
Y2830D01*
X-1263D01*
Y2900D01*
X-1237D01*
Y2830D01*
X-1180D01*
Y2849D01*
X-1120D01*
Y2830D01*
X-1063D01*
Y2900D01*
X-1037D01*
Y2830D01*
X-980D01*
Y2849D01*
X-920D01*
Y2830D01*
X-863D01*
Y2900D01*
X-837D01*
Y2830D01*
X-780D01*
Y2849D01*
X-720D01*
Y2830D01*
X-663D01*
Y2900D01*
X-637D01*
Y2830D01*
X-580D01*
Y2849D01*
X-520D01*
Y2830D01*
X-463D01*
Y2900D01*
X-437D01*
Y2830D01*
X-380D01*
Y2849D01*
X-320D01*
Y2830D01*
X-263D01*
Y2900D01*
X-237D01*
Y2830D01*
X-180D01*
Y2849D01*
X-35D01*
X-15Y2853D01*
X1Y2864D01*
X1Y2864D01*
X1Y2864D01*
X37Y2900D01*
X93Y2900D01*
Y2793D01*
X233D01*
Y2827D01*
X281D01*
X294Y2818D01*
X315Y2814D01*
X336Y2818D01*
X355Y2830D01*
X367Y2849D01*
X371Y2870D01*
X367Y2890D01*
X375Y2900D01*
X452Y2900D01*
X480Y2872D01*
Y2887D01*
X550D01*
Y2874D01*
X562D01*
Y2799D01*
X620D01*
Y2823D01*
X927D01*
X1038Y2713D01*
X1038Y2711D01*
X1039Y2710D01*
Y2425D01*
X970D01*
Y2363D01*
X1210D01*
Y2425D01*
X1141D01*
Y2710D01*
X1142Y2711D01*
X1144Y2720D01*
X1090D01*
Y2745D01*
X1144D01*
X1142Y2754D01*
X1130Y2772D01*
X1111Y2784D01*
X1110Y2785D01*
X1006Y2888D01*
X1011Y2900D01*
X1242Y2900D01*
Y-2359D01*
X-6312D01*
Y2489D01*
X-6300Y2495D01*
X-6286Y2485D01*
X-6266Y2481D01*
X-6220D01*
Y2482D01*
X-6195D01*
Y2481D01*
X-6149D01*
X-6129Y2485D01*
X-6112Y2497D01*
X-6100Y2514D01*
X-6100Y2514D01*
X-5861D01*
X-5853Y2502D01*
X-5836Y2490D01*
X-5816Y2486D01*
X-5811D01*
X-5807Y2485D01*
X-5785Y2482D01*
Y2482D01*
X-5785Y2482D01*
X-5710D01*
X-5710Y2482D01*
Y2482D01*
X-5688Y2485D01*
X-5684Y2486D01*
X-5679D01*
X-5659Y2490D01*
X-5642Y2502D01*
X-5630Y2519D01*
X-5626Y2539D01*
Y2557D01*
X-5628D01*
X-5627Y2565D01*
X-5629Y2583D01*
X-5626D01*
Y2601D01*
X-5630Y2621D01*
X-5642Y2638D01*
X-5659Y2650D01*
X-5679Y2654D01*
X-5735D01*
Y2648D01*
X-5760D01*
Y2654D01*
X-5803D01*
X-5805Y2666D01*
X-5792Y2671D01*
X-5778Y2683D01*
X-5766Y2697D01*
X-5759Y2714D01*
X-5757Y2732D01*
X-5759Y2751D01*
X-5766Y2768D01*
X-5778Y2782D01*
X-5792Y2794D01*
X-5809Y2801D01*
X-5828Y2803D01*
X-5846Y2801D01*
X-5863Y2794D01*
X-5877Y2782D01*
X-5889Y2768D01*
X-5896Y2751D01*
X-5898Y2732D01*
X-5896Y2714D01*
X-5889Y2697D01*
X-5877Y2683D01*
X-5863Y2671D01*
X-5846Y2664D01*
X-5834Y2663D01*
X-5834Y2650D01*
X-5836Y2650D01*
X-5853Y2638D01*
X-5865Y2621D01*
X-5866Y2616D01*
X-6100D01*
X-6100Y2616D01*
X-6112Y2633D01*
X-6129Y2645D01*
X-6147Y2648D01*
Y3566D01*
X-6139D01*
X-6119Y3570D01*
X-6102Y3582D01*
X-6090Y3599D01*
X-6090Y3599D01*
X-5865D01*
X-5865Y3599D01*
X-5853Y3582D01*
X-5836Y3570D01*
X-5816Y3566D01*
X-5760D01*
Y3567D01*
X-5735D01*
Y3566D01*
X-5736D01*
X-5684Y3514D01*
X-5681Y3512D01*
Y3499D01*
X-5728D01*
Y3480D01*
X-5568D01*
Y3499D01*
X-5614D01*
Y3512D01*
X-5611Y3514D01*
X-5600Y3530D01*
X-5597Y3550D01*
X-5600Y3570D01*
X-5611Y3586D01*
X-5629Y3604D01*
X-5626Y3619D01*
Y3637D01*
X-5628D01*
X-5627Y3650D01*
X-5628Y3663D01*
X-5626D01*
Y3681D01*
X-5630Y3701D01*
X-5642Y3718D01*
X-5659Y3730D01*
X-5679Y3734D01*
X-5735D01*
Y3733D01*
X-5760D01*
Y3734D01*
X-5816D01*
X-5836Y3730D01*
X-5853Y3718D01*
X-5865Y3701D01*
X-5865Y3701D01*
X-6090D01*
X-6090Y3701D01*
X-6102Y3718D01*
X-6119Y3730D01*
X-6139Y3734D01*
X-6185D01*
Y3733D01*
X-6210D01*
Y3734D01*
X-6256D01*
X-6276Y3730D01*
X-6293Y3718D01*
X-6300Y3709D01*
X-6312Y3712D01*
Y3807D01*
X-4645D01*
X-4644Y3794D01*
X-4647Y3793D01*
X-4658Y3786D01*
X-4726Y3719D01*
X-4838D01*
Y3656D01*
X-4906D01*
Y3693D01*
X-5056D01*
Y3553D01*
X-4906D01*
Y3589D01*
X-4838D01*
Y3531D01*
X-4865D01*
X-4878Y3528D01*
X-4889Y3521D01*
X-5029Y3381D01*
X-5317D01*
X-5321Y3393D01*
X-5315Y3397D01*
X-5159Y3553D01*
X-5076D01*
Y3693D01*
X-5226D01*
Y3678D01*
X-5237Y3672D01*
X-5251Y3682D01*
X-5272Y3686D01*
X-5294Y3682D01*
X-5312Y3670D01*
X-5324Y3651D01*
X-5329Y3630D01*
X-5324Y3609D01*
X-5312Y3590D01*
X-5294Y3578D01*
X-5276Y3575D01*
X-5272Y3562D01*
X-5374Y3461D01*
X-5568D01*
Y3461D01*
X-5648D01*
X-5656Y3459D01*
X-5728D01*
Y3436D01*
Y3421D01*
X-5769D01*
X-5778Y3433D01*
X-5766Y3447D01*
X-5759Y3464D01*
X-5757Y3483D01*
X-5759Y3501D01*
X-5766Y3518D01*
X-5778Y3532D01*
X-5792Y3544D01*
X-5809Y3551D01*
X-5828Y3553D01*
X-5846Y3551D01*
X-5863Y3544D01*
X-5877Y3532D01*
X-5889Y3518D01*
X-5896Y3501D01*
X-5898Y3483D01*
X-5896Y3464D01*
X-5889Y3447D01*
X-5882Y3438D01*
X-5890Y3429D01*
X-5899Y3434D01*
X-5920Y3439D01*
X-5941Y3434D01*
X-5960Y3422D01*
X-5972Y3404D01*
X-5976Y3383D01*
X-5972Y3361D01*
X-5960Y3343D01*
X-5941Y3331D01*
X-5920Y3326D01*
X-5899Y3331D01*
X-5880Y3343D01*
X-5873Y3354D01*
X-5728D01*
Y3316D01*
Y3276D01*
Y3236D01*
Y3196D01*
Y3156D01*
Y3116D01*
Y3076D01*
Y3036D01*
Y2996D01*
Y2956D01*
Y2916D01*
Y2901D01*
X-5741D01*
X-5787Y2946D01*
Y3203D01*
X-5775Y3210D01*
X-5763Y3229D01*
X-5759Y3250D01*
X-5763Y3271D01*
X-5775Y3290D01*
X-5794Y3302D01*
X-5815Y3306D01*
X-5836Y3302D01*
X-5855Y3290D01*
X-5867Y3271D01*
X-5871Y3250D01*
X-5867Y3229D01*
X-5855Y3210D01*
X-5853Y3209D01*
Y2933D01*
X-5851Y2920D01*
X-5844Y2909D01*
X-5842Y2908D01*
X-5841Y2906D01*
X-5779Y2844D01*
X-5768Y2837D01*
X-5755Y2834D01*
X-5728D01*
Y2796D01*
Y2756D01*
Y2716D01*
X-5657D01*
X-5648Y2714D01*
X-5591D01*
X-5556Y2679D01*
Y1762D01*
X-5567Y1755D01*
X-5579Y1736D01*
X-5584Y1715D01*
X-5579Y1694D01*
X-5567Y1675D01*
X-5549Y1663D01*
X-5528Y1659D01*
X-5506Y1663D01*
X-5488Y1675D01*
X-5476Y1694D01*
X-5471Y1715D01*
X-5476Y1736D01*
X-5488Y1755D01*
X-5489Y1756D01*
Y1878D01*
X-5477Y1883D01*
X-5336Y1741D01*
Y1260D01*
X-5347Y1252D01*
X-5359Y1234D01*
X-5364Y1212D01*
X-5359Y1191D01*
X-5347Y1173D01*
X-5329Y1161D01*
X-5308Y1156D01*
X-5286Y1161D01*
X-5268Y1173D01*
X-5258Y1188D01*
X-5246Y1184D01*
Y465D01*
X-5243Y452D01*
X-5236Y441D01*
X-5236Y441D01*
X-5236Y441D01*
X-5093Y298D01*
X-5082Y291D01*
X-5069Y288D01*
X-4833D01*
X-4826Y274D01*
X-4811Y254D01*
X-4791Y239D01*
X-4768Y229D01*
X-4743Y226D01*
X-4719Y229D01*
X-4696Y239D01*
X-4676Y254D01*
X-4661Y274D01*
X-4651Y297D01*
X-4648Y322D01*
X-4651Y346D01*
X-4661Y369D01*
X-4676Y389D01*
X-4696Y404D01*
X-4719Y414D01*
X-4743Y417D01*
X-4768Y414D01*
X-4791Y404D01*
X-4811Y389D01*
X-4826Y369D01*
X-4833Y355D01*
X-5055D01*
X-5179Y479D01*
Y653D01*
X-5167Y658D01*
X-5062Y552D01*
X-5051Y545D01*
X-5038Y542D01*
X-4833D01*
X-4826Y528D01*
X-4811Y508D01*
X-4791Y493D01*
X-4768Y483D01*
X-4743Y480D01*
X-4719Y483D01*
X-4696Y493D01*
X-4676Y508D01*
X-4661Y528D01*
X-4651Y551D01*
X-4648Y576D01*
X-4651Y600D01*
X-4661Y623D01*
X-4676Y643D01*
X-4696Y658D01*
X-4719Y668D01*
X-4743Y671D01*
X-4768Y668D01*
X-4791Y658D01*
X-4811Y643D01*
X-4826Y623D01*
X-4833Y609D01*
X-5024D01*
X-5129Y714D01*
Y885D01*
X-5117Y890D01*
X-5033Y806D01*
X-5022Y799D01*
X-5010Y796D01*
X-4833D01*
X-4826Y782D01*
X-4811Y762D01*
X-4791Y747D01*
X-4768Y737D01*
X-4743Y734D01*
X-4719Y737D01*
X-4696Y747D01*
X-4676Y762D01*
X-4661Y782D01*
X-4651Y805D01*
X-4648Y830D01*
X-4651Y854D01*
X-4661Y877D01*
X-4676Y897D01*
X-4696Y912D01*
X-4719Y922D01*
X-4743Y925D01*
X-4768Y922D01*
X-4791Y912D01*
X-4811Y897D01*
X-4826Y877D01*
X-4833Y863D01*
X-4996D01*
X-5077Y944D01*
Y1115D01*
X-5065Y1120D01*
X-5005Y1060D01*
X-5005Y1060D01*
X-5005Y1060D01*
Y1060D01*
X-5005Y1060D01*
Y1060D01*
X-4994Y1053D01*
X-4981Y1050D01*
X-4833D01*
X-4826Y1036D01*
X-4811Y1016D01*
X-4791Y1001D01*
X-4768Y991D01*
X-4743Y988D01*
X-4719Y991D01*
X-4696Y1001D01*
X-4676Y1016D01*
X-4661Y1036D01*
X-4651Y1059D01*
X-4648Y1084D01*
X-4651Y1108D01*
X-4661Y1131D01*
X-4676Y1151D01*
X-4696Y1166D01*
X-4719Y1176D01*
X-4743Y1179D01*
X-4768Y1176D01*
X-4791Y1166D01*
X-4811Y1151D01*
X-4826Y1131D01*
X-4833Y1117D01*
X-4967D01*
X-5022Y1171D01*
Y1811D01*
X-4975D01*
Y1886D01*
Y1961D01*
X-5022D01*
Y1981D01*
X-4892D01*
Y2056D01*
X-4828D01*
X-4826Y2052D01*
X-4811Y2032D01*
X-4791Y2017D01*
X-4768Y2007D01*
X-4743Y2004D01*
X-4719Y2007D01*
X-4696Y2017D01*
X-4676Y2032D01*
X-4661Y2052D01*
X-4651Y2075D01*
X-4648Y2100D01*
X-4651Y2124D01*
X-4661Y2147D01*
X-4676Y2167D01*
X-4696Y2182D01*
X-4719Y2192D01*
X-4743Y2195D01*
X-4768Y2192D01*
X-4791Y2182D01*
X-4811Y2167D01*
X-4826Y2147D01*
X-4828Y2143D01*
X-4926D01*
X-4943Y2140D01*
X-4956Y2131D01*
X-5022D01*
Y2537D01*
X-5017Y2540D01*
X-5010Y2543D01*
X-4837Y2370D01*
X-4839Y2354D01*
X-4836Y2329D01*
X-4826Y2306D01*
X-4811Y2286D01*
X-4791Y2271D01*
X-4768Y2261D01*
X-4743Y2258D01*
X-4719Y2261D01*
X-4696Y2271D01*
X-4676Y2286D01*
X-4661Y2306D01*
X-4651Y2329D01*
X-4648Y2354D01*
X-4651Y2378D01*
X-4661Y2401D01*
X-4676Y2421D01*
X-4696Y2436D01*
X-4719Y2446D01*
X-4743Y2449D01*
X-4768Y2446D01*
X-4791Y2436D01*
X-4802Y2429D01*
X-4954Y2581D01*
Y2724D01*
X-4942Y2729D01*
X-4837Y2624D01*
X-4839Y2608D01*
X-4836Y2583D01*
X-4826Y2560D01*
X-4811Y2540D01*
X-4791Y2525D01*
X-4768Y2515D01*
X-4743Y2512D01*
X-4719Y2515D01*
X-4696Y2525D01*
X-4676Y2540D01*
X-4661Y2560D01*
X-4651Y2583D01*
X-4648Y2608D01*
X-4651Y2632D01*
X-4661Y2655D01*
X-4676Y2675D01*
X-4696Y2690D01*
X-4719Y2700D01*
X-4743Y2703D01*
X-4768Y2700D01*
X-4791Y2690D01*
X-4802Y2683D01*
X-4902Y2783D01*
Y2926D01*
X-4890Y2931D01*
X-4837Y2878D01*
X-4839Y2862D01*
X-4836Y2837D01*
X-4826Y2814D01*
X-4811Y2794D01*
X-4791Y2779D01*
X-4768Y2769D01*
X-4743Y2766D01*
X-4719Y2769D01*
X-4696Y2779D01*
X-4676Y2794D01*
X-4661Y2814D01*
X-4651Y2837D01*
X-4648Y2862D01*
X-4651Y2886D01*
X-4661Y2909D01*
X-4676Y2929D01*
X-4696Y2944D01*
X-4719Y2954D01*
X-4743Y2957D01*
X-4768Y2954D01*
X-4791Y2944D01*
X-4802Y2937D01*
X-4839Y2974D01*
Y3066D01*
X-4827Y3068D01*
X-4826Y3068D01*
X-4811Y3048D01*
X-4791Y3033D01*
X-4768Y3023D01*
X-4743Y3020D01*
X-4719Y3023D01*
X-4696Y3033D01*
X-4676Y3048D01*
X-4661Y3068D01*
X-4654Y3082D01*
X-4447D01*
X-4333Y2969D01*
Y1643D01*
X-4345Y1637D01*
X-4356Y1644D01*
X-4378Y1649D01*
X-4399Y1644D01*
X-4417Y1632D01*
X-4429Y1614D01*
X-4432Y1603D01*
X-4444Y1600D01*
X-4451Y1611D01*
X-4579Y1739D01*
X-4590Y1746D01*
X-4603Y1748D01*
X-4697D01*
X-4700Y1761D01*
X-4696Y1763D01*
X-4676Y1778D01*
X-4663Y1795D01*
X-4487D01*
X-4467Y1798D01*
X-4451Y1809D01*
X-4451Y1809D01*
X-4451Y1809D01*
X-4371Y1889D01*
X-4360Y1906D01*
X-4359Y1909D01*
X-4356Y1925D01*
Y2077D01*
X-4355Y2078D01*
X-4353Y2087D01*
X-4461D01*
X-4459Y2078D01*
X-4458Y2077D01*
Y1947D01*
X-4508Y1896D01*
X-4663D01*
X-4676Y1913D01*
X-4696Y1928D01*
X-4719Y1938D01*
X-4731Y1940D01*
Y1845D01*
X-4756D01*
Y1940D01*
X-4768Y1938D01*
X-4791Y1928D01*
X-4811Y1913D01*
X-4824Y1896D01*
X-4892D01*
Y1873D01*
X-4950D01*
Y1811D01*
X-4952D01*
X-4951Y1809D01*
X-4934Y1798D01*
X-4915Y1795D01*
X-4824D01*
X-4811Y1778D01*
X-4791Y1763D01*
X-4787Y1761D01*
X-4790Y1748D01*
X-4846D01*
X-4850Y1755D01*
X-4869Y1767D01*
X-4890Y1771D01*
X-4911Y1767D01*
X-4930Y1755D01*
X-4942Y1736D01*
X-4946Y1715D01*
X-4942Y1694D01*
X-4930Y1675D01*
X-4911Y1663D01*
X-4890Y1659D01*
X-4869Y1663D01*
X-4850Y1675D01*
X-4846Y1682D01*
X-4802D01*
X-4798Y1670D01*
X-4811Y1659D01*
X-4826Y1639D01*
X-4836Y1616D01*
X-4839Y1592D01*
X-4836Y1567D01*
X-4826Y1544D01*
X-4811Y1524D01*
X-4791Y1509D01*
X-4768Y1499D01*
X-4743Y1496D01*
X-4719Y1499D01*
X-4696Y1509D01*
X-4676Y1524D01*
X-4661Y1544D01*
X-4651Y1567D01*
X-4648Y1592D01*
X-4651Y1616D01*
X-4661Y1639D01*
X-4676Y1659D01*
X-4696Y1674D01*
X-4694Y1682D01*
X-4616D01*
X-4508Y1574D01*
Y1381D01*
X-4515Y1377D01*
X-4527Y1359D01*
X-4531Y1338D01*
X-4527Y1316D01*
X-4515Y1298D01*
X-4508Y1294D01*
Y376D01*
X-4515Y372D01*
X-4527Y354D01*
X-4531Y332D01*
X-4527Y311D01*
X-4515Y293D01*
X-4496Y281D01*
X-4475Y276D01*
X-4454Y281D01*
X-4435Y293D01*
X-4433Y296D01*
X-4421Y293D01*
Y68D01*
X-4418Y51D01*
X-4418Y51D01*
X-4418Y51D01*
X-4408Y37D01*
X-4321Y-51D01*
X-4321Y-52D01*
D01*
X-4325Y-63D01*
X-4417D01*
Y-125D01*
X-4322D01*
Y-65D01*
X-4312Y-61D01*
D01*
X-4311Y-61D01*
X-4261Y-110D01*
Y-324D01*
X-4322D01*
Y-293D01*
X-4538D01*
Y-443D01*
X-4322D01*
Y-411D01*
X-3878D01*
Y-562D01*
X-3662D01*
Y-411D01*
X-3613D01*
Y-453D01*
X-3486D01*
Y-508D01*
X-3494Y-521D01*
X-3499Y-543D01*
X-3494Y-564D01*
X-3486Y-577D01*
Y-785D01*
X-3507D01*
Y-803D01*
X-3512Y-811D01*
X-3515Y-827D01*
X-3512Y-844D01*
X-3507Y-852D01*
Y-925D01*
X-3357D01*
Y-785D01*
X-3399D01*
Y-587D01*
X-2723D01*
Y-618D01*
X-2583D01*
D01*
X-2583D01*
X-2581Y-620D01*
Y-823D01*
X-2601D01*
Y-766D01*
X-2673D01*
Y-861D01*
Y-956D01*
X-2601D01*
Y-925D01*
X-2583D01*
Y-1674D01*
X-2612Y-1703D01*
X-2687D01*
Y-1860D01*
X-2610D01*
Y-1845D01*
X-2496Y-1731D01*
X-2485Y-1715D01*
X-2485Y-1711D01*
X-2482Y-1695D01*
Y-978D01*
X-2470Y-972D01*
X-2467Y-974D01*
X-2445Y-979D01*
X-2424Y-974D01*
X-2422Y-973D01*
X-2411Y-979D01*
Y-1350D01*
X-2408Y-1363D01*
X-2401Y-1374D01*
X-2401Y-1374D01*
X-2401Y-1374D01*
X-2382Y-1393D01*
X-2384Y-1400D01*
X-2379Y-1421D01*
X-2367Y-1440D01*
X-2349Y-1452D01*
X-2327Y-1456D01*
X-2306Y-1452D01*
X-2288Y-1440D01*
X-2276Y-1421D01*
X-2271Y-1400D01*
X-2276Y-1379D01*
X-2288Y-1360D01*
X-2306Y-1348D01*
X-2327Y-1344D01*
X-2335Y-1345D01*
X-2344Y-1336D01*
Y-1185D01*
X-2332Y-1180D01*
X-2226Y-1286D01*
D01*
X-2226D01*
X-2226Y-1286D01*
X-2226Y-1286D01*
X-2226D01*
D01*
X-2226D01*
X-2226Y-1286D01*
Y-1286D01*
X-2226Y-1286D01*
Y-1286D01*
X-2215Y-1293D01*
X-2202Y-1296D01*
X-1900D01*
X-1887Y-1293D01*
X-1876Y-1286D01*
X-1876Y-1286D01*
X-1876Y-1286D01*
X-1812Y-1221D01*
X-1800Y-1225D01*
X-1797Y-1239D01*
X-1785Y-1257D01*
X-1766Y-1269D01*
X-1745Y-1274D01*
X-1724Y-1269D01*
X-1711Y-1261D01*
X-1440D01*
X-1423Y-1258D01*
X-1409Y-1248D01*
X-1409Y-1248D01*
X-1409Y-1248D01*
X-1285Y-1123D01*
X-1275Y-1109D01*
X-1272Y-1093D01*
X-1272Y-1093D01*
X-1272Y-1093D01*
Y-1093D01*
Y-1081D01*
X-1245D01*
Y-1065D01*
X-1234Y-1059D01*
X-1234Y-1059D01*
X-1212Y-1064D01*
X-1191Y-1059D01*
X-1178Y-1051D01*
X-932D01*
X-916Y-1048D01*
X-902Y-1038D01*
X-902Y-1038D01*
X-902Y-1038D01*
X-832Y-969D01*
X-468Y-1333D01*
X-473Y-1345D01*
X-667D01*
Y-1284D01*
X-660Y-1280D01*
X-648Y-1261D01*
X-644Y-1240D01*
X-648Y-1219D01*
X-660Y-1200D01*
X-679Y-1188D01*
X-700Y-1184D01*
X-721Y-1188D01*
X-740Y-1200D01*
X-752Y-1219D01*
X-756Y-1240D01*
X-752Y-1261D01*
X-740Y-1280D01*
X-733Y-1284D01*
Y-1345D01*
X-1102D01*
Y-1585D01*
X-462D01*
Y-1355D01*
X-451Y-1351D01*
X-163Y-1638D01*
Y-1925D01*
X-163Y-1928D01*
X-167Y-1934D01*
X-171Y-1955D01*
X-167Y-1976D01*
X-155Y-1995D01*
X-136Y-2007D01*
X-115Y-2011D01*
X-94Y-2007D01*
X-75Y-1995D01*
X-69Y-1986D01*
X224D01*
Y-1995D01*
X258D01*
Y-2142D01*
X222D01*
Y-2282D01*
X372D01*
Y-2142D01*
X345D01*
Y-1995D01*
X374D01*
Y-1855D01*
X224D01*
Y-1899D01*
X40D01*
X34Y-1888D01*
X37Y-1884D01*
X41Y-1862D01*
X37Y-1841D01*
X36Y-1840D01*
Y-1565D01*
X32Y-1545D01*
X21Y-1529D01*
X-278Y-1230D01*
X-278Y-1228D01*
X-93D01*
X-80Y-1226D01*
X-69Y-1219D01*
X-69Y-1219D01*
X-69Y-1219D01*
X-14Y-1164D01*
X-6Y-1165D01*
X21Y-1161D01*
X46Y-1151D01*
X68Y-1134D01*
X85Y-1112D01*
X95Y-1087D01*
X99Y-1060D01*
X95Y-1033D01*
X85Y-1008D01*
X68Y-986D01*
X46Y-969D01*
X21Y-959D01*
X-6Y-955D01*
X-33Y-959D01*
X-58Y-969D01*
X-80Y-986D01*
X-97Y-1008D01*
X-100Y-1015D01*
X-112D01*
X-115Y-1008D01*
X-132Y-986D01*
X-154Y-969D01*
X-179Y-959D01*
X-206Y-955D01*
X-233Y-959D01*
X-258Y-969D01*
X-280Y-986D01*
X-297Y-1008D01*
X-307Y-1033D01*
X-311Y-1060D01*
X-307Y-1087D01*
X-298Y-1110D01*
X-308Y-1117D01*
X-425Y-1000D01*
Y-973D01*
X-419Y-969D01*
X-406Y-951D01*
X-402Y-929D01*
X-406Y-908D01*
X-419Y-890D01*
X-437Y-877D01*
X-458Y-873D01*
X-480Y-877D01*
X-498Y-889D01*
X-509Y-884D01*
Y-805D01*
X-375D01*
Y-625D01*
X-745D01*
Y-679D01*
X-797D01*
X-799Y-678D01*
X-820Y-674D01*
X-841Y-678D01*
X-860Y-690D01*
X-872Y-709D01*
X-876Y-730D01*
X-872Y-751D01*
X-860Y-770D01*
X-841Y-782D01*
X-820Y-786D01*
X-799Y-782D01*
X-797Y-781D01*
X-745D01*
Y-805D01*
X-611D01*
Y-1020D01*
X-611Y-1020D01*
X-611D01*
X-607Y-1040D01*
X-596Y-1056D01*
X-66Y-1586D01*
Y-1609D01*
X-79Y-1610D01*
X-80Y-1603D01*
X-89Y-1589D01*
X-778Y-901D01*
X-781Y-886D01*
X-793Y-868D01*
X-811Y-856D01*
X-832Y-851D01*
X-854Y-856D01*
X-872Y-868D01*
X-884Y-886D01*
X-887Y-901D01*
X-950Y-964D01*
X-1178D01*
X-1191Y-956D01*
X-1212Y-951D01*
X-1234Y-956D01*
X-1234Y-956D01*
X-1245Y-950D01*
Y-931D01*
X-1385D01*
Y-984D01*
X-1398Y-985D01*
X-1398Y-984D01*
X-1410Y-965D01*
X-1417Y-961D01*
Y-678D01*
X-1419Y-665D01*
X-1426Y-654D01*
X-1510Y-570D01*
X-1509Y-562D01*
X-1513Y-541D01*
X-1525Y-523D01*
X-1544Y-511D01*
X-1565Y-506D01*
X-1586Y-511D01*
X-1605Y-523D01*
X-1617Y-541D01*
X-1621Y-562D01*
X-1617Y-584D01*
X-1605Y-602D01*
X-1586Y-614D01*
X-1565Y-619D01*
X-1558Y-617D01*
X-1483Y-691D01*
Y-785D01*
X-1495Y-789D01*
X-1503Y-778D01*
X-1521Y-766D01*
X-1543Y-761D01*
X-1564Y-766D01*
X-1582Y-778D01*
X-1586Y-784D01*
X-1655D01*
X-1668Y-787D01*
X-1679Y-794D01*
X-1776Y-891D01*
X-1788Y-886D01*
Y-707D01*
X-1977D01*
Y-897D01*
X-1799D01*
X-1794Y-909D01*
X-1899Y-1014D01*
X-1936D01*
X-1940Y-1008D01*
X-1959Y-996D01*
X-1980Y-991D01*
X-2001Y-996D01*
X-2020Y-1008D01*
X-2032Y-1026D01*
X-2036Y-1048D01*
X-2032Y-1069D01*
X-2020Y-1087D01*
Y-1098D01*
X-2032Y-1116D01*
X-2036Y-1138D01*
X-2032Y-1159D01*
X-2020Y-1177D01*
X-2001Y-1189D01*
X-1980Y-1194D01*
X-1959Y-1189D01*
X-1940Y-1177D01*
X-1936Y-1171D01*
X-1875D01*
X-1872Y-1170D01*
X-1866Y-1181D01*
X-1914Y-1229D01*
X-2189D01*
X-2282Y-1136D01*
Y-24D01*
X-2270Y-20D01*
X-2260Y-35D01*
X-2241Y-47D01*
X-2240Y-47D01*
X-2187Y-100D01*
Y-214D01*
X-2204Y-227D01*
X-2219Y-247D01*
X-2229Y-270D01*
X-2231Y-282D01*
X-2042D01*
X-2044Y-270D01*
X-2054Y-247D01*
X-2069Y-227D01*
X-2086Y-214D01*
Y-79D01*
X-2089Y-59D01*
X-2100Y-42D01*
X-2168Y25D01*
X-2168Y26D01*
X-2180Y45D01*
X-2199Y57D01*
X-2207Y59D01*
Y5D01*
X-2233D01*
Y59D01*
X-2241Y57D01*
X-2260Y45D01*
X-2270Y30D01*
X-2282Y34D01*
Y780D01*
X-2284Y793D01*
X-2291Y804D01*
X-2434Y946D01*
X-2445Y953D01*
X-2458Y956D01*
X-3049D01*
X-3101Y1008D01*
Y1513D01*
X-3087Y1520D01*
X-3067Y1535D01*
X-3052Y1555D01*
X-3042Y1578D01*
X-3039Y1602D01*
X-3042Y1627D01*
X-3052Y1650D01*
X-3067Y1670D01*
X-3087Y1685D01*
X-3110Y1695D01*
X-3134Y1698D01*
X-3159Y1695D01*
X-3182Y1685D01*
X-3202Y1670D01*
X-3217Y1650D01*
X-3227Y1627D01*
X-3230Y1602D01*
X-3227Y1578D01*
X-3217Y1555D01*
X-3202Y1535D01*
X-3182Y1520D01*
X-3168Y1513D01*
Y994D01*
X-3165Y982D01*
X-3158Y971D01*
X-3158Y971D01*
X-3158Y971D01*
X-3086Y899D01*
X-3080Y895D01*
X-3075Y892D01*
X-3062Y889D01*
X-2471D01*
X-2348Y766D01*
Y62D01*
X-2360Y57D01*
X-2451Y149D01*
X-2462Y156D01*
X-2475Y158D01*
X-4131D01*
X-4197Y224D01*
Y3126D01*
X-4190Y3130D01*
X-4178Y3149D01*
X-4174Y3170D01*
X-4178Y3191D01*
X-4181Y3195D01*
X-4175Y3207D01*
X-4039D01*
X-4034Y3195D01*
X-4049Y3183D01*
X-4064Y3163D01*
X-4074Y3140D01*
X-4077Y3116D01*
X-4074Y3091D01*
X-4064Y3068D01*
X-4049Y3048D01*
X-4029Y3033D01*
X-4006Y3023D01*
X-3981Y3020D01*
X-3957Y3023D01*
X-3934Y3033D01*
X-3914Y3048D01*
X-3899Y3068D01*
X-3889Y3091D01*
X-3886Y3116D01*
X-3889Y3140D01*
X-3899Y3163D01*
X-3914Y3183D01*
X-3934Y3198D01*
X-3932Y3207D01*
X-3915D01*
X-3902Y3209D01*
X-3891Y3216D01*
X-3829Y3279D01*
X-3822Y3290D01*
X-3819Y3303D01*
Y3550D01*
X-3822Y3563D01*
X-3829Y3574D01*
X-3887Y3631D01*
X-3889Y3648D01*
X-3899Y3671D01*
X-3914Y3691D01*
X-3934Y3706D01*
X-3957Y3716D01*
X-3981Y3719D01*
Y3720D01*
X-3973Y3729D01*
X-3891D01*
X-3741Y3579D01*
Y2750D01*
X-3738Y2737D01*
X-3731Y2726D01*
X-3731Y2726D01*
X-3731Y2726D01*
X-3621Y2616D01*
X-3621D01*
X-3621Y2616D01*
X-3621D01*
X-3621Y2616D01*
Y2616D01*
X-3621Y2616D01*
Y2616D01*
X-3610Y2609D01*
X-3597Y2607D01*
X-3034D01*
X-3030Y2600D01*
X-3023Y2596D01*
Y2441D01*
X-3089Y2376D01*
X-3166D01*
Y2413D01*
X-3316D01*
Y2273D01*
X-3166D01*
Y2309D01*
X-3075D01*
X-3062Y2312D01*
X-3051Y2319D01*
X-3051Y2319D01*
X-3051Y2319D01*
X-2966Y2404D01*
X-2959Y2415D01*
X-2957Y2427D01*
Y2596D01*
X-2950Y2600D01*
X-2938Y2619D01*
X-2934Y2640D01*
X-2938Y2661D01*
X-2950Y2680D01*
X-2969Y2692D01*
X-2990Y2696D01*
X-3011Y2692D01*
X-3030Y2680D01*
X-3034Y2673D01*
X-3584D01*
X-3674Y2764D01*
Y3592D01*
X-3677Y3605D01*
X-3684Y3616D01*
X-3854Y3786D01*
X-3865Y3793D01*
X-3878Y3796D01*
Y3798D01*
X-3869Y3807D01*
X-2170D01*
Y2900D01*
D02*
G37*
G36*
X-4226Y31D02*
X-4215Y24D01*
X-4203Y22D01*
X-2611D01*
X-2486Y-104D01*
Y-393D01*
X-2498Y-398D01*
X-2558Y-337D01*
X-2575Y-326D01*
X-2583Y-325D01*
Y-298D01*
X-2587D01*
Y-245D01*
X-2586Y-244D01*
X-2584Y-235D01*
X-2691D01*
X-2689Y-244D01*
X-2688Y-245D01*
Y-298D01*
X-2723D01*
Y-312D01*
X-2792D01*
Y-272D01*
X-2950D01*
Y-363D01*
Y-453D01*
X-2792D01*
Y-413D01*
X-2723D01*
Y-448D01*
X-2665D01*
Y-373D01*
X-2640D01*
Y-448D01*
X-2591D01*
X-2583Y-457D01*
X-2588Y-468D01*
X-2723D01*
Y-500D01*
X-3399D01*
Y-453D01*
X-3273D01*
Y-272D01*
X-3613D01*
Y-324D01*
X-3662D01*
Y-173D01*
X-3878D01*
Y-324D01*
X-4174D01*
Y-92D01*
X-4178Y-76D01*
X-4187Y-62D01*
X-4334Y85D01*
Y122D01*
X-4330Y125D01*
X-4322Y128D01*
X-4226Y31D01*
D02*
G37*
G36*
X-6185Y3650D02*
X-6210D01*
Y3662D01*
X-6185D01*
Y3650D01*
D02*
G37*
G36*
X-5701Y3659D02*
X-5698Y3651D01*
X-5698Y3650D01*
X-5698Y3649D01*
X-5701Y3641D01*
X-5709Y3638D01*
X-5710Y3638D01*
X-5760D01*
Y3650D01*
Y3662D01*
X-5710D01*
X-5710Y3662D01*
Y3662D01*
X-5709Y3662D01*
X-5701Y3659D01*
D02*
G37*
G36*
X-5311Y2431D02*
Y2289D01*
X-5321Y2287D01*
X-5340Y2275D01*
X-5352Y2256D01*
X-5356Y2235D01*
X-5352Y2214D01*
X-5340Y2195D01*
X-5321Y2183D01*
X-5300Y2179D01*
X-5279Y2183D01*
X-5260Y2195D01*
X-5258Y2199D01*
X-5246Y2195D01*
Y1241D01*
X-5258Y1237D01*
X-5268Y1252D01*
X-5269Y1253D01*
Y1755D01*
X-5272Y1768D01*
X-5279Y1779D01*
X-5439Y1939D01*
Y2025D01*
X-5427Y2030D01*
X-5382Y1985D01*
X-5384Y1977D01*
X-5379Y1956D01*
X-5367Y1938D01*
X-5349Y1926D01*
X-5328Y1921D01*
X-5306Y1926D01*
X-5288Y1938D01*
X-5276Y1956D01*
X-5271Y1977D01*
X-5276Y1999D01*
X-5288Y2017D01*
X-5306Y2029D01*
X-5328Y2034D01*
X-5335Y2032D01*
X-5387Y2084D01*
Y2426D01*
X-5375Y2432D01*
X-5374Y2431D01*
X-5353Y2426D01*
X-5331Y2431D01*
X-5322Y2437D01*
X-5311Y2431D01*
D02*
G37*
G36*
X-4068Y3409D02*
X-4074Y3394D01*
X-4077Y3370D01*
X-4074Y3345D01*
X-4064Y3322D01*
X-4049Y3302D01*
X-4029Y3287D01*
X-4028Y3286D01*
X-4030Y3273D01*
X-4695D01*
X-4697Y3286D01*
X-4696Y3287D01*
X-4676Y3302D01*
X-4661Y3322D01*
X-4651Y3345D01*
X-4648Y3370D01*
X-4651Y3394D01*
X-4661Y3417D01*
X-4676Y3437D01*
X-4696Y3452D01*
X-4718Y3462D01*
Y3462D01*
X-4718D01*
X-4719Y3462D01*
Y3462D01*
X-4719Y3464D01*
X-4123D01*
X-4068Y3409D01*
D02*
G37*
G36*
X-4003Y3716D02*
X-4006Y3716D01*
X-4029Y3706D01*
X-4049Y3691D01*
X-4064Y3671D01*
X-4074Y3648D01*
X-4077Y3624D01*
X-4074Y3599D01*
X-4064Y3576D01*
X-4049Y3556D01*
X-4029Y3541D01*
X-4006Y3531D01*
X-3981Y3528D01*
X-3957Y3531D01*
X-3934Y3541D01*
X-3914Y3556D01*
X-3906Y3556D01*
X-3886Y3536D01*
Y3419D01*
X-3898Y3417D01*
X-3899Y3417D01*
X-3914Y3437D01*
X-3934Y3452D01*
X-3957Y3462D01*
X-3981Y3465D01*
X-4006Y3462D01*
X-4021Y3456D01*
X-4086Y3521D01*
X-4097Y3528D01*
X-4109Y3531D01*
X-4648D01*
Y3701D01*
X-4621Y3729D01*
X-4004D01*
X-4003Y3716D01*
D02*
G37*
%LPC*%
G36*
X265Y-153D02*
X230Y-157D01*
X195Y-167D01*
X164Y-184D01*
X137Y-207D01*
X114Y-234D01*
X97Y-265D01*
X87Y-300D01*
X83Y-335D01*
X87Y-370D01*
X97Y-405D01*
X114Y-436D01*
X137Y-463D01*
X164Y-486D01*
X195Y-503D01*
X230Y-513D01*
X265Y-517D01*
X300Y-513D01*
X335Y-503D01*
X366Y-486D01*
X393Y-463D01*
X416Y-436D01*
X433Y-405D01*
X443Y-370D01*
X447Y-335D01*
X443Y-300D01*
X433Y-265D01*
X416Y-234D01*
X393Y-207D01*
X366Y-184D01*
X335Y-167D01*
X300Y-157D01*
X265Y-153D01*
D02*
G37*
G36*
X-1213Y-416D02*
X-1221Y-418D01*
X-1238Y-429D01*
X-1250Y-447D01*
X-1252Y-455D01*
X-1213D01*
Y-416D01*
D02*
G37*
G36*
X-1187D02*
Y-455D01*
X-1148D01*
X-1150Y-447D01*
X-1162Y-429D01*
X-1179Y-418D01*
X-1187Y-416D01*
D02*
G37*
G36*
X-2975Y-375D02*
X-3132D01*
Y-453D01*
X-2975D01*
Y-375D01*
D02*
G37*
G36*
X-1134Y-466D02*
X-1146D01*
X-1146Y-468D01*
X-1148Y-480D01*
X-1252D01*
X-1254Y-468D01*
X-1254Y-466D01*
X-1266D01*
X-1266Y-468D01*
X-1268Y-480D01*
X-1307D01*
Y-519D01*
X-1320Y-522D01*
X-1322Y-521D01*
Y-534D01*
X-1320Y-533D01*
X-1307Y-536D01*
Y-588D01*
Y-639D01*
X-1320Y-642D01*
X-1322Y-641D01*
Y-654D01*
X-1320Y-653D01*
X-1307Y-656D01*
Y-708D01*
X-1320D01*
Y-720D01*
X-1372D01*
X-1370Y-728D01*
X-1366Y-734D01*
Y-761D01*
X-1385D01*
Y-823D01*
X-1245D01*
Y-761D01*
X-1264D01*
Y-721D01*
X-1252Y-720D01*
X-1254Y-707D01*
X-1252Y-695D01*
X-1148D01*
X-1146Y-707D01*
X-1146Y-709D01*
X-1134D01*
X-1134Y-707D01*
X-1132Y-695D01*
X-1093D01*
Y-656D01*
X-1080Y-653D01*
X-1078Y-654D01*
Y-641D01*
X-1080Y-642D01*
X-1093Y-639D01*
Y-588D01*
Y-536D01*
X-1080Y-533D01*
X-1078Y-534D01*
Y-521D01*
X-1080Y-522D01*
X-1093Y-519D01*
Y-480D01*
X-1132D01*
X-1134Y-468D01*
X-1134Y-466D01*
D02*
G37*
G36*
X-4833Y-310D02*
X-5012D01*
Y-459D01*
X-5372D01*
Y-375D01*
X-5642D01*
Y-645D01*
X-5503D01*
Y-779D01*
X-5522D01*
Y-929D01*
X-5382D01*
Y-779D01*
X-5401D01*
Y-645D01*
X-5372D01*
Y-561D01*
X-5012D01*
Y-650D01*
X-4833D01*
Y-648D01*
X-4538D01*
Y-672D01*
X-4322D01*
Y-648D01*
X-4089D01*
X-3696Y-1041D01*
Y-1150D01*
X-3692Y-1168D01*
Y-1243D01*
X-3601D01*
Y-1273D01*
X-3692D01*
Y-1458D01*
X-3601D01*
Y-1514D01*
X-3736D01*
X-3784Y-1466D01*
Y-1155D01*
X-3787Y-1139D01*
X-3788Y-1135D01*
X-3799Y-1119D01*
X-3932Y-986D01*
X-3948Y-975D01*
X-3968Y-971D01*
X-4280D01*
Y-1022D01*
Y-1073D01*
X-3989D01*
X-3886Y-1176D01*
Y-1488D01*
X-3882Y-1507D01*
X-3871Y-1524D01*
X-3794Y-1601D01*
X-3794Y-1601D01*
X-3794D01*
X-3794Y-1601D01*
X-3794D01*
X-3794Y-1601D01*
Y-1601D01*
Y-1601D01*
D01*
D01*
X-3794D01*
Y-1601D01*
X-3777Y-1612D01*
X-3758Y-1616D01*
X-3276D01*
Y-1690D01*
X-3276Y-1690D01*
X-3276D01*
X-3272Y-1710D01*
X-3261Y-1726D01*
X-3129Y-1859D01*
X-3129Y-1859D01*
X-3129D01*
X-3129Y-1859D01*
X-3129D01*
X-3129Y-1859D01*
Y-1859D01*
Y-1859D01*
D01*
D01*
X-3129D01*
Y-1859D01*
X-3112Y-1870D01*
X-3092Y-1873D01*
X-2790D01*
Y-1860D01*
X-2713D01*
Y-1703D01*
X-2790D01*
Y-1772D01*
X-3071D01*
X-3174Y-1669D01*
Y-1609D01*
X-3170D01*
Y-1547D01*
X-3240D01*
Y-1534D01*
X-3253D01*
Y-1459D01*
X-3310D01*
Y-1514D01*
X-3499D01*
Y-1458D01*
X-3408D01*
Y-1399D01*
X-3310D01*
Y-1439D01*
X-3170D01*
Y-1408D01*
X-3169Y-1404D01*
X-3170Y-1400D01*
Y-1398D01*
X-2790D01*
Y-1562D01*
X-2610D01*
Y-1222D01*
X-2790D01*
Y-1331D01*
X-3170D01*
Y-1289D01*
X-3208D01*
Y-1248D01*
X-3198Y-1234D01*
X-3194Y-1212D01*
X-3198Y-1191D01*
X-3210Y-1173D01*
X-3229Y-1161D01*
X-3250Y-1156D01*
X-3271Y-1161D01*
X-3290Y-1173D01*
X-3302Y-1191D01*
X-3306Y-1212D01*
X-3302Y-1234D01*
X-3290Y-1252D01*
X-3274Y-1262D01*
Y-1289D01*
X-3310D01*
Y-1332D01*
X-3408D01*
Y-1273D01*
X-3499D01*
Y-1243D01*
X-3408D01*
Y-1168D01*
X-3404Y-1150D01*
Y-1062D01*
X-3408Y-1043D01*
X-3419Y-1026D01*
X-3464Y-981D01*
X-3480Y-970D01*
X-3500Y-967D01*
X-3626D01*
X-4031Y-561D01*
X-4048Y-550D01*
X-4068Y-547D01*
X-4322D01*
Y-522D01*
X-4538D01*
Y-547D01*
X-4833D01*
Y-310D01*
D02*
G37*
G36*
X-1307Y-416D02*
Y-455D01*
X-1268D01*
X-1270Y-447D01*
X-1282Y-429D01*
X-1299Y-418D01*
X-1307Y-416D01*
D02*
G37*
G36*
X-2136Y-453D02*
X-2161Y-456D01*
X-2184Y-466D01*
X-2204Y-481D01*
X-2219Y-501D01*
X-2229Y-524D01*
X-2232Y-548D01*
X-2229Y-573D01*
X-2219Y-596D01*
X-2204Y-616D01*
X-2184Y-631D01*
X-2161Y-641D01*
X-2136Y-644D01*
X-2112Y-641D01*
X-2089Y-631D01*
X-2069Y-616D01*
X-2054Y-596D01*
X-2044Y-573D01*
X-2041Y-548D01*
X-2044Y-524D01*
X-2054Y-501D01*
X-2069Y-481D01*
X-2089Y-466D01*
X-2112Y-456D01*
X-2136Y-453D01*
D02*
G37*
G36*
X-1333Y-600D02*
X-1372D01*
X-1370Y-608D01*
X-1358Y-626D01*
X-1341Y-637D01*
X-1333Y-639D01*
Y-600D01*
D02*
G37*
G36*
X-1067Y-656D02*
Y-695D01*
X-1028D01*
X-1030Y-687D01*
X-1042Y-669D01*
X-1059Y-658D01*
X-1067Y-656D01*
D02*
G37*
G36*
X-1028Y-720D02*
X-1067D01*
Y-759D01*
X-1059Y-757D01*
X-1042Y-746D01*
X-1030Y-728D01*
X-1028Y-720D01*
D02*
G37*
G36*
X-1333Y-656D02*
X-1341Y-658D01*
X-1358Y-669D01*
X-1370Y-687D01*
X-1372Y-695D01*
X-1333D01*
Y-656D01*
D02*
G37*
G36*
Y-480D02*
X-1372D01*
X-1370Y-488D01*
X-1358Y-506D01*
X-1341Y-517D01*
X-1333Y-519D01*
Y-480D01*
D02*
G37*
G36*
X-1028D02*
X-1067D01*
Y-519D01*
X-1059Y-517D01*
X-1042Y-506D01*
X-1030Y-488D01*
X-1028Y-480D01*
D02*
G37*
G36*
X-1067Y-536D02*
Y-575D01*
X-1028D01*
X-1030Y-567D01*
X-1042Y-549D01*
X-1059Y-538D01*
X-1067Y-536D01*
D02*
G37*
G36*
X-1028Y-600D02*
X-1067D01*
Y-639D01*
X-1059Y-637D01*
X-1042Y-626D01*
X-1030Y-608D01*
X-1028Y-600D01*
D02*
G37*
G36*
X-1333Y-536D02*
X-1341Y-538D01*
X-1358Y-549D01*
X-1370Y-567D01*
X-1372Y-575D01*
X-1333D01*
Y-536D01*
D02*
G37*
G36*
X510Y29D02*
Y-12D01*
X551D01*
X549Y-4D01*
X537Y15D01*
X519Y27D01*
X510Y29D01*
D02*
G37*
G36*
X-1780Y170D02*
X-1920D01*
Y30D01*
X-1780D01*
Y170D01*
D02*
G37*
G36*
X-4833Y170D02*
X-4910D01*
Y-0D01*
Y-170D01*
X-4833D01*
Y-51D01*
X-4589D01*
X-4538Y-102D01*
Y-125D01*
X-4443D01*
Y-62D01*
X-4433D01*
X-4531Y36D01*
X-4548Y47D01*
X-4568Y51D01*
X-4833D01*
Y170D01*
D02*
G37*
G36*
X551Y-38D02*
X510D01*
Y-79D01*
X519Y-77D01*
X537Y-65D01*
X549Y-46D01*
X551Y-38D01*
D02*
G37*
G36*
X-1580Y170D02*
X-1720D01*
Y30D01*
X-1580D01*
Y170D01*
D02*
G37*
G36*
X-1063D02*
X-1120D01*
Y113D01*
X-1063D01*
Y170D01*
D02*
G37*
G36*
X-780D02*
X-837D01*
Y113D01*
X-780D01*
Y170D01*
D02*
G37*
G36*
X-1380D02*
X-1520D01*
Y30D01*
X-1380D01*
Y170D01*
D02*
G37*
G36*
X-1180D02*
X-1320D01*
Y30D01*
X-1180D01*
Y170D01*
D02*
G37*
G36*
X-5323Y282D02*
X-5370D01*
Y175D01*
X-5370D01*
X-5159Y-36D01*
X-5159D01*
X-5159Y-36D01*
X-5159D01*
X-5159Y-36D01*
Y-36D01*
X-5159Y-36D01*
Y-36D01*
X-5142Y-47D01*
X-5123Y-51D01*
X-5012D01*
Y-170D01*
X-4935D01*
Y-0D01*
Y170D01*
X-5012D01*
Y51D01*
X-5102D01*
X-5323Y272D01*
Y282D01*
D02*
G37*
G36*
X-2975Y-272D02*
X-3132D01*
Y-350D01*
X-2975D01*
Y-272D01*
D02*
G37*
G36*
X-1375Y-1D02*
X-1396Y-6D01*
X-1415Y-18D01*
X-1427Y-36D01*
X-1431Y-57D01*
X-1427Y-79D01*
X-1415Y-97D01*
X-1411Y-100D01*
Y-171D01*
X-1417Y-175D01*
X-1429Y-194D01*
X-1434Y-215D01*
X-1429Y-236D01*
X-1417Y-255D01*
X-1399Y-267D01*
X-1377Y-271D01*
X-1356Y-267D01*
X-1338Y-255D01*
X-1326Y-236D01*
X-1321Y-215D01*
X-1326Y-194D01*
X-1338Y-175D01*
X-1344Y-171D01*
Y-103D01*
X-1335Y-97D01*
X-1323Y-79D01*
X-1319Y-57D01*
X-1323Y-36D01*
X-1335Y-18D01*
X-1354Y-6D01*
X-1375Y-1D01*
D02*
G37*
G36*
X-2149Y-307D02*
X-2231D01*
X-2229Y-319D01*
X-2219Y-342D01*
X-2204Y-362D01*
X-2184Y-377D01*
X-2161Y-387D01*
X-2149Y-389D01*
Y-307D01*
D02*
G37*
G36*
X-1883Y-199D02*
X-1907Y-202D01*
X-1930Y-212D01*
X-1950Y-227D01*
X-1965Y-247D01*
X-1975Y-270D01*
X-1978Y-294D01*
X-1975Y-319D01*
X-1965Y-342D01*
X-1952Y-360D01*
X-1957Y-372D01*
X-2027D01*
X-2055Y-344D01*
X-2054Y-342D01*
X-2044Y-319D01*
X-2042Y-307D01*
X-2124D01*
Y-389D01*
X-2125Y-389D01*
X-2072Y-441D01*
X-2072Y-441D01*
X-2063Y-447D01*
X-2059Y-450D01*
X-2043Y-453D01*
X-2043Y-453D01*
X-1935D01*
X-1930Y-466D01*
X-1950Y-481D01*
X-1965Y-501D01*
X-1975Y-524D01*
X-1978Y-548D01*
X-1975Y-573D01*
X-1965Y-596D01*
X-1950Y-616D01*
X-1930Y-631D01*
X-1907Y-641D01*
X-1883Y-644D01*
X-1858Y-641D01*
X-1835Y-631D01*
X-1815Y-616D01*
X-1800Y-596D01*
X-1790Y-573D01*
X-1787Y-548D01*
X-1790Y-524D01*
X-1800Y-501D01*
X-1815Y-481D01*
X-1835Y-466D01*
X-1858Y-456D01*
X-1858Y-453D01*
X-1392D01*
X-1373Y-472D01*
X-1374Y-468D01*
X-1372Y-455D01*
X-1333D01*
Y-416D01*
X-1320Y-413D01*
X-1315Y-414D01*
X-1346Y-384D01*
X-1359Y-375D01*
X-1362Y-374D01*
X-1375Y-372D01*
X-1375Y-372D01*
X-1808D01*
X-1813Y-360D01*
X-1800Y-342D01*
X-1790Y-319D01*
X-1787Y-294D01*
X-1790Y-270D01*
X-1800Y-247D01*
X-1815Y-227D01*
X-1835Y-212D01*
X-1858Y-202D01*
X-1883Y-199D01*
D02*
G37*
G36*
X-4443Y-150D02*
X-4538D01*
Y-212D01*
X-4443D01*
Y-150D01*
D02*
G37*
G36*
X-2625Y-169D02*
Y-210D01*
X-2584D01*
X-2586Y-201D01*
X-2598Y-183D01*
X-2616Y-171D01*
X-2625Y-169D01*
D02*
G37*
G36*
X-5965Y102D02*
X-5994Y99D01*
X-6022Y87D01*
X-6045Y69D01*
X-6063Y46D01*
X-6075Y18D01*
X-6078Y-11D01*
X-6075Y-40D01*
X-6063Y-68D01*
X-6045Y-91D01*
X-6022Y-109D01*
X-5994Y-121D01*
X-5965Y-124D01*
X-5936Y-121D01*
X-5908Y-109D01*
X-5885Y-91D01*
X-5867Y-68D01*
X-5864Y-62D01*
X-5642D01*
Y-195D01*
X-5372D01*
Y75D01*
X-5642D01*
Y40D01*
X-5864D01*
X-5867Y46D01*
X-5885Y69D01*
X-5908Y87D01*
X-5936Y99D01*
X-5965Y102D01*
D02*
G37*
G36*
X-4322Y-150D02*
X-4417D01*
Y-212D01*
X-4322D01*
Y-150D01*
D02*
G37*
G36*
X-2650Y-169D02*
X-2659Y-171D01*
X-2677Y-183D01*
X-2689Y-201D01*
X-2691Y-210D01*
X-2650D01*
Y-169D01*
D02*
G37*
G36*
X-1362Y-1806D02*
X-1384Y-1811D01*
X-1385Y-1812D01*
X-1790D01*
X-1791Y-1811D01*
X-1812Y-1806D01*
X-1834Y-1811D01*
X-1852Y-1823D01*
X-1864Y-1841D01*
X-1869Y-1862D01*
X-1864Y-1884D01*
X-1852Y-1902D01*
X-1834Y-1914D01*
X-1812Y-1919D01*
X-1791Y-1914D01*
X-1790Y-1913D01*
X-1385D01*
X-1384Y-1914D01*
X-1362Y-1919D01*
X-1341Y-1914D01*
X-1323Y-1902D01*
X-1311Y-1884D01*
X-1306Y-1862D01*
X-1311Y-1841D01*
X-1323Y-1823D01*
X-1341Y-1811D01*
X-1362Y-1806D01*
D02*
G37*
G36*
X265Y-1353D02*
X230Y-1357D01*
X195Y-1367D01*
X164Y-1384D01*
X137Y-1407D01*
X114Y-1434D01*
X97Y-1465D01*
X87Y-1500D01*
X83Y-1535D01*
X87Y-1570D01*
X97Y-1605D01*
X114Y-1636D01*
X137Y-1663D01*
X164Y-1686D01*
X195Y-1703D01*
X230Y-1713D01*
X265Y-1717D01*
X300Y-1713D01*
X335Y-1703D01*
X366Y-1686D01*
X393Y-1663D01*
X416Y-1636D01*
X433Y-1605D01*
X443Y-1570D01*
X447Y-1535D01*
X443Y-1500D01*
X433Y-1465D01*
X416Y-1434D01*
X393Y-1407D01*
X366Y-1384D01*
X335Y-1367D01*
X300Y-1357D01*
X265Y-1353D01*
D02*
G37*
G36*
X822Y-1834D02*
X652D01*
Y-1895D01*
X544D01*
Y-1855D01*
X394D01*
Y-1995D01*
X544D01*
Y-1962D01*
X652D01*
Y-2024D01*
X822D01*
Y-1834D01*
D02*
G37*
G36*
X-5853Y-407D02*
X-6078D01*
Y-632D01*
X-6011D01*
Y-885D01*
X-6055D01*
Y-953D01*
X-6156Y-1054D01*
X-6167Y-1070D01*
X-6171Y-1090D01*
Y-1640D01*
X-6171Y-1640D01*
X-6171D01*
X-6167Y-1660D01*
X-6156Y-1676D01*
X-6055Y-1777D01*
Y-1895D01*
X-5865D01*
Y-1705D01*
X-5983D01*
X-6069Y-1619D01*
Y-1111D01*
X-6033Y-1075D01*
X-5865D01*
Y-885D01*
X-5909D01*
Y-632D01*
X-5853D01*
Y-407D01*
D02*
G37*
G36*
X-1105Y-1636D02*
X-1114Y-1638D01*
X-1132Y-1650D01*
X-1144Y-1669D01*
X-1146Y-1677D01*
X-1105D01*
Y-1636D01*
D02*
G37*
G36*
X-4212Y-1225D02*
X-4372D01*
X-4392Y-1229D01*
X-4409Y-1240D01*
X-4420Y-1256D01*
X-4423Y-1276D01*
X-4420Y-1296D01*
X-4409Y-1312D01*
X-4392Y-1323D01*
X-4372Y-1327D01*
X-4326D01*
Y-1352D01*
X-4372D01*
X-4392Y-1356D01*
X-4409Y-1367D01*
X-4420Y-1383D01*
X-4423Y-1403D01*
X-4420Y-1423D01*
X-4409Y-1439D01*
X-4392Y-1450D01*
X-4372Y-1454D01*
X-4212D01*
X-4193Y-1450D01*
X-4176Y-1439D01*
X-4175Y-1436D01*
X-4062D01*
Y-1494D01*
X-3922D01*
Y-1344D01*
X-4062D01*
Y-1370D01*
X-4175D01*
X-4176Y-1367D01*
X-4193Y-1356D01*
X-4212Y-1352D01*
X-4259D01*
Y-1327D01*
X-4212D01*
X-4193Y-1323D01*
X-4176Y-1312D01*
X-4165Y-1296D01*
X-4162Y-1276D01*
X-4165Y-1256D01*
X-4176Y-1240D01*
X-4193Y-1229D01*
X-4212Y-1225D01*
D02*
G37*
G36*
X-1190Y-1116D02*
X-1211Y-1121D01*
X-1230Y-1133D01*
X-1242Y-1151D01*
X-1246Y-1173D01*
X-1242Y-1194D01*
X-1230Y-1212D01*
X-1221Y-1218D01*
Y-1349D01*
X-1279Y-1407D01*
X-1412D01*
Y-1345D01*
X-2052D01*
Y-1585D01*
X-1412D01*
Y-1473D01*
X-1265D01*
X-1252Y-1471D01*
X-1241Y-1464D01*
X-1241Y-1464D01*
X-1241Y-1464D01*
X-1164Y-1386D01*
X-1164Y-1386D01*
X-1164Y-1386D01*
X-1157Y-1375D01*
X-1154Y-1362D01*
Y-1215D01*
X-1150Y-1212D01*
X-1138Y-1194D01*
X-1134Y-1173D01*
X-1138Y-1151D01*
X-1150Y-1133D01*
X-1169Y-1121D01*
X-1190Y-1116D01*
D02*
G37*
G36*
X-1080Y-1636D02*
Y-1677D01*
X-1039D01*
X-1041Y-1669D01*
X-1053Y-1650D01*
X-1071Y-1638D01*
X-1080Y-1636D01*
D02*
G37*
G36*
X-3170Y-1459D02*
X-3227D01*
Y-1522D01*
X-3170D01*
Y-1459D01*
D02*
G37*
G36*
X-3899Y-2154D02*
X-3981D01*
Y-2227D01*
X-3899D01*
Y-2154D01*
D02*
G37*
G36*
X814Y-2124D02*
X644D01*
Y-2179D01*
X542D01*
Y-2142D01*
X392D01*
Y-2282D01*
X542D01*
Y-2246D01*
X644D01*
Y-2314D01*
X814D01*
Y-2124D01*
D02*
G37*
G36*
X1004D02*
X834D01*
Y-2314D01*
X1004D01*
Y-2252D01*
X1115D01*
X1119Y-2258D01*
X1137Y-2270D01*
X1159Y-2275D01*
X1180Y-2270D01*
X1198Y-2258D01*
X1210Y-2240D01*
X1215Y-2219D01*
X1210Y-2197D01*
X1198Y-2179D01*
X1180Y-2167D01*
X1159Y-2162D01*
X1137Y-2167D01*
X1119Y-2179D01*
X1115Y-2185D01*
X1004D01*
Y-2124D01*
D02*
G37*
G36*
X-4006Y-2154D02*
X-4089D01*
Y-2227D01*
X-4006D01*
Y-2154D01*
D02*
G37*
G36*
X-5973Y-2067D02*
X-6054D01*
X-6053Y-2079D01*
X-6043Y-2102D01*
X-6028Y-2122D01*
X-6008Y-2137D01*
X-5985Y-2147D01*
X-5973Y-2148D01*
Y-2067D01*
D02*
G37*
G36*
X1012Y-1834D02*
X842D01*
Y-2024D01*
X1012D01*
Y-1962D01*
X1113D01*
X1117Y-1968D01*
X1135Y-1980D01*
X1156Y-1985D01*
X1178Y-1980D01*
X1196Y-1968D01*
X1208Y-1950D01*
X1213Y-1929D01*
X1208Y-1907D01*
X1196Y-1889D01*
X1178Y-1877D01*
X1156Y-1872D01*
X1135Y-1877D01*
X1117Y-1889D01*
X1113Y-1895D01*
X1012D01*
Y-1834D01*
D02*
G37*
G36*
X-4533Y-1798D02*
X-4663D01*
Y-1933D01*
X-4533D01*
Y-1916D01*
X-4320D01*
X-4319Y-1917D01*
X-4298Y-1921D01*
X-4276Y-1917D01*
X-4258Y-1905D01*
X-4246Y-1886D01*
X-4241Y-1865D01*
X-4246Y-1844D01*
X-4258Y-1825D01*
X-4276Y-1813D01*
X-4298Y-1809D01*
X-4319Y-1813D01*
X-4320Y-1814D01*
X-4533D01*
Y-1798D01*
D02*
G37*
G36*
X-3922Y-1514D02*
X-4062D01*
Y-1664D01*
X-4026D01*
Y-1964D01*
X-4089D01*
Y-2134D01*
X-3899D01*
Y-1964D01*
X-3959D01*
Y-1664D01*
X-3922D01*
Y-1514D01*
D02*
G37*
G36*
X-5973Y-1960D02*
X-5985Y-1961D01*
X-6008Y-1971D01*
X-6028Y-1986D01*
X-6043Y-2006D01*
X-6053Y-2029D01*
X-6054Y-2041D01*
X-5973D01*
Y-1960D01*
D02*
G37*
G36*
X-5973Y-1247D02*
X-6054D01*
X-6053Y-1259D01*
X-6043Y-1282D01*
X-6028Y-1302D01*
X-6008Y-1317D01*
X-5985Y-1327D01*
X-5973Y-1328D01*
Y-1247D01*
D02*
G37*
G36*
X-1245Y-848D02*
X-1302D01*
Y-911D01*
X-1245D01*
Y-848D01*
D02*
G37*
G36*
X-2136Y-707D02*
X-2161Y-710D01*
X-2184Y-720D01*
X-2204Y-735D01*
X-2219Y-755D01*
X-2229Y-778D01*
X-2232Y-802D01*
X-2229Y-827D01*
X-2219Y-850D01*
X-2204Y-870D01*
X-2184Y-885D01*
X-2161Y-895D01*
X-2136Y-898D01*
X-2112Y-895D01*
X-2089Y-885D01*
X-2069Y-870D01*
X-2054Y-850D01*
X-2044Y-827D01*
X-2041Y-802D01*
X-2044Y-778D01*
X-2054Y-755D01*
X-2069Y-735D01*
X-2089Y-720D01*
X-2112Y-710D01*
X-2136Y-707D01*
D02*
G37*
G36*
X-375Y-245D02*
X-745D01*
Y-425D01*
X-412D01*
X-257Y-580D01*
Y-719D01*
X-258Y-719D01*
X-280Y-736D01*
X-297Y-758D01*
X-307Y-783D01*
X-311Y-810D01*
X-307Y-837D01*
X-297Y-862D01*
X-280Y-884D01*
X-258Y-901D01*
X-233Y-911D01*
X-206Y-915D01*
X-179Y-911D01*
X-154Y-901D01*
X-132Y-884D01*
X-115Y-862D01*
X-112Y-855D01*
X-100D01*
X-97Y-862D01*
X-80Y-884D01*
X-58Y-901D01*
X-33Y-911D01*
X-6Y-915D01*
X21Y-911D01*
X46Y-901D01*
X68Y-884D01*
X85Y-862D01*
X95Y-837D01*
X99Y-810D01*
X95Y-783D01*
X85Y-758D01*
X68Y-736D01*
X46Y-719D01*
X21Y-709D01*
X-6Y-705D01*
X-33Y-709D01*
X-58Y-719D01*
X-80Y-736D01*
X-97Y-758D01*
X-100Y-765D01*
X-112D01*
X-115Y-758D01*
X-132Y-736D01*
X-154Y-719D01*
X-155Y-719D01*
Y-559D01*
X-159Y-539D01*
X-170Y-523D01*
X-375Y-318D01*
Y-245D01*
D02*
G37*
G36*
X-1328Y-848D02*
X-1385D01*
Y-911D01*
X-1328D01*
Y-848D01*
D02*
G37*
G36*
X-2698Y-766D02*
X-2771D01*
Y-848D01*
X-2698D01*
Y-766D01*
D02*
G37*
G36*
X-1148Y-720D02*
X-1187D01*
Y-759D01*
X-1179Y-757D01*
X-1162Y-746D01*
X-1150Y-728D01*
X-1148Y-720D01*
D02*
G37*
G36*
X-1093D02*
X-1132D01*
X-1130Y-728D01*
X-1118Y-746D01*
X-1101Y-757D01*
X-1093Y-759D01*
Y-720D01*
D02*
G37*
G36*
X-2791Y-766D02*
X-2961D01*
Y-834D01*
X-3187D01*
Y-785D01*
X-3337D01*
Y-925D01*
X-3187D01*
Y-901D01*
X-2961D01*
Y-956D01*
X-2791D01*
Y-766D01*
D02*
G37*
G36*
X-1213Y-720D02*
X-1252D01*
X-1250Y-728D01*
X-1238Y-746D01*
X-1221Y-757D01*
X-1213Y-759D01*
Y-720D01*
D02*
G37*
G36*
X-5973Y-1140D02*
X-5985Y-1141D01*
X-6008Y-1151D01*
X-6028Y-1166D01*
X-6043Y-1186D01*
X-6053Y-1209D01*
X-6054Y-1221D01*
X-5973D01*
Y-1140D01*
D02*
G37*
G36*
X-5142Y-1139D02*
X-5200D01*
Y-1202D01*
X-5142D01*
Y-1139D01*
D02*
G37*
G36*
X-4692Y-1098D02*
X-4853D01*
X-4872Y-1102D01*
X-4889Y-1113D01*
X-4900Y-1129D01*
X-4900Y-1130D01*
X-4961Y-1191D01*
X-4968Y-1202D01*
X-4971Y-1215D01*
Y-1478D01*
X-4975Y-1480D01*
X-4987Y-1499D01*
X-4991Y-1520D01*
X-4987Y-1541D01*
X-4975Y-1560D01*
X-4956Y-1572D01*
X-4959Y-1584D01*
X-5060D01*
Y-1552D01*
X-5069D01*
Y-1540D01*
X-5072Y-1523D01*
X-5082Y-1509D01*
X-5112Y-1479D01*
X-5126Y-1470D01*
X-5142Y-1467D01*
X-5270D01*
X-5287Y-1470D01*
X-5301Y-1479D01*
X-5333Y-1512D01*
X-5343Y-1526D01*
X-5346Y-1543D01*
Y-1552D01*
X-5355D01*
Y-1702D01*
X-5258D01*
Y-1792D01*
X-5355D01*
Y-1942D01*
X-5258D01*
Y-2018D01*
X-5312D01*
Y-2030D01*
X-5717D01*
Y-1427D01*
X-5720Y-1410D01*
X-5720Y-1407D01*
X-5731Y-1390D01*
X-5827Y-1295D01*
X-5822Y-1283D01*
X-5282D01*
Y-1289D01*
X-5225D01*
Y-1214D01*
Y-1139D01*
X-5282D01*
Y-1182D01*
X-5878D01*
X-5878Y-1180D01*
X-5889Y-1163D01*
X-5906Y-1152D01*
X-5913Y-1151D01*
X-5935Y-1141D01*
X-5947Y-1140D01*
Y-1234D01*
Y-1328D01*
X-5939Y-1327D01*
X-5818Y-1448D01*
Y-2030D01*
X-5867D01*
X-5867Y-2029D01*
X-5877Y-2006D01*
X-5892Y-1986D01*
X-5912Y-1971D01*
X-5935Y-1961D01*
X-5947Y-1960D01*
Y-2054D01*
Y-2148D01*
X-5935Y-2147D01*
X-5912Y-2137D01*
X-5906Y-2132D01*
X-5312D01*
Y-2158D01*
X-5288D01*
Y-2201D01*
X-5288Y-2201D01*
X-5288D01*
X-5284Y-2220D01*
X-5273Y-2237D01*
X-5184Y-2326D01*
X-5167Y-2337D01*
X-5147Y-2341D01*
X-1250D01*
X-1230Y-2337D01*
X-1214Y-2326D01*
X-1214Y-2326D01*
X-1214Y-2326D01*
X-1056Y-2169D01*
X-1045Y-2152D01*
X-1042Y-2133D01*
X-1042Y-2133D01*
X-1042Y-2133D01*
Y-2133D01*
Y-1713D01*
X-1041Y-1711D01*
X-1039Y-1703D01*
X-1146D01*
X-1144Y-1711D01*
X-1143Y-1713D01*
Y-2111D01*
X-1271Y-2239D01*
X-2649D01*
Y-2043D01*
X-2610D01*
Y-1885D01*
X-2790D01*
Y-2043D01*
X-2751D01*
Y-2239D01*
X-3899D01*
Y-2252D01*
X-4089D01*
Y-2239D01*
X-5126D01*
X-5186Y-2180D01*
Y-2158D01*
X-5162D01*
Y-2100D01*
X-5237D01*
Y-2075D01*
X-5162D01*
Y-2070D01*
X-5160Y-2068D01*
X-5160Y-2065D01*
X-5159Y-2059D01*
X-5146D01*
X-5143Y-2072D01*
X-5142Y-2075D01*
Y-2158D01*
X-4992D01*
Y-2121D01*
X-4979D01*
X-4975Y-2127D01*
X-4956Y-2139D01*
X-4935Y-2144D01*
X-4914Y-2139D01*
X-4895Y-2127D01*
X-4883Y-2109D01*
X-4879Y-2088D01*
X-4883Y-2066D01*
X-4895Y-2048D01*
X-4914Y-2036D01*
X-4935Y-2031D01*
X-4956Y-2036D01*
X-4975Y-2048D01*
X-4979Y-2054D01*
X-4992D01*
Y-2018D01*
X-5079D01*
Y-1942D01*
X-5060D01*
Y-1792D01*
X-5157D01*
Y-1702D01*
X-5060D01*
Y-1671D01*
X-4852D01*
X-4839Y-1679D01*
X-4817Y-1684D01*
X-4796Y-1679D01*
X-4783Y-1671D01*
X-4758D01*
Y-1698D01*
X-4628D01*
Y-1563D01*
X-4671D01*
Y-1449D01*
X-4656Y-1439D01*
X-4645Y-1423D01*
X-4642Y-1403D01*
X-4645Y-1383D01*
X-4656Y-1367D01*
X-4673Y-1356D01*
X-4692Y-1352D01*
X-4853D01*
X-4872Y-1356D01*
X-4889Y-1367D01*
X-4892Y-1372D01*
X-4904Y-1368D01*
Y-1311D01*
X-4892Y-1307D01*
X-4889Y-1312D01*
X-4872Y-1323D01*
X-4853Y-1327D01*
X-4692D01*
X-4673Y-1323D01*
X-4656Y-1312D01*
X-4655Y-1309D01*
X-4610D01*
X-4543Y-1376D01*
Y-1563D01*
X-4568D01*
Y-1698D01*
X-4438D01*
Y-1563D01*
X-4477D01*
Y-1362D01*
X-4479Y-1350D01*
X-4486Y-1339D01*
X-4573Y-1252D01*
X-4584Y-1245D01*
X-4597Y-1243D01*
X-4655D01*
X-4656Y-1240D01*
X-4673Y-1229D01*
X-4692Y-1225D01*
X-4853D01*
X-4872Y-1229D01*
X-4889Y-1240D01*
X-4892Y-1245D01*
X-4904Y-1241D01*
Y-1229D01*
X-4872Y-1196D01*
X-4853Y-1200D01*
X-4692D01*
X-4673Y-1196D01*
X-4656Y-1185D01*
X-4645Y-1169D01*
X-4642Y-1149D01*
X-4645Y-1129D01*
X-4656Y-1113D01*
X-4673Y-1102D01*
X-4692Y-1098D01*
D02*
G37*
G36*
X-5142Y-1227D02*
X-5200D01*
Y-1289D01*
X-5142D01*
Y-1227D01*
D02*
G37*
G36*
X-4475Y-766D02*
X-4496Y-771D01*
X-4515Y-783D01*
X-4527Y-801D01*
X-4531Y-823D01*
X-4527Y-844D01*
X-4515Y-862D01*
X-4508Y-866D01*
Y-1105D01*
X-4506Y-1118D01*
X-4499Y-1129D01*
X-4499Y-1129D01*
X-4499Y-1129D01*
Y-1129D01*
X-4455Y-1173D01*
D01*
X-4455D01*
X-4455Y-1173D01*
X-4455Y-1173D01*
X-4455D01*
D01*
X-4455D01*
X-4455Y-1173D01*
Y-1173D01*
X-4455Y-1173D01*
Y-1173D01*
X-4444Y-1180D01*
X-4431Y-1182D01*
X-4410D01*
X-4409Y-1185D01*
X-4392Y-1196D01*
X-4372Y-1200D01*
X-4212D01*
X-4193Y-1196D01*
X-4176Y-1185D01*
X-4165Y-1169D01*
X-4162Y-1149D01*
X-4165Y-1129D01*
X-4176Y-1113D01*
X-4193Y-1102D01*
X-4212Y-1098D01*
X-4372D01*
X-4392Y-1102D01*
X-4409Y-1113D01*
X-4409Y-1113D01*
Y-1113D01*
X-4417Y-1116D01*
X-4442Y-1091D01*
Y-866D01*
X-4435Y-862D01*
X-4423Y-844D01*
X-4419Y-823D01*
X-4423Y-801D01*
X-4435Y-783D01*
X-4454Y-771D01*
X-4475Y-766D01*
D02*
G37*
G36*
X-4305Y-971D02*
X-4372D01*
X-4392Y-975D01*
X-4409Y-986D01*
X-4420Y-1002D01*
X-4421Y-1009D01*
X-4305D01*
Y-971D01*
D02*
G37*
G36*
X-2698Y-874D02*
X-2771D01*
Y-956D01*
X-2698D01*
Y-874D01*
D02*
G37*
G36*
X-5382Y-949D02*
X-5522D01*
Y-1099D01*
X-5382D01*
Y-1058D01*
X-5282D01*
Y-1119D01*
X-5142D01*
Y-1055D01*
X-4890D01*
X-4889Y-1058D01*
X-4872Y-1069D01*
X-4853Y-1073D01*
X-4692D01*
X-4673Y-1069D01*
X-4656Y-1058D01*
X-4645Y-1042D01*
X-4642Y-1022D01*
X-4645Y-1002D01*
X-4656Y-986D01*
X-4673Y-975D01*
X-4692Y-971D01*
X-4853D01*
X-4872Y-975D01*
X-4889Y-986D01*
X-4890Y-989D01*
X-5142D01*
Y-969D01*
X-5282D01*
Y-991D01*
X-5382D01*
Y-949D01*
D02*
G37*
G36*
X-4305Y-1035D02*
X-4421D01*
X-4420Y-1042D01*
X-4409Y-1058D01*
X-4392Y-1069D01*
X-4372Y-1073D01*
X-4305D01*
Y-1035D01*
D02*
G37*
G36*
X-2156Y2087D02*
X-2197D01*
X-2195Y2078D01*
X-2183Y2060D01*
X-2165Y2047D01*
X-2156Y2046D01*
Y2087D01*
D02*
G37*
G36*
X-2090D02*
X-2131D01*
Y2046D01*
X-2122Y2047D01*
X-2104Y2060D01*
X-2091Y2078D01*
X-2090Y2087D01*
D02*
G37*
G36*
X-1205Y1969D02*
X-1226Y1964D01*
X-1245Y1952D01*
X-1247Y1948D01*
X-1902D01*
X-1915Y1946D01*
X-1926Y1939D01*
X-1945Y1920D01*
X-2070D01*
Y1780D01*
X-1930D01*
Y1840D01*
X-1889Y1882D01*
X-1679D01*
X-1673Y1870D01*
X-1680Y1861D01*
X-1682Y1853D01*
X-1630D01*
Y1840D01*
X-1617D01*
Y1788D01*
X-1630Y1786D01*
X-1632Y1786D01*
Y1774D01*
X-1630Y1774D01*
X-1617Y1772D01*
Y1733D01*
X-1578D01*
X-1576Y1720D01*
X-1576Y1718D01*
X-1564D01*
X-1564Y1720D01*
X-1562Y1733D01*
X-1523D01*
Y1772D01*
X-1510Y1774D01*
X-1508Y1774D01*
Y1786D01*
X-1510Y1786D01*
X-1523Y1788D01*
Y1840D01*
X-1510D01*
Y1853D01*
X-1458D01*
X-1460Y1861D01*
X-1472Y1878D01*
X-1471Y1882D01*
X-1251D01*
X-1245Y1873D01*
X-1226Y1861D01*
X-1205Y1856D01*
X-1184Y1861D01*
X-1165Y1873D01*
X-1153Y1891D01*
X-1149Y1912D01*
X-1153Y1934D01*
X-1165Y1952D01*
X-1184Y1964D01*
X-1205Y1969D01*
D02*
G37*
G36*
X-4892Y1961D02*
X-4950D01*
Y1898D01*
X-4892D01*
Y1961D01*
D02*
G37*
G36*
X-1088Y2209D02*
X-1109Y2205D01*
X-1127Y2192D01*
X-1131Y2186D01*
X-1765D01*
X-1778Y2184D01*
X-1788Y2176D01*
X-1863Y2102D01*
X-1870Y2104D01*
X-1891Y2099D01*
X-1910Y2087D01*
X-1918Y2075D01*
X-1930Y2079D01*
Y2120D01*
X-2070D01*
Y1980D01*
X-1930D01*
Y2016D01*
X-1918Y2020D01*
X-1910Y2008D01*
X-1891Y1996D01*
X-1870Y1991D01*
X-1849Y1996D01*
X-1830Y2008D01*
X-1818Y2026D01*
X-1814Y2048D01*
X-1815Y2055D01*
X-1751Y2119D01*
X-1131D01*
X-1127Y2113D01*
X-1121Y2109D01*
Y1433D01*
X-1784D01*
X-1788Y1440D01*
X-1806Y1452D01*
X-1827Y1456D01*
X-1849Y1452D01*
X-1867Y1440D01*
X-1879Y1421D01*
X-1884Y1400D01*
X-1879Y1379D01*
X-1867Y1360D01*
X-1849Y1348D01*
X-1827Y1344D01*
X-1806Y1348D01*
X-1788Y1360D01*
X-1784Y1367D01*
X-654D01*
X-381Y1094D01*
Y216D01*
X-427Y170D01*
X-520D01*
Y133D01*
X-580D01*
Y170D01*
X-720D01*
Y32D01*
X-720Y32D01*
X-720D01*
X-720Y30D01*
X-722Y28D01*
X-732Y24D01*
X-780Y72D01*
Y87D01*
X-850D01*
Y100D01*
X-863D01*
Y170D01*
X-920D01*
Y151D01*
X-980D01*
Y170D01*
X-1037D01*
Y100D01*
X-1050D01*
Y87D01*
X-1120D01*
Y100D01*
X-1127Y90D01*
X-1131Y70D01*
Y-452D01*
X-1132Y-455D01*
X-1028D01*
X-1029Y-452D01*
Y30D01*
X-980D01*
Y49D01*
X-920D01*
Y30D01*
X-882D01*
X-789Y-64D01*
X-789D01*
X-789Y-64D01*
X-789Y-64D01*
Y-64D01*
X-772Y-75D01*
X-753Y-78D01*
X484D01*
X485Y-79D01*
Y-25D01*
Y29D01*
X476Y27D01*
X471Y23D01*
X-180D01*
Y23D01*
Y30D01*
X-180Y32D01*
X-180Y32D01*
X-180D01*
Y170D01*
X-316D01*
X-322Y181D01*
X-317Y190D01*
X-314Y203D01*
X-314Y203D01*
X-314Y203D01*
Y203D01*
Y1107D01*
X-317Y1120D01*
X-324Y1131D01*
X-616Y1424D01*
X-627Y1431D01*
X-640Y1433D01*
X-1054D01*
Y2109D01*
X-1048Y2113D01*
X-1036Y2131D01*
X-1031Y2153D01*
X-1036Y2174D01*
X-1048Y2192D01*
X-1066Y2205D01*
X-1088Y2209D01*
D02*
G37*
G36*
X-4394Y2153D02*
Y2112D01*
X-4353D01*
X-4355Y2121D01*
X-4367Y2139D01*
X-4386Y2151D01*
X-4394Y2153D01*
D02*
G37*
G36*
X-3994Y2194D02*
X-4006Y2192D01*
X-4029Y2182D01*
X-4049Y2167D01*
X-4064Y2147D01*
X-4074Y2124D01*
X-4076Y2112D01*
X-3994D01*
Y2194D01*
D02*
G37*
G36*
X1210Y2338D02*
X970D01*
Y2275D01*
X1039D01*
Y2171D01*
X970D01*
Y2109D01*
X1210D01*
Y2171D01*
X1141D01*
Y2275D01*
X1210D01*
Y2338D01*
D02*
G37*
G36*
X-4420Y2153D02*
X-4428Y2151D01*
X-4447Y2139D01*
X-4459Y2121D01*
X-4461Y2112D01*
X-4420D01*
Y2153D01*
D02*
G37*
G36*
X-3147Y1844D02*
X-3229D01*
X-3227Y1832D01*
X-3217Y1809D01*
X-3202Y1789D01*
X-3182Y1774D01*
X-3159Y1764D01*
X-3147Y1762D01*
Y1844D01*
D02*
G37*
G36*
X-3040D02*
X-3122D01*
Y1762D01*
X-3110Y1764D01*
X-3087Y1774D01*
X-3067Y1789D01*
X-3052Y1809D01*
X-3042Y1832D01*
X-3040Y1844D01*
D02*
G37*
G36*
X-1643Y1772D02*
X-1651Y1770D01*
X-1668Y1758D01*
X-1680Y1741D01*
X-1682Y1733D01*
X-1643D01*
Y1772D01*
D02*
G37*
G36*
X-1497D02*
Y1733D01*
X-1458D01*
X-1460Y1741D01*
X-1472Y1758D01*
X-1489Y1770D01*
X-1497Y1772D01*
D02*
G37*
G36*
X1077Y1830D02*
X970D01*
Y1767D01*
X1077D01*
Y1830D01*
D02*
G37*
G36*
X-1458Y1827D02*
X-1497D01*
Y1788D01*
X-1489Y1790D01*
X-1472Y1802D01*
X-1460Y1819D01*
X-1458Y1827D01*
D02*
G37*
G36*
X1210Y2084D02*
X970D01*
Y2022D01*
X1039D01*
Y1917D01*
X970D01*
Y1855D01*
X1210D01*
Y1917D01*
X1141D01*
Y2022D01*
X1210D01*
Y2084D01*
D02*
G37*
G36*
Y1830D02*
X1103D01*
Y1767D01*
X1210D01*
Y1830D01*
D02*
G37*
G36*
X-1643Y1827D02*
X-1682D01*
X-1680Y1819D01*
X-1668Y1802D01*
X-1651Y1790D01*
X-1643Y1788D01*
Y1827D01*
D02*
G37*
G36*
X-2360Y2625D02*
X-2600D01*
Y2116D01*
X-2612Y2112D01*
X-2620Y2125D01*
X-2639Y2137D01*
X-2647Y2139D01*
Y2085D01*
Y2031D01*
X-2639Y2033D01*
X-2620Y2045D01*
X-2612Y2058D01*
X-2600Y2054D01*
Y1985D01*
X-2527D01*
X-2522Y1978D01*
X-2504Y1966D01*
X-2483Y1961D01*
X-2461Y1966D01*
X-2443Y1978D01*
X-2438Y1985D01*
X-2360D01*
Y2625D01*
D02*
G37*
G36*
X620Y2779D02*
X480D01*
Y2738D01*
X233D01*
Y2773D01*
X93D01*
Y2675D01*
X-63Y2520D01*
X-170D01*
Y2380D01*
X-30D01*
Y2458D01*
X135Y2623D01*
X233D01*
Y2671D01*
X480D01*
Y2629D01*
X620D01*
Y2779D01*
D02*
G37*
G36*
X-3981Y2957D02*
X-4006Y2954D01*
X-4029Y2944D01*
X-4049Y2929D01*
X-4064Y2909D01*
X-4074Y2886D01*
X-4077Y2862D01*
X-4074Y2837D01*
X-4064Y2814D01*
X-4049Y2794D01*
X-4029Y2779D01*
X-4006Y2769D01*
X-3981Y2766D01*
X-3957Y2769D01*
X-3934Y2779D01*
X-3914Y2794D01*
X-3899Y2814D01*
X-3889Y2837D01*
X-3886Y2862D01*
X-3889Y2886D01*
X-3899Y2909D01*
X-3914Y2929D01*
X-3934Y2944D01*
X-3957Y2954D01*
X-3981Y2957D01*
D02*
G37*
G36*
X-1930Y2720D02*
X-2070D01*
Y2580D01*
X-1930D01*
Y2720D01*
D02*
G37*
G36*
X-30D02*
X-170D01*
Y2580D01*
X-30D01*
Y2720D01*
D02*
G37*
G36*
X537Y2862D02*
X480D01*
Y2799D01*
X537D01*
Y2862D01*
D02*
G37*
G36*
X-3577Y3763D02*
X-3596Y3761D01*
X-3613Y3754D01*
X-3627Y3742D01*
X-3639Y3728D01*
X-3646Y3711D01*
X-3648Y3692D01*
Y3472D01*
X-3646Y3454D01*
X-3639Y3437D01*
X-3627Y3423D01*
X-3621Y3418D01*
Y3067D01*
X-3627Y3062D01*
X-3639Y3048D01*
X-3646Y3031D01*
X-3648Y3012D01*
Y2792D01*
X-3646Y2774D01*
X-3639Y2757D01*
X-3627Y2743D01*
X-3613Y2731D01*
X-3596Y2724D01*
X-3577Y2722D01*
X-3559Y2724D01*
X-3542Y2731D01*
X-3528Y2743D01*
X-3516Y2757D01*
X-3509Y2774D01*
X-3507Y2792D01*
Y3012D01*
X-3509Y3031D01*
X-3516Y3048D01*
X-3528Y3062D01*
X-3534Y3067D01*
Y3418D01*
X-3528Y3423D01*
X-3516Y3437D01*
X-3509Y3454D01*
X-3509Y3458D01*
X-3485D01*
X-3469Y3447D01*
X-3447Y3442D01*
X-3426Y3447D01*
X-3408Y3459D01*
X-3396Y3477D01*
X-3391Y3499D01*
X-3396Y3520D01*
X-3408Y3538D01*
X-3426Y3550D01*
X-3447Y3555D01*
X-3469Y3550D01*
X-3485Y3539D01*
X-3507D01*
Y3692D01*
X-3509Y3711D01*
X-3516Y3728D01*
X-3528Y3742D01*
X-3542Y3754D01*
X-3559Y3761D01*
X-3577Y3763D01*
D02*
G37*
G36*
X-2777Y3763D02*
X-2796Y3761D01*
X-2813Y3754D01*
X-2827Y3742D01*
X-2839Y3728D01*
X-2846Y3711D01*
X-2848Y3692D01*
Y3631D01*
X-2983D01*
X-2996Y3639D01*
X-3017Y3644D01*
X-3039Y3639D01*
X-3057Y3627D01*
X-3069Y3609D01*
X-3074Y3588D01*
X-3069Y3566D01*
X-3057Y3548D01*
X-3039Y3536D01*
X-3017Y3531D01*
X-2996Y3536D01*
X-2983Y3544D01*
X-2848D01*
Y3472D01*
X-2846Y3454D01*
X-2839Y3437D01*
X-2827Y3423D01*
X-2821Y3418D01*
Y3067D01*
X-2827Y3062D01*
X-2839Y3048D01*
X-2846Y3031D01*
X-2848Y3012D01*
Y2792D01*
X-2846Y2774D01*
X-2839Y2757D01*
X-2827Y2743D01*
X-2813Y2731D01*
X-2796Y2724D01*
X-2777Y2722D01*
X-2759Y2724D01*
X-2742Y2731D01*
X-2728Y2743D01*
X-2716Y2757D01*
X-2709Y2774D01*
X-2707Y2792D01*
Y3012D01*
X-2709Y3031D01*
X-2716Y3048D01*
X-2728Y3062D01*
X-2734Y3067D01*
Y3418D01*
X-2728Y3423D01*
X-2716Y3437D01*
X-2709Y3454D01*
X-2707Y3472D01*
Y3692D01*
X-2709Y3711D01*
X-2716Y3728D01*
X-2728Y3742D01*
X-2742Y3754D01*
X-2759Y3761D01*
X-2777Y3763D01*
D02*
G37*
G36*
X-3107Y3762D02*
X-3247D01*
Y3403D01*
X-3211D01*
Y3074D01*
X-3213Y3074D01*
X-3227Y3062D01*
X-3239Y3048D01*
X-3246Y3031D01*
X-3248Y3012D01*
Y2898D01*
X-3337D01*
X-3343Y2907D01*
X-3361Y2919D01*
X-3383Y2924D01*
X-3404Y2919D01*
X-3422Y2907D01*
X-3434Y2889D01*
X-3439Y2867D01*
X-3434Y2846D01*
X-3422Y2828D01*
X-3404Y2816D01*
X-3383Y2811D01*
X-3361Y2816D01*
X-3343Y2828D01*
X-3340Y2832D01*
X-3248D01*
Y2792D01*
X-3246Y2774D01*
X-3239Y2757D01*
X-3227Y2743D01*
X-3213Y2731D01*
X-3196Y2724D01*
X-3177Y2722D01*
X-3159Y2724D01*
X-3142Y2731D01*
X-3128Y2743D01*
X-3116Y2757D01*
X-3109Y2774D01*
X-3107Y2792D01*
Y3012D01*
X-3109Y3031D01*
X-3116Y3048D01*
X-3128Y3062D01*
X-3142Y3074D01*
X-3144Y3074D01*
Y3403D01*
X-3107D01*
Y3762D01*
D02*
G37*
G36*
X-2308Y3762D02*
X-2448D01*
Y3403D01*
X-2411D01*
Y3074D01*
X-2413Y3074D01*
X-2427Y3062D01*
X-2439Y3048D01*
X-2446Y3031D01*
X-2448Y3012D01*
Y2936D01*
X-2539D01*
X-2543Y2942D01*
X-2561Y2954D01*
X-2583Y2959D01*
X-2604Y2954D01*
X-2622Y2942D01*
X-2634Y2924D01*
X-2639Y2902D01*
X-2634Y2881D01*
X-2622Y2863D01*
X-2604Y2851D01*
X-2583Y2846D01*
X-2561Y2851D01*
X-2543Y2863D01*
X-2539Y2869D01*
X-2448D01*
Y2792D01*
X-2446Y2774D01*
X-2439Y2757D01*
X-2427Y2743D01*
X-2413Y2731D01*
X-2396Y2724D01*
X-2377Y2722D01*
X-2359Y2724D01*
X-2342Y2731D01*
X-2328Y2743D01*
X-2316Y2757D01*
X-2309Y2774D01*
X-2307Y2792D01*
Y3012D01*
X-2309Y3031D01*
X-2316Y3048D01*
X-2328Y3062D01*
X-2342Y3074D01*
X-2344Y3074D01*
Y3403D01*
X-2308D01*
Y3762D01*
D02*
G37*
G36*
X320Y2425D02*
X80D01*
Y2277D01*
X-18Y2179D01*
X-21Y2180D01*
X-21D01*
X-30Y2184D01*
Y2320D01*
X-170D01*
Y2180D01*
X-34D01*
X-30Y2171D01*
Y2171D01*
X-29Y2168D01*
X-77Y2120D01*
X-170D01*
Y1980D01*
X-34D01*
X-30Y1971D01*
X-30D01*
X-29Y1968D01*
X-77Y1920D01*
X-170D01*
Y1780D01*
X-34D01*
X-30Y1771D01*
X-30D01*
X-29Y1768D01*
X-77Y1720D01*
X-170D01*
Y1586D01*
X-198D01*
X-210Y1583D01*
X-221Y1576D01*
X-286Y1511D01*
X-293Y1500D01*
X-296Y1488D01*
Y503D01*
X-293Y490D01*
X-286Y479D01*
X-234Y426D01*
X-223Y419D01*
X-210Y417D01*
X-170D01*
Y380D01*
X-30D01*
Y520D01*
X-170D01*
Y483D01*
X-196D01*
X-229Y516D01*
Y1474D01*
X-184Y1519D01*
X-170D01*
Y1380D01*
X-35D01*
X150Y1195D01*
X161Y1188D01*
X161Y1188D01*
X161Y1188D01*
D01*
X161Y1188D01*
X161Y1188D01*
X174Y1186D01*
X509D01*
Y1124D01*
X679D01*
Y1314D01*
X509D01*
Y1252D01*
X187D01*
X-30Y1470D01*
Y1519D01*
X80D01*
Y1514D01*
X167D01*
Y1481D01*
X160Y1477D01*
X148Y1459D01*
X144Y1438D01*
X148Y1416D01*
X160Y1398D01*
X179Y1386D01*
X200Y1381D01*
X221Y1386D01*
X240Y1398D01*
X252Y1416D01*
X256Y1438D01*
X252Y1459D01*
X240Y1477D01*
X233Y1481D01*
Y1514D01*
X320D01*
Y1663D01*
X80D01*
Y1586D01*
X-30D01*
Y1673D01*
X69Y1772D01*
X80Y1767D01*
Y1767D01*
X80Y1767D01*
X320D01*
Y1917D01*
X80D01*
Y1877D01*
X79Y1876D01*
X-18Y1779D01*
X-21Y1780D01*
Y1780D01*
X-30Y1784D01*
Y1873D01*
X119Y2022D01*
X320D01*
Y2171D01*
X85D01*
X83Y2178D01*
Y2178D01*
X80Y2183D01*
X173Y2275D01*
X320D01*
Y2425D01*
D02*
G37*
G36*
X-1930Y2320D02*
X-2070D01*
Y2180D01*
X-1930D01*
Y2320D01*
D02*
G37*
G36*
X-3336Y2330D02*
X-3486D01*
Y2273D01*
X-3462D01*
Y2149D01*
X-3463Y2140D01*
Y2136D01*
X-3894D01*
X-3899Y2147D01*
X-3914Y2167D01*
X-3934Y2182D01*
X-3957Y2192D01*
X-3969Y2194D01*
Y2099D01*
X-3981D01*
Y2087D01*
X-4076D01*
X-4074Y2075D01*
X-4064Y2052D01*
X-4049Y2032D01*
X-4037Y2022D01*
X-4041Y2010D01*
X-4071D01*
X-4083Y2008D01*
X-4094Y2000D01*
X-4169Y1926D01*
X-4176Y1915D01*
X-4178Y1902D01*
Y993D01*
X-4176Y980D01*
X-4169Y969D01*
X-4169Y969D01*
X-4169Y969D01*
X-4068Y869D01*
X-4074Y854D01*
X-4077Y830D01*
X-4074Y805D01*
X-4064Y782D01*
X-4049Y762D01*
X-4029Y747D01*
X-4006Y737D01*
X-3981Y734D01*
X-3957Y737D01*
X-3934Y747D01*
X-3914Y762D01*
X-3899Y782D01*
X-3889Y805D01*
X-3886Y830D01*
X-3889Y854D01*
X-3899Y877D01*
X-3914Y897D01*
X-3934Y912D01*
X-3957Y922D01*
X-3981Y925D01*
X-4006Y922D01*
X-4021Y916D01*
X-4112Y1007D01*
Y1889D01*
X-4057Y1943D01*
X-4026D01*
X-4023Y1931D01*
X-4029Y1928D01*
X-4049Y1913D01*
X-4064Y1893D01*
X-4074Y1870D01*
X-4077Y1846D01*
X-4074Y1821D01*
X-4064Y1798D01*
X-4049Y1778D01*
X-4029Y1763D01*
X-4006Y1753D01*
X-3981Y1750D01*
X-3957Y1753D01*
X-3934Y1763D01*
X-3914Y1778D01*
X-3899Y1798D01*
X-3889Y1821D01*
X-3886Y1846D01*
X-3889Y1870D01*
X-3899Y1893D01*
X-3914Y1913D01*
X-3934Y1928D01*
X-3940Y1931D01*
X-3937Y1943D01*
X-3914D01*
X-3910Y1937D01*
X-3891Y1925D01*
X-3870Y1921D01*
X-3849Y1925D01*
X-3830Y1937D01*
X-3826Y1943D01*
X-3705D01*
X-3701Y1931D01*
X-3710Y1924D01*
X-3725Y1904D01*
X-3735Y1881D01*
X-3738Y1857D01*
X-3735Y1832D01*
X-3725Y1809D01*
X-3710Y1789D01*
X-3690Y1774D01*
X-3667Y1764D01*
X-3642Y1761D01*
X-3618Y1764D01*
X-3595Y1774D01*
X-3575Y1789D01*
X-3560Y1809D01*
X-3550Y1832D01*
X-3547Y1857D01*
X-3550Y1881D01*
X-3560Y1904D01*
X-3575Y1924D01*
X-3595Y1939D01*
X-3594Y1943D01*
X-3523D01*
X-3475Y1896D01*
X-3481Y1881D01*
X-3484Y1857D01*
X-3481Y1832D01*
X-3471Y1809D01*
X-3456Y1789D01*
X-3436Y1774D01*
X-3413Y1764D01*
X-3388Y1761D01*
X-3364Y1764D01*
X-3341Y1774D01*
X-3321Y1789D01*
X-3306Y1809D01*
X-3296Y1832D01*
X-3293Y1857D01*
X-3296Y1881D01*
X-3306Y1904D01*
X-3321Y1924D01*
X-3341Y1939D01*
X-3364Y1949D01*
X-3388Y1952D01*
X-3413Y1949D01*
X-3428Y1943D01*
X-3485Y2000D01*
X-3496Y2008D01*
X-3509Y2010D01*
X-3826D01*
X-3830Y2016D01*
X-3849Y2029D01*
X-3869Y2033D01*
Y2033D01*
X-3869Y2033D01*
X-3870Y2033D01*
Y2034D01*
X-3870Y2034D01*
X-3185D01*
Y1937D01*
X-3202Y1924D01*
X-3217Y1904D01*
X-3227Y1881D01*
X-3229Y1869D01*
X-3040D01*
X-3042Y1881D01*
X-3052Y1904D01*
X-3067Y1924D01*
X-3084Y1937D01*
Y2034D01*
X-2683D01*
X-2681Y2033D01*
X-2673Y2031D01*
Y2085D01*
Y2139D01*
X-2681Y2137D01*
X-2683Y2136D01*
X-3355D01*
X-3360Y2142D01*
Y2273D01*
X-3336D01*
Y2330D01*
D02*
G37*
G36*
X-3820Y3039D02*
X-3841Y3034D01*
X-3860Y3022D01*
X-3872Y3004D01*
X-3876Y2983D01*
X-3872Y2961D01*
X-3863Y2948D01*
Y2257D01*
X-3872Y2244D01*
X-3876Y2223D01*
X-3872Y2201D01*
X-3860Y2183D01*
X-3841Y2171D01*
X-3820Y2166D01*
X-3799Y2171D01*
X-3780Y2183D01*
X-3768Y2201D01*
X-3764Y2223D01*
X-3768Y2244D01*
X-3777Y2257D01*
Y2948D01*
X-3768Y2961D01*
X-3764Y2983D01*
X-3768Y3004D01*
X-3780Y3022D01*
X-3799Y3034D01*
X-3820Y3039D01*
D02*
G37*
G36*
X-3981Y2449D02*
X-4006Y2446D01*
X-4029Y2436D01*
X-4049Y2421D01*
X-4064Y2401D01*
X-4074Y2378D01*
X-4077Y2354D01*
X-4074Y2329D01*
X-4064Y2306D01*
X-4049Y2286D01*
X-4029Y2271D01*
X-4006Y2261D01*
X-3981Y2258D01*
X-3957Y2261D01*
X-3934Y2271D01*
X-3914Y2286D01*
X-3899Y2306D01*
X-3889Y2329D01*
X-3886Y2354D01*
X-3889Y2378D01*
X-3899Y2401D01*
X-3914Y2421D01*
X-3934Y2436D01*
X-3957Y2446D01*
X-3981Y2449D01*
D02*
G37*
G36*
X-1930Y2520D02*
X-2070D01*
Y2380D01*
X-1930D01*
Y2520D01*
D02*
G37*
G36*
X-3981Y2703D02*
X-4006Y2700D01*
X-4029Y2690D01*
X-4049Y2675D01*
X-4064Y2655D01*
X-4074Y2632D01*
X-4077Y2608D01*
X-4074Y2583D01*
X-4064Y2560D01*
X-4049Y2540D01*
X-4029Y2525D01*
X-4006Y2515D01*
X-3981Y2512D01*
X-3957Y2515D01*
X-3934Y2525D01*
X-3914Y2540D01*
X-3899Y2560D01*
X-3889Y2583D01*
X-3886Y2608D01*
X-3889Y2632D01*
X-3899Y2655D01*
X-3914Y2675D01*
X-3934Y2690D01*
X-3957Y2700D01*
X-3981Y2703D01*
D02*
G37*
G36*
X-3423Y2413D02*
X-3486D01*
Y2355D01*
X-3423D01*
Y2413D01*
D02*
G37*
G36*
X-3336D02*
X-3398D01*
Y2355D01*
X-3336D01*
Y2413D01*
D02*
G37*
G36*
X-1458Y1707D02*
X-1497D01*
Y1668D01*
X-1489Y1670D01*
X-1472Y1682D01*
X-1460Y1699D01*
X-1458Y1707D01*
D02*
G37*
G36*
X-3981Y671D02*
X-4006Y668D01*
X-4029Y658D01*
X-4049Y643D01*
X-4064Y623D01*
X-4074Y600D01*
X-4077Y576D01*
X-4074Y551D01*
X-4064Y528D01*
X-4049Y508D01*
X-4029Y493D01*
X-4006Y483D01*
X-3981Y480D01*
X-3957Y483D01*
X-3934Y493D01*
X-3914Y508D01*
X-3899Y528D01*
X-3889Y551D01*
X-3886Y576D01*
X-3889Y600D01*
X-3899Y623D01*
X-3914Y643D01*
X-3934Y658D01*
X-3957Y668D01*
X-3981Y671D01*
D02*
G37*
G36*
X-1645Y599D02*
X-1666Y594D01*
X-1685Y582D01*
X-1689Y576D01*
X-1885D01*
X-1898Y573D01*
X-1909Y566D01*
X-1955Y520D01*
X-2070D01*
Y380D01*
X-1930D01*
Y450D01*
X-1871Y509D01*
X-1689D01*
X-1685Y503D01*
X-1666Y491D01*
X-1645Y486D01*
X-1624Y491D01*
X-1605Y503D01*
X-1593Y521D01*
X-1589Y543D01*
X-1593Y564D01*
X-1605Y582D01*
X-1624Y594D01*
X-1645Y599D01*
D02*
G37*
G36*
X-5523Y415D02*
X-5570D01*
Y328D01*
X-5587D01*
X-5589Y329D01*
X-5597Y331D01*
Y277D01*
Y224D01*
X-5589Y226D01*
X-5587Y227D01*
X-5570D01*
Y175D01*
X-5523D01*
Y295D01*
Y415D01*
D02*
G37*
G36*
X877Y509D02*
X707D01*
Y319D01*
X877D01*
Y381D01*
X955D01*
X959Y374D01*
X977Y362D01*
X999Y358D01*
X1020Y362D01*
X1039Y374D01*
X1051Y392D01*
X1055Y414D01*
X1051Y435D01*
X1039Y454D01*
X1020Y466D01*
X999Y470D01*
X977Y466D01*
X959Y454D01*
X955Y447D01*
X877D01*
Y509D01*
D02*
G37*
G36*
X-5510Y1144D02*
X-5531Y1139D01*
X-5550Y1127D01*
X-5562Y1109D01*
X-5566Y1088D01*
X-5562Y1066D01*
X-5550Y1048D01*
X-5543Y1044D01*
Y770D01*
X-5570D01*
Y530D01*
X-5450D01*
Y530D01*
X-5443D01*
X-5441Y530D01*
X-5441Y530D01*
Y530D01*
X-5323D01*
Y770D01*
X-5354D01*
Y789D01*
X-5348Y793D01*
X-5336Y811D01*
X-5331Y832D01*
X-5336Y854D01*
X-5348Y872D01*
X-5366Y884D01*
X-5388Y889D01*
X-5409Y884D01*
X-5427Y872D01*
X-5439Y854D01*
X-5444Y832D01*
X-5439Y811D01*
X-5427Y793D01*
X-5421Y789D01*
Y770D01*
X-5441D01*
X-5441Y770D01*
Y770D01*
X-5443Y770D01*
X-5446D01*
X-5450D01*
X-5452Y770D01*
X-5452Y770D01*
Y770D01*
X-5477D01*
Y1044D01*
X-5470Y1048D01*
X-5458Y1066D01*
X-5454Y1088D01*
X-5458Y1109D01*
X-5470Y1127D01*
X-5489Y1139D01*
X-5510Y1144D01*
D02*
G37*
G36*
X-1930Y720D02*
X-2070D01*
Y580D01*
X-1930D01*
Y617D01*
X-1597D01*
X-1595Y613D01*
X-1576Y601D01*
X-1555Y596D01*
X-1534Y601D01*
X-1515Y613D01*
X-1503Y631D01*
X-1499Y653D01*
X-1503Y674D01*
X-1515Y692D01*
X-1534Y704D01*
X-1555Y709D01*
X-1576Y704D01*
X-1595Y692D01*
X-1601Y683D01*
X-1930D01*
Y720D01*
D02*
G37*
G36*
X872Y774D02*
X702D01*
Y584D01*
X872D01*
Y646D01*
X950D01*
X954Y639D01*
X972Y627D01*
X994Y623D01*
X1015Y627D01*
X1034Y639D01*
X1046Y657D01*
X1050Y679D01*
X1046Y700D01*
X1034Y719D01*
X1015Y731D01*
X994Y735D01*
X972Y731D01*
X954Y719D01*
X950Y712D01*
X872D01*
Y774D01*
D02*
G37*
G36*
X-30Y720D02*
X-170D01*
Y580D01*
X-30D01*
Y720D01*
D02*
G37*
G36*
Y1120D02*
X-170D01*
Y980D01*
X-35D01*
X290Y655D01*
X290D01*
X290Y655D01*
X290Y655D01*
Y655D01*
X301Y648D01*
X314Y646D01*
X512D01*
Y584D01*
X682D01*
Y774D01*
X512D01*
Y712D01*
X327D01*
X-30Y1070D01*
Y1120D01*
D02*
G37*
G36*
X-1930Y320D02*
X-2070D01*
Y180D01*
X-1930D01*
Y214D01*
X-1899D01*
X-1895Y208D01*
X-1876Y196D01*
X-1855Y191D01*
X-1834Y196D01*
X-1815Y208D01*
X-1803Y226D01*
X-1799Y247D01*
X-1803Y269D01*
X-1815Y287D01*
X-1834Y299D01*
X-1855Y304D01*
X-1876Y299D01*
X-1895Y287D01*
X-1899Y281D01*
X-1930D01*
Y320D01*
D02*
G37*
G36*
X-1462Y453D02*
X-1723D01*
Y208D01*
X-1462Y208D01*
Y453D01*
D02*
G37*
G36*
X-5450Y415D02*
Y415D01*
X-5497D01*
Y295D01*
Y175D01*
X-5450D01*
Y175D01*
X-5450D01*
X-5450Y175D01*
X-5443D01*
Y175D01*
X-5396D01*
Y295D01*
Y415D01*
X-5443D01*
D01*
D01*
X-5443Y415D01*
X-5450D01*
D02*
G37*
G36*
X-30Y320D02*
X-170D01*
Y180D01*
X-30D01*
Y320D01*
D02*
G37*
G36*
X-5623Y265D02*
X-5664D01*
X-5662Y256D01*
X-5650Y238D01*
X-5631Y226D01*
X-5623Y224D01*
Y265D01*
D02*
G37*
G36*
X-5323Y415D02*
X-5370D01*
Y308D01*
X-5323D01*
Y415D01*
D02*
G37*
G36*
X-30Y920D02*
X-170D01*
Y780D01*
X-30D01*
X-30Y780D01*
Y780D01*
X-26Y782D01*
X365Y390D01*
X376Y383D01*
X389Y381D01*
X517D01*
Y319D01*
X687D01*
Y509D01*
X517D01*
Y447D01*
X402D01*
X-24Y874D01*
X-30Y878D01*
Y920D01*
D02*
G37*
G36*
X-3981Y417D02*
X-4006Y414D01*
X-4029Y404D01*
X-4049Y389D01*
X-4064Y369D01*
X-4074Y346D01*
X-4077Y322D01*
X-4074Y297D01*
X-4064Y274D01*
X-4049Y254D01*
X-4029Y239D01*
X-4006Y229D01*
X-3981Y226D01*
X-3957Y229D01*
X-3934Y239D01*
X-3914Y254D01*
X-3899Y274D01*
X-3889Y297D01*
X-3886Y322D01*
X-3889Y346D01*
X-3899Y369D01*
X-3914Y389D01*
X-3934Y404D01*
X-3957Y414D01*
X-3981Y417D01*
D02*
G37*
G36*
X-5623Y331D02*
X-5631Y329D01*
X-5650Y317D01*
X-5662Y299D01*
X-5664Y290D01*
X-5623D01*
Y331D01*
D02*
G37*
G36*
X-472Y920D02*
X-750D01*
Y662D01*
X-478D01*
X-472Y657D01*
Y920D01*
D02*
G37*
G36*
X-3981Y1687D02*
X-4006Y1684D01*
X-4029Y1674D01*
X-4049Y1659D01*
X-4064Y1639D01*
X-4074Y1616D01*
X-4077Y1592D01*
X-4074Y1567D01*
X-4064Y1544D01*
X-4049Y1524D01*
X-4029Y1509D01*
X-4006Y1499D01*
X-3981Y1496D01*
X-3957Y1499D01*
X-3934Y1509D01*
X-3914Y1524D01*
X-3899Y1544D01*
X-3889Y1567D01*
X-3886Y1592D01*
X-3889Y1616D01*
X-3899Y1639D01*
X-3914Y1659D01*
X-3934Y1674D01*
X-3957Y1684D01*
X-3981Y1687D01*
D02*
G37*
G36*
X-3388Y1698D02*
X-3413Y1695D01*
X-3436Y1685D01*
X-3456Y1670D01*
X-3471Y1650D01*
X-3481Y1627D01*
X-3484Y1602D01*
X-3481Y1578D01*
X-3471Y1555D01*
X-3456Y1535D01*
X-3436Y1520D01*
X-3413Y1510D01*
X-3388Y1507D01*
X-3364Y1510D01*
X-3341Y1520D01*
X-3321Y1535D01*
X-3306Y1555D01*
X-3296Y1578D01*
X-3293Y1602D01*
X-3296Y1627D01*
X-3306Y1650D01*
X-3321Y1670D01*
X-3341Y1685D01*
X-3364Y1695D01*
X-3388Y1698D01*
D02*
G37*
G36*
X-3981Y1433D02*
X-4006Y1430D01*
X-4029Y1420D01*
X-4049Y1405D01*
X-4064Y1385D01*
X-4074Y1362D01*
X-4077Y1338D01*
X-4074Y1313D01*
X-4064Y1290D01*
X-4049Y1270D01*
X-4029Y1255D01*
X-4006Y1245D01*
X-3981Y1242D01*
X-3957Y1245D01*
X-3934Y1255D01*
X-3914Y1270D01*
X-3899Y1290D01*
X-3889Y1313D01*
X-3886Y1338D01*
X-3889Y1362D01*
X-3899Y1385D01*
X-3914Y1405D01*
X-3934Y1420D01*
X-3957Y1430D01*
X-3981Y1433D01*
D02*
G37*
G36*
X-1930Y1520D02*
X-2070D01*
Y1380D01*
X-1930D01*
Y1520D01*
D02*
G37*
G36*
Y1720D02*
X-2070D01*
Y1580D01*
X-1930D01*
Y1720D01*
D02*
G37*
G36*
X-1578Y1707D02*
X-1617D01*
Y1668D01*
X-1609Y1670D01*
X-1592Y1682D01*
X-1580Y1699D01*
X-1578Y1707D01*
D02*
G37*
G36*
X-1523D02*
X-1562D01*
X-1560Y1699D01*
X-1548Y1682D01*
X-1531Y1670D01*
X-1523Y1668D01*
Y1707D01*
D02*
G37*
G36*
X1210Y1663D02*
X970D01*
Y1622D01*
X908D01*
X904Y1628D01*
X885Y1640D01*
X864Y1645D01*
X843Y1640D01*
X824Y1628D01*
X812Y1610D01*
X808Y1588D01*
X812Y1567D01*
X824Y1549D01*
X843Y1537D01*
X864Y1532D01*
X885Y1537D01*
X904Y1549D01*
X908Y1555D01*
X970D01*
Y1514D01*
X1210D01*
Y1663D01*
D02*
G37*
G36*
X-1643Y1707D02*
X-1682D01*
X-1680Y1699D01*
X-1668Y1682D01*
X-1651Y1670D01*
X-1643Y1668D01*
Y1707D01*
D02*
G37*
G36*
X872Y1044D02*
X702D01*
Y854D01*
X872D01*
Y916D01*
X935D01*
X939Y909D01*
X957Y897D01*
X979Y893D01*
X1000Y897D01*
X1019Y909D01*
X1031Y927D01*
X1035Y949D01*
X1031Y970D01*
X1019Y989D01*
X1000Y1001D01*
X979Y1005D01*
X957Y1001D01*
X939Y989D01*
X935Y982D01*
X872D01*
Y1044D01*
D02*
G37*
G36*
X-1930Y1120D02*
X-2070D01*
Y980D01*
X-1930D01*
Y1014D01*
X-1261D01*
X-1257Y1008D01*
X-1239Y996D01*
X-1218Y991D01*
X-1196Y996D01*
X-1178Y1008D01*
X-1166Y1026D01*
X-1161Y1048D01*
X-1166Y1069D01*
X-1178Y1087D01*
X-1196Y1099D01*
X-1218Y1104D01*
X-1239Y1099D01*
X-1257Y1087D01*
X-1261Y1081D01*
X-1930D01*
Y1120D01*
D02*
G37*
G36*
Y920D02*
X-2070D01*
Y780D01*
X-1930D01*
Y817D01*
X-1496D01*
X-1492Y810D01*
X-1474Y798D01*
X-1452Y794D01*
X-1431Y798D01*
X-1413Y810D01*
X-1401Y829D01*
X-1396Y850D01*
X-1401Y871D01*
X-1413Y890D01*
X-1431Y902D01*
X-1452Y906D01*
X-1474Y902D01*
X-1492Y890D01*
X-1496Y883D01*
X-1930D01*
Y920D01*
D02*
G37*
G36*
X-30Y1320D02*
X-170D01*
Y1180D01*
X-37D01*
X217Y925D01*
X217D01*
X217Y925D01*
X217D01*
X217Y925D01*
Y925D01*
X217Y925D01*
Y925D01*
X228Y918D01*
X241Y916D01*
X512D01*
Y854D01*
X682D01*
Y1044D01*
X512D01*
Y982D01*
X255D01*
X-30Y1267D01*
Y1320D01*
D02*
G37*
G36*
X-2360Y1675D02*
X-2600D01*
Y1035D01*
X-2360D01*
Y1675D01*
D02*
G37*
G36*
X-3547Y1698D02*
X-3738D01*
Y1507D01*
X-3676D01*
Y1216D01*
X-3775Y1117D01*
X-3892D01*
X-3899Y1131D01*
X-3914Y1151D01*
X-3934Y1166D01*
X-3957Y1176D01*
X-3981Y1179D01*
X-4006Y1176D01*
X-4029Y1166D01*
X-4049Y1151D01*
X-4064Y1131D01*
X-4074Y1108D01*
X-4077Y1084D01*
X-4074Y1059D01*
X-4064Y1036D01*
X-4049Y1016D01*
X-4029Y1001D01*
X-4006Y991D01*
X-3981Y988D01*
X-3957Y991D01*
X-3934Y1001D01*
X-3914Y1016D01*
X-3899Y1036D01*
X-3892Y1050D01*
X-3761D01*
X-3749Y1053D01*
X-3738Y1060D01*
X-3738Y1060D01*
X-3738Y1060D01*
X-3619Y1179D01*
X-3612Y1190D01*
X-3612Y1190D01*
X-3612Y1190D01*
X-3609Y1202D01*
Y1507D01*
X-3547D01*
Y1698D01*
D02*
G37*
G36*
X-4743Y1433D02*
X-4768Y1430D01*
X-4791Y1420D01*
X-4811Y1405D01*
X-4826Y1385D01*
X-4836Y1362D01*
X-4839Y1338D01*
X-4836Y1313D01*
X-4826Y1290D01*
X-4811Y1270D01*
X-4791Y1255D01*
X-4768Y1245D01*
X-4743Y1242D01*
X-4719Y1245D01*
X-4696Y1255D01*
X-4676Y1270D01*
X-4661Y1290D01*
X-4651Y1313D01*
X-4648Y1338D01*
X-4651Y1362D01*
X-4661Y1385D01*
X-4676Y1405D01*
X-4696Y1420D01*
X-4719Y1430D01*
X-4743Y1433D01*
D02*
G37*
G36*
X869Y1314D02*
X699D01*
Y1124D01*
X869D01*
Y1186D01*
X943D01*
X947Y1179D01*
X965Y1167D01*
X986Y1163D01*
X1008Y1167D01*
X1026Y1179D01*
X1038Y1198D01*
X1043Y1219D01*
X1038Y1240D01*
X1026Y1259D01*
X1008Y1271D01*
X986Y1275D01*
X965Y1271D01*
X947Y1259D01*
X943Y1252D01*
X869D01*
Y1314D01*
D02*
G37*
G36*
X-1930Y1320D02*
X-2070D01*
Y1180D01*
X-1930D01*
Y1320D01*
D02*
G37*
%LPD*%
D10*
X594Y1219D02*
D03*
X784D02*
D03*
X597Y949D02*
D03*
X787D02*
D03*
X597Y679D02*
D03*
X787D02*
D03*
X602Y414D02*
D03*
X792D02*
D03*
X919Y-2219D02*
D03*
X729D02*
D03*
X927Y-1929D02*
D03*
X737D02*
D03*
X-2686Y-861D02*
D03*
X-2876D02*
D03*
D11*
X-4962Y2056D02*
D03*
Y1886D02*
D03*
X550Y2704D02*
D03*
Y2874D02*
D03*
X163Y2868D02*
D03*
Y2698D02*
D03*
X-1315Y-1006D02*
D03*
Y-836D02*
D03*
X-2653Y-543D02*
D03*
Y-373D02*
D03*
X-5452Y-854D02*
D03*
Y-1024D02*
D03*
X-5212Y-1044D02*
D03*
Y-1214D02*
D03*
X-3992Y-1419D02*
D03*
Y-1589D02*
D03*
X-3240Y-1364D02*
D03*
Y-1534D02*
D03*
D12*
X299Y-1925D02*
D03*
X469D02*
D03*
X297Y-2212D02*
D03*
X467D02*
D03*
X-5151Y3623D02*
D03*
X-4981D02*
D03*
X-3411Y2343D02*
D03*
X-3241D02*
D03*
X-3262Y-855D02*
D03*
X-3432D02*
D03*
X-5067Y-2088D02*
D03*
X-5237D02*
D03*
D13*
X-4292Y-1403D02*
D03*
Y-1276D02*
D03*
Y-1149D02*
D03*
Y-1022D02*
D03*
X-4772Y-1403D02*
D03*
Y-1276D02*
D03*
Y-1149D02*
D03*
Y-1022D02*
D03*
D14*
X-3994Y-2239D02*
D03*
Y-2049D02*
D03*
D15*
X-4922Y-480D02*
D03*
Y0D02*
D03*
X-2700Y-1392D02*
D03*
Y-1873D02*
D03*
D16*
X-3443Y-362D02*
D03*
X-2962D02*
D03*
D17*
X-2777Y2902D02*
D03*
X-2377D02*
D03*
X-2777Y3583D02*
D03*
X-3577Y2902D02*
D03*
X-3177D02*
D03*
X-3577Y3583D02*
D03*
D18*
X-2377Y3583D02*
D03*
X-3177Y3583D02*
D03*
D19*
X1090Y1588D02*
D03*
X200D02*
D03*
Y2350D02*
D03*
Y2096D02*
D03*
Y1842D02*
D03*
X1090D02*
D03*
Y2096D02*
D03*
Y2350D02*
D03*
D20*
X-782Y-1465D02*
D03*
X-1733D02*
D03*
D21*
X-2480Y2305D02*
D03*
Y1355D02*
D03*
D22*
X-5383Y295D02*
D03*
X-5510D02*
D03*
X-5383Y650D02*
D03*
X-5510D02*
D03*
D23*
X-3770Y-367D02*
D03*
D24*
X-4430Y-597D02*
D03*
Y-367D02*
D03*
D25*
Y-138D02*
D03*
D26*
X-5508Y-60D02*
D03*
Y-510D02*
D03*
D27*
X-4598Y-1865D02*
D03*
X-4503Y-1630D02*
D03*
D28*
X-4693D02*
D03*
D29*
X-5112Y-1867D02*
D03*
X-5303D02*
D03*
Y-1627D02*
D03*
X-5208D02*
D03*
X-5112D02*
D03*
D30*
X-3455Y-1150D02*
D03*
D31*
X-3550Y-1150D02*
D03*
X-3645D02*
D03*
Y-1365D02*
D03*
X-3455D02*
D03*
D32*
X-1850Y2900D02*
D03*
X-1650D02*
D03*
X-1450D02*
D03*
X-1250D02*
D03*
X-1050D02*
D03*
X-850D02*
D03*
X-650D02*
D03*
X-450D02*
D03*
X-250D02*
D03*
X-100Y2650D02*
D03*
Y2450D02*
D03*
Y2250D02*
D03*
Y2050D02*
D03*
Y1850D02*
D03*
Y1650D02*
D03*
Y1450D02*
D03*
Y1250D02*
D03*
Y1050D02*
D03*
Y850D02*
D03*
Y650D02*
D03*
Y450D02*
D03*
Y250D02*
D03*
X-250Y100D02*
D03*
X-450D02*
D03*
X-650D02*
D03*
X-850D02*
D03*
X-1050D02*
D03*
X-1250D02*
D03*
X-1450D02*
D03*
X-1650D02*
D03*
X-1850D02*
D03*
X-2000Y250D02*
D03*
Y450D02*
D03*
Y650D02*
D03*
Y850D02*
D03*
Y1050D02*
D03*
Y1250D02*
D03*
Y1450D02*
D03*
Y1650D02*
D03*
Y1850D02*
D03*
Y2050D02*
D03*
Y2250D02*
D03*
Y2450D02*
D03*
Y2650D02*
D03*
D33*
X-560Y-335D02*
D03*
Y-715D02*
D03*
D34*
X-5828Y2732D02*
D03*
Y3483D02*
D03*
D35*
X-5648Y2747D02*
D03*
Y2788D02*
D03*
Y2828D02*
D03*
Y2868D02*
D03*
Y2908D02*
D03*
Y2948D02*
D03*
Y2988D02*
D03*
Y3028D02*
D03*
Y3068D02*
D03*
Y3108D02*
D03*
Y3148D02*
D03*
Y3188D02*
D03*
Y3228D02*
D03*
Y3267D02*
D03*
Y3308D02*
D03*
Y3347D02*
D03*
Y3388D02*
D03*
Y3428D02*
D03*
Y3467D02*
D03*
D36*
X-3564Y3499D02*
X-3447D01*
X-3577Y3512D02*
X-3564Y3499D01*
X-2136Y-319D02*
X-2043Y-412D01*
X-1375D01*
X-1320Y-468D01*
D37*
X-3577Y2902D02*
Y3512D01*
X-2783Y3588D02*
X-2777Y3583D01*
X-3017Y3588D02*
X-2783D01*
X-2777Y2902D02*
Y3583D01*
X163Y2868D02*
X164Y2870D01*
X315D01*
X-1315Y-1006D02*
X-1214D01*
X-1212Y-1007D01*
X294Y-2215D02*
X297Y-2212D01*
X-4926Y2100D02*
X-4743D01*
X-4962Y2063D02*
X-4926Y2100D01*
X-5346Y3428D02*
X-5151Y3623D01*
X-3820Y2223D02*
Y2975D01*
X-5303Y-1627D02*
Y-1543D01*
X-5270Y-1510D01*
X-5142D01*
X-5112Y-1540D01*
Y-1627D02*
Y-1540D01*
X-4772Y-1403D02*
X-4715D01*
X-3448Y-367D02*
X-3443Y-362D01*
X-3770Y-367D02*
X-3448D01*
X-3443Y-543D02*
Y-362D01*
Y-543D02*
X-3442Y-543D01*
X-4715Y-1593D02*
X-4678Y-1630D01*
X-4715Y-1593D02*
Y-1403D01*
X-5112Y-1627D02*
X-4817D01*
X-3472Y-827D02*
X-3432Y-868D01*
X-1212Y-1007D02*
X-932D01*
X-832Y-907D01*
X-1315Y-1093D02*
Y-1006D01*
X-1745Y-1218D02*
X-1440D01*
X-1315Y-1093D01*
X-102Y-1942D02*
X302D01*
Y-2207D02*
Y-1942D01*
X-4430Y-367D02*
X-4218D01*
X-3770D01*
X-4218D02*
Y-92D01*
X-4378Y68D02*
X-4218Y-92D01*
X-4378Y68D02*
Y1593D01*
X-5265Y3623D02*
X-5151D01*
X-5272Y3630D02*
X-5265Y3623D01*
X-120Y-1925D02*
Y-1620D01*
X-832Y-907D02*
X-120Y-1620D01*
X-4817Y-1627D02*
X-4680D01*
X-3443Y-857D02*
Y-543D01*
X-3442Y-543D02*
X-2653D01*
X-2643D01*
D38*
X-3383Y2865D02*
X-3225D01*
X-3177Y2902D02*
Y3583D01*
X-3708Y2750D02*
Y3592D01*
X-3878Y3762D02*
X-3708Y3592D01*
X-4635Y3762D02*
X-3878D01*
X-4774Y3624D02*
X-4635Y3762D01*
X-3597Y2640D02*
X-2990D01*
X-3708Y2750D02*
X-3597Y2640D01*
X-2377Y2902D02*
Y3583D01*
X-100Y1850D02*
X157Y2107D01*
X203D01*
X-100Y2050D02*
X203Y2352D01*
Y2360D01*
X-100Y1650D02*
X103Y1852D01*
X203D01*
X-100Y2450D02*
X-86D01*
X169Y2704D01*
X550D01*
X-100Y1450D02*
X-57D01*
X174Y1219D01*
X594D01*
X-100Y1250D02*
X-60D01*
X241Y949D01*
X597D01*
X-100Y1050D02*
X-57D01*
X314Y679D01*
X597D01*
X-100Y850D02*
X-47D01*
X389Y414D01*
X602D01*
X864Y1588D02*
X1090D01*
X784Y1219D02*
X986D01*
X787Y949D02*
X979D01*
X787Y679D02*
X994D01*
X792Y414D02*
X999D01*
X-700Y-1440D02*
Y-1240D01*
X467Y-2212D02*
X723D01*
X729Y-2219D01*
X473Y-1929D02*
X754D01*
X469Y-1925D02*
X473Y-1929D01*
X919Y-2219D02*
X1159D01*
X927Y-1929D02*
X1156D01*
X-1450Y-1005D02*
Y-678D01*
X-1565Y-562D02*
X-1450Y-678D01*
X-6Y-1108D02*
Y-1060D01*
X-1377Y-215D02*
Y-60D01*
X-1375Y-57D01*
X-1997Y247D02*
X-1855D01*
X-2000Y250D02*
X-1997Y247D01*
X-2000Y450D02*
X-1990Y460D01*
X-2000Y650D02*
X-1558D01*
X-1555Y653D01*
X-2000Y850D02*
X-1453D01*
X-1452Y850D01*
X-1997Y1048D02*
X-1218D01*
X-2000Y1050D02*
X-1997Y1048D01*
X200Y1588D02*
X200Y1588D01*
X-262Y1488D02*
X-198Y1552D01*
X195D01*
X200Y1438D02*
Y1548D01*
Y1588D01*
X195Y1552D02*
X200Y1548D01*
X-650Y100D02*
X-450D01*
X-1870Y2048D02*
X-1765Y2153D01*
X-1088D01*
X-2583Y2902D02*
X-2377D01*
X-3642Y1202D02*
Y1602D01*
X-3761Y1084D02*
X-3642Y1202D01*
X-4012Y1084D02*
X-3761D01*
X-5648Y3188D02*
X-5135D01*
X-5648Y3228D02*
X-5075D01*
X-5648Y3148D02*
X-5162D01*
X-4981Y1084D02*
X-4774D01*
X-5010Y830D02*
X-4774D01*
X-5648Y3068D02*
X-5253D01*
X-5648Y3108D02*
X-5208D01*
X-5648Y3028D02*
X-5308D01*
X-5648Y2988D02*
X-5340D01*
X-5278Y2925D01*
Y2258D02*
Y2925D01*
X-5390Y2948D02*
X-5347Y2905D01*
Y2502D02*
Y2905D01*
X-5648Y2948D02*
X-5390D01*
X-5648Y2908D02*
X-5455D01*
X-5420Y2873D01*
X-5300Y2235D02*
X-5278Y2258D01*
X-3870Y1977D02*
X-3509D01*
X-3388Y1857D01*
X-5420Y2070D02*
Y2454D01*
X-5420Y2454D02*
X-5420Y2454D01*
X-5420Y2454D02*
Y2511D01*
X-5420Y2511D01*
X-5648Y2828D02*
X-5495D01*
X-5420Y2752D01*
Y2511D02*
Y2752D01*
X-5520Y2788D02*
X-5472Y2740D01*
X-5420Y2070D02*
X-5328Y1977D01*
X-5648Y2747D02*
X-5577D01*
X-4981Y3623D02*
X-4744D01*
X-4743Y3624D01*
X-4910Y3308D02*
X-4842Y3240D01*
X-3981Y3624D02*
X-3926D01*
X-3853Y3550D01*
Y3303D02*
Y3550D01*
X-3915Y3240D02*
X-3853Y3303D01*
X-5648Y3347D02*
X-5015D01*
X-4865Y3497D01*
X-4109D01*
X-3981Y3370D01*
X-4842Y3240D02*
X-3915D01*
X-4230Y210D02*
Y3170D01*
Y210D02*
X-4145Y125D01*
X-4300Y152D02*
X-4203Y55D01*
X-4145Y125D02*
X-2475D01*
X-4203Y55D02*
X-2598D01*
X-5388Y656D02*
Y832D01*
X-5393Y650D02*
X-5388Y656D01*
X-5510Y660D02*
Y1088D01*
X-5520Y650D02*
X-5510Y660D01*
X-4475Y1338D02*
Y1588D01*
X-4603Y1715D02*
X-4475Y1588D01*
X-4890Y1715D02*
X-4603D01*
X-5648Y2788D02*
X-5520D01*
X-5577Y2747D02*
X-5522Y2692D01*
X-5472Y1925D02*
Y2740D01*
X-5303Y1212D02*
Y1755D01*
X-5472Y1925D02*
X-5303Y1755D01*
X-4071Y1977D02*
X-3870D01*
X-4145Y1902D02*
X-4071Y1977D01*
X-3134Y994D02*
Y1602D01*
Y994D02*
X-3062Y923D01*
X-5217Y-1024D02*
X-5212Y-1029D01*
X-5557Y-11D02*
X-5508Y-60D01*
X-5245Y-1024D02*
X-5243Y-1022D01*
X-5452Y-1024D02*
X-5245D01*
X-5243Y-1022D02*
X-4772D01*
X-4292Y-1403D02*
Y-1276D01*
Y-1403D02*
X-4009D01*
X-3992Y-1419D01*
Y-2015D02*
Y-1589D01*
X-3262Y-868D02*
X-2852D01*
X-2846Y-874D01*
X-3455Y-1365D02*
X-3241D01*
X-5084Y-2088D02*
X-5084Y-2088D01*
X-5067Y-2110D02*
Y-2088D01*
X-5084D02*
X-5067D01*
X-4935D01*
X-3195Y-1364D02*
X-2722D01*
X-2700Y-1342D01*
X-4510Y-1608D02*
X-4488Y-1630D01*
X-4772Y-1276D02*
X-4597D01*
X-4510Y-1362D01*
Y-1608D02*
Y-1362D01*
X-4938Y-1215D02*
X-4872Y-1149D01*
X-4772D01*
X-4475Y332D02*
Y1338D01*
X-5522Y1715D02*
Y2692D01*
X-4475Y-1105D02*
Y-823D01*
Y-1105D02*
X-4431Y-1149D01*
X-4292D01*
X-1827Y1400D02*
X-1088D01*
X-640D01*
X-1088D02*
Y2153D01*
X-2452Y-885D02*
Y-90D01*
X-2598Y55D02*
X-2452Y-90D01*
X-2377Y-1350D02*
X-2327Y-1400D01*
X-2315Y-1150D02*
X-2202Y-1262D01*
X-3241Y-1365D02*
X-3202Y-1404D01*
X-3241Y-1365D02*
Y-1244D01*
X-3272Y-1212D02*
X-3241Y-1244D01*
X-1650Y-1440D02*
X-1265D01*
X-1188Y-1362D01*
Y-1188D01*
X-1202Y-1173D02*
X-1188Y-1188D01*
X-5755Y2868D02*
X-5648D01*
X-5820Y2933D02*
Y3250D01*
X-5817Y2930D02*
X-5755Y2868D01*
X-5915Y3388D02*
X-5648D01*
X-5920Y3383D02*
X-5915Y3388D01*
X-4938Y-1527D02*
Y-1215D01*
X-3062Y923D02*
X-2458D01*
X-2315Y780D01*
Y-1150D02*
Y780D01*
X-458Y-1014D02*
Y-929D01*
Y-1014D02*
X-278Y-1195D01*
X-93D01*
X-6Y-1108D01*
X-2377Y-1350D02*
Y-951D01*
X-2377Y-951D01*
Y27D01*
X-2475Y125D02*
X-2377Y27D01*
X-5648Y3308D02*
X-4910D01*
X-5648Y3267D02*
X-5003D01*
X-4872Y2961D02*
X-4774Y2862D01*
X-4872Y2961D02*
Y3138D01*
X-5003Y3267D02*
X-4872Y3138D01*
X-5075Y3228D02*
X-4935Y3088D01*
Y2769D02*
Y3088D01*
Y2769D02*
X-4774Y2608D01*
X-5135Y3188D02*
X-4988Y3040D01*
X-5055Y1157D02*
X-4981Y1084D01*
X-5055Y1157D02*
Y3040D01*
X-5162Y3148D02*
X-5055Y3040D01*
X-5110Y930D02*
X-5010Y830D01*
X-5110Y930D02*
Y3010D01*
X-5208Y3108D02*
X-5110Y3010D01*
X-5253Y3068D02*
X-5162Y2977D01*
X-5308Y3028D02*
X-5212Y2933D01*
X-4988Y2568D02*
Y3040D01*
Y2568D02*
X-4774Y2354D01*
X-5162Y700D02*
Y2977D01*
Y700D02*
X-5038Y576D01*
X-4774D01*
X-5212Y465D02*
Y2933D01*
Y465D02*
X-5069Y322D01*
X-4774D01*
X-4145Y993D02*
Y1902D01*
Y993D02*
X-3981Y830D01*
X-4743Y3116D02*
X-4433D01*
X-4300Y2983D01*
Y152D02*
Y2983D01*
X-3241Y2343D02*
X-3075D01*
X-2990Y2427D01*
Y2640D01*
X-560Y-335D02*
X-430D01*
X-2202Y-1262D02*
X-1900D01*
X-1692Y-1055D01*
X-1530D01*
X-1980Y-1048D02*
X-1885D01*
X-1655Y-818D01*
X-1543D01*
X-1980Y-1138D02*
X-1875D01*
X-1655Y-918D01*
X-1538D01*
X-2000Y1850D02*
X-1968D01*
X-1902Y1915D01*
X-1205D01*
X-262Y503D02*
Y1488D01*
Y503D02*
X-210Y450D01*
X-100D01*
X-450Y100D02*
X-347Y203D01*
Y1107D01*
X-640Y1400D02*
X-347Y1107D01*
X-1990Y460D02*
X-1967D01*
X-1885Y543D01*
X-1645D01*
X-5112Y-2059D02*
X-5084Y-2088D01*
X-5112Y-2059D02*
Y-1867D01*
D39*
X948Y2874D02*
X1090Y2733D01*
X550Y2874D02*
X948D01*
X1090Y1842D02*
Y2096D01*
Y2350D01*
Y2733D01*
X-1315Y-836D02*
Y-712D01*
X424Y3000D02*
X550Y2874D01*
X-1850Y2900D02*
X-1650D01*
X-1450D02*
X-1250D01*
X-1050D01*
X-850D01*
X-650D01*
X-450D01*
X-1050Y100D02*
X-850D01*
X-2143Y2099D02*
Y2804D01*
X-2047Y2900D01*
X-1850D01*
X-1650D02*
X-1450D01*
X495Y-28D02*
X497Y-25D01*
X-850Y70D02*
Y100D01*
Y70D02*
X-753Y-28D01*
X495D01*
X-1080Y-468D02*
Y70D01*
X-1050Y100D01*
X-4012Y2100D02*
X-3997Y2085D01*
X-3134Y1857D02*
Y2081D01*
X-3130Y2085D01*
X-2660D01*
X-4915Y1846D02*
X-4743D01*
X-4962Y1893D02*
X-4915Y1846D01*
X-5747Y3650D02*
X-5648Y3550D01*
X-6197Y3650D02*
X-5747D01*
X-6197Y2575D02*
Y3650D01*
X-6208Y2565D02*
X-6197Y2575D01*
X-3411Y2142D02*
Y2343D01*
X-3412Y2140D02*
X-3411Y2142D01*
X-3412Y2088D02*
Y2140D01*
X-3415Y2085D02*
X-3412Y2088D01*
X-3997Y2085D02*
X-3415D01*
X-3130D01*
X-5960Y-980D02*
Y-524D01*
X-5965Y-519D02*
X-5960Y-524D01*
Y-1234D02*
X-5767Y-1427D01*
X-5452Y-854D02*
Y-565D01*
X-5508Y-510D02*
X-5452Y-565D01*
X-5928Y-1232D02*
X-5215D01*
X-5960Y-1234D02*
X-5925Y-1199D01*
X-5767Y-2073D02*
Y-1427D01*
X-6010Y-980D02*
X-5960D01*
X-6120Y-1640D02*
X-5960Y-1800D01*
X-6120Y-1640D02*
Y-1090D01*
X-6010Y-980D01*
X-5965Y-11D02*
X-5557D01*
X-5508Y-510D02*
X-4952D01*
X-4922Y-480D01*
X-4887Y-597D02*
X-4430D01*
X-4887D02*
Y-515D01*
X-4922Y-480D02*
X-4887Y-515D01*
X-2962Y-362D02*
X-2653D01*
X-2643Y-373D01*
X-4583Y-1865D02*
X-4298D01*
X-3645Y-1150D02*
Y-1018D01*
X-4430Y-597D02*
X-4068D01*
X-3647Y-1018D01*
X-3500D01*
X-3455Y-1062D01*
Y-1150D02*
Y-1062D01*
X-3550Y-1565D02*
Y-1150D01*
X-4292Y-1022D02*
X-3968D01*
X-3835Y-1155D01*
Y-1488D02*
Y-1155D01*
Y-1488D02*
X-3758Y-1565D01*
X-3230D01*
X-3976Y-2286D02*
X-3972Y-2290D01*
X-3225Y-1690D02*
X-3092Y-1823D01*
X-2700Y-2290D02*
Y-1873D01*
X-3972Y-2290D02*
X-2700D01*
X-1812Y-1862D02*
X-1362D01*
X-4407Y1925D02*
Y2100D01*
X-4487Y1846D02*
X-4407Y1925D01*
X-4743Y1846D02*
X-4487D01*
X-6208Y2565D02*
X-5753D01*
X-5747Y2570D01*
X-1320Y-588D02*
X-1200D01*
X-1080D01*
X-2136Y-294D02*
Y-79D01*
X-2220Y5D02*
X-2136Y-79D01*
X-2638Y-368D02*
Y-222D01*
X-2643Y-373D02*
X-2638Y-368D01*
X-3225Y-1690D02*
Y-1534D01*
X-2643Y-373D02*
X-2594D01*
X-820Y-730D02*
X-575D01*
X-560Y-715D01*
Y-1020D02*
Y-715D01*
Y-1020D02*
X-15Y-1565D01*
Y-1862D02*
Y-1565D01*
X-2594Y-373D02*
X-2530Y-438D01*
Y-882D02*
Y-438D01*
X-450Y2900D02*
X-35D01*
X65Y3000D01*
X424D01*
X-5400Y278D02*
X-5123Y0D01*
X-4922D01*
X-4568D01*
X-4430Y-138D01*
X-430Y-335D02*
X-206Y-559D01*
Y-810D02*
Y-559D01*
X-2656Y-874D02*
X-2533D01*
X-3092Y-1823D02*
X-2660D01*
X-2533Y-1695D01*
Y-874D01*
X-2700Y-2290D02*
X-1250D01*
X-1093Y-2133D01*
Y-1690D01*
X-5237Y-2201D02*
Y-2093D01*
Y-2201D02*
X-5147Y-2290D01*
X-3972D01*
X-5933Y-2081D02*
X-5240D01*
X-5208Y-2048D01*
Y-1627D01*
X-5610Y278D02*
X-5400D01*
D40*
X-5648Y3467D02*
Y3550D01*
Y3428D02*
X-5346D01*
D41*
X-6272Y2565D02*
G03*
X-6225Y2517I47J0D01*
G01*
X-6170D02*
G03*
X-6122Y2565I0J47D01*
G01*
D02*
G03*
X-6170Y2612I-47J0D01*
G01*
X-6225D02*
G03*
X-6272Y2565I0J-47D01*
G01*
Y3650D02*
G03*
X-6225Y3602I47J0D01*
G01*
X-6170D02*
G03*
X-6122Y3650I0J47D01*
G01*
D02*
G03*
X-6170Y3697I-47J0D01*
G01*
X-6225D02*
G03*
X-6272Y3650I0J-47D01*
G01*
X-5833Y2565D02*
G03*
X-5785Y2517I47J0D01*
G01*
X-5710D02*
G03*
X-5662Y2565I0J47D01*
G01*
D02*
G03*
X-5710Y2612I-47J0D01*
G01*
X-5785D02*
G03*
X-5833Y2565I0J-47D01*
G01*
Y3650D02*
G03*
X-5785Y3602I47J0D01*
G01*
X-5710D02*
G03*
X-5662Y3650I0J47D01*
G01*
D02*
G03*
X-5710Y3697I-47J0D01*
G01*
X-5785D02*
G03*
X-5833Y3650I0J-47D01*
G01*
X-6225Y2518D02*
X-6170D01*
X-6225Y2612D02*
X-6170D01*
X-6225Y3603D02*
X-6170D01*
X-6225Y3697D02*
X-6170D01*
X-5785Y2518D02*
X-5710D01*
X-5785Y2612D02*
X-5710D01*
X-5785Y3603D02*
X-5710D01*
X-5785Y3697D02*
X-5710D01*
D42*
X1105Y3075D02*
D03*
D43*
X265Y-335D02*
D03*
Y-1535D02*
D03*
D44*
X-6Y-810D02*
D03*
Y-1060D02*
D03*
X-206D02*
D03*
Y-810D02*
D03*
D45*
X-2136Y-294D02*
D03*
X-1883D02*
D03*
X-2136Y-548D02*
D03*
X-1883D02*
D03*
X-2136Y-802D02*
D03*
X-4743Y3370D02*
D03*
Y3116D02*
D03*
Y2862D02*
D03*
Y2608D02*
D03*
Y2354D02*
D03*
Y2100D02*
D03*
Y1846D02*
D03*
Y1592D02*
D03*
Y1338D02*
D03*
Y1084D02*
D03*
Y830D02*
D03*
Y576D02*
D03*
Y322D02*
D03*
X-3981Y3624D02*
D03*
Y3370D02*
D03*
Y3116D02*
D03*
Y2862D02*
D03*
Y2608D02*
D03*
Y2354D02*
D03*
Y2100D02*
D03*
Y1846D02*
D03*
Y1592D02*
D03*
Y1338D02*
D03*
Y1084D02*
D03*
Y830D02*
D03*
Y576D02*
D03*
Y322D02*
D03*
X-3134Y1857D02*
D03*
Y1602D02*
D03*
X-3388Y1857D02*
D03*
Y1602D02*
D03*
X-3642Y1857D02*
D03*
X-5960Y-1234D02*
D03*
X-5960Y-2054D02*
D03*
D46*
X-1883Y-802D02*
D03*
X-5960Y-980D02*
D03*
X-5960Y-1800D02*
D03*
D47*
X-4743Y3624D02*
D03*
X-3642Y1602D02*
D03*
D48*
X-5965Y-11D02*
D03*
D49*
Y-519D02*
D03*
D50*
X-5747Y2570D02*
D03*
Y3650D02*
D03*
D51*
X-6197D02*
D03*
X-6208Y2565D02*
D03*
D52*
X-3447Y3499D02*
D03*
X315Y2870D02*
D03*
X-820Y-730D02*
D03*
X-700Y-1240D02*
D03*
X999Y414D02*
D03*
X994Y679D02*
D03*
X979Y949D02*
D03*
X986Y1219D02*
D03*
X864Y1588D02*
D03*
X1090Y2733D02*
D03*
X-1190Y-1173D02*
D03*
X-1212Y-1007D02*
D03*
X1156Y-1929D02*
D03*
X1159Y-2219D02*
D03*
X-1543Y-818D02*
D03*
X-1538Y-918D02*
D03*
X-1450Y-1005D02*
D03*
X-1565Y-562D02*
D03*
X-458Y-929D02*
D03*
X-832Y-907D02*
D03*
X-1375Y-57D02*
D03*
X-1377Y-215D02*
D03*
X-2485Y1608D02*
D03*
X-1855Y247D02*
D03*
X-1645Y543D02*
D03*
X-1555Y653D02*
D03*
X-1452Y850D02*
D03*
X-1218Y1048D02*
D03*
X200Y1438D02*
D03*
X-1543Y2902D02*
D03*
X-1205Y1912D02*
D03*
X-1870Y2048D02*
D03*
X-1088Y2153D02*
D03*
X-2143Y2099D02*
D03*
X-1827Y1400D02*
D03*
X-3383Y2867D02*
D03*
X-2583Y2902D02*
D03*
X-1980Y-1048D02*
D03*
Y-1138D02*
D03*
X497Y-25D02*
D03*
X-2660Y2085D02*
D03*
X-2990Y2640D02*
D03*
X-5353Y2483D02*
D03*
X-5300Y2235D02*
D03*
X-5420Y2873D02*
D03*
X-5815Y3250D02*
D03*
X-5328Y1977D02*
D03*
X-3870Y1977D02*
D03*
X-5308Y1212D02*
D03*
X-5272Y3630D02*
D03*
X-3820Y2223D02*
D03*
Y2983D02*
D03*
X-3017Y3588D02*
D03*
X-2483Y2017D02*
D03*
X-4230Y3170D02*
D03*
X-2327Y-1400D02*
D03*
X-5388Y832D02*
D03*
X-5510Y1088D02*
D03*
X-4475Y1338D02*
D03*
X-4890Y1715D02*
D03*
X-5528D02*
D03*
X-5610Y278D02*
D03*
X-1530Y-1055D02*
D03*
X-115Y-1955D02*
D03*
X-4298Y-1865D02*
D03*
X-4935Y-1520D02*
D03*
Y-2088D02*
D03*
X-3442Y-543D02*
D03*
X-4817Y-1627D02*
D03*
X-4475Y332D02*
D03*
Y-823D02*
D03*
X-3250Y-1212D02*
D03*
X-1093Y-1690D02*
D03*
X-1745Y-1218D02*
D03*
X-15Y-1862D02*
D03*
X-1812D02*
D03*
X-1362D02*
D03*
X-4378Y1593D02*
D03*
X-4407Y2100D02*
D03*
X-5920Y3383D02*
D03*
X-2220Y5D02*
D03*
X-2638Y-222D02*
D03*
X-2445Y-923D02*
D03*
D53*
X-1630Y1720D02*
D03*
X-1510D02*
D03*
X-1630Y1840D02*
D03*
X-1510D02*
D03*
X-1080Y-707D02*
D03*
Y-588D02*
D03*
Y-468D02*
D03*
X-1200Y-707D02*
D03*
Y-588D02*
D03*
Y-468D02*
D03*
X-1320Y-707D02*
D03*
Y-588D02*
D03*
Y-468D02*
D03*
M02*
