%FSLAX42Y42*%
%MOMM*%
G71*
G01*
G75*
%ADD10R,1.30X1.50*%
%ADD11R,1.00X1.10*%
%ADD12R,1.10X1.00*%
%ADD13O,2.20X0.60*%
%ADD14R,1.50X1.30*%
%ADD15R,1.40X3.00*%
%ADD16R,3.00X1.40*%
%ADD17O,1.00X3.20*%
%ADD18R,1.00X3.20*%
%ADD19R,2.00X1.10*%
%ADD20R,6.00X2.00*%
%ADD21R,2.00X6.00*%
%ADD22R,0.80X2.00*%
%ADD23R,1.75X3.50*%
%ADD24R,1.75X1.10*%
%ADD25R,1.75X1.10*%
%ADD26R,2.30X2.30*%
%ADD27R,0.90X0.95*%
%ADD28R,0.90X0.95*%
%ADD29R,0.65X1.10*%
%ADD30R,0.55X1.45*%
%ADD31R,0.55X1.45*%
%ADD32R,1.00X1.00*%
%ADD33R,3.30X1.40*%
%ADD34C,1.00*%
%ADD35R,1.20X0.23*%
%ADD36C,0.40*%
%ADD37C,0.45*%
%ADD38C,0.25*%
%ADD39C,0.60*%
%ADD40C,0.25*%
%ADD41C,0.30*%
%ADD42C,1.52*%
%ADD43C,3.22*%
%ADD44C,1.68*%
%ADD45C,1.50*%
%ADD46R,1.50X1.50*%
%ADD47R,1.50X1.50*%
%ADD48C,1.85*%
%ADD49R,1.85X1.85*%
G04:AMPARAMS|DCode=50|XSize=1.25mm|YSize=2mm|CornerRadius=0.31mm|HoleSize=0mm|Usage=FLASHONLY|Rotation=270.000|XOffset=0mm|YOffset=0mm|HoleType=Round|Shape=RoundedRectangle|*
%AMROUNDEDRECTD50*
21,1,1.25,1.38,0,0,270.0*
21,1,0.63,2.00,0,0,270.0*
1,1,0.63,-0.69,-0.31*
1,1,0.63,-0.69,0.31*
1,1,0.63,0.69,0.31*
1,1,0.63,0.69,-0.31*
%
%ADD50ROUNDEDRECTD50*%
G04:AMPARAMS|DCode=51|XSize=1.25mm|YSize=1.8mm|CornerRadius=0.31mm|HoleSize=0mm|Usage=FLASHONLY|Rotation=270.000|XOffset=0mm|YOffset=0mm|HoleType=Round|Shape=RoundedRectangle|*
%AMROUNDEDRECTD51*
21,1,1.25,1.18,0,0,270.0*
21,1,0.63,1.80,0,0,270.0*
1,1,0.63,-0.59,-0.31*
1,1,0.63,-0.59,0.31*
1,1,0.63,0.59,0.31*
1,1,0.63,0.59,-0.31*
%
%ADD51ROUNDEDRECTD51*%
%ADD52C,0.70*%
%ADD53C,0.66*%
%ADD54O,0.85X0.30*%
%ADD55O,0.30X0.85*%
%ADD56R,2.80X2.80*%
%ADD57O,0.25X0.75*%
%ADD58O,0.75X0.25*%
%ADD59R,3.80X3.80*%
%ADD60R,1.70X1.10*%
%ADD61R,1.40X3.30*%
%ADD62R,2.00X0.70*%
%ADD63C,0.50*%
D10*
X594Y1219D02*
D03*
X784D02*
D03*
X597Y949D02*
D03*
X787D02*
D03*
X597Y679D02*
D03*
X787D02*
D03*
X602Y414D02*
D03*
X792D02*
D03*
X919Y-2219D02*
D03*
X729D02*
D03*
X927Y-1929D02*
D03*
X737D02*
D03*
X-2686Y-861D02*
D03*
X-2876D02*
D03*
D11*
X-4962Y2056D02*
D03*
Y1886D02*
D03*
X550Y2704D02*
D03*
Y2874D02*
D03*
X163Y2868D02*
D03*
Y2698D02*
D03*
X-1315Y-1006D02*
D03*
Y-836D02*
D03*
X-2653Y-543D02*
D03*
Y-373D02*
D03*
X-5452Y-854D02*
D03*
Y-1024D02*
D03*
X-5212Y-1044D02*
D03*
Y-1214D02*
D03*
X-3992Y-1419D02*
D03*
Y-1589D02*
D03*
X-3240Y-1364D02*
D03*
Y-1534D02*
D03*
D12*
X299Y-1925D02*
D03*
X469D02*
D03*
X297Y-2212D02*
D03*
X467D02*
D03*
X-5151Y3623D02*
D03*
X-4981D02*
D03*
X-3411Y2343D02*
D03*
X-3241D02*
D03*
X-3262Y-855D02*
D03*
X-3432D02*
D03*
X-5067Y-2088D02*
D03*
X-5237D02*
D03*
D13*
X-4292Y-1403D02*
D03*
Y-1276D02*
D03*
Y-1149D02*
D03*
Y-1022D02*
D03*
X-4772Y-1403D02*
D03*
Y-1276D02*
D03*
Y-1149D02*
D03*
Y-1022D02*
D03*
D14*
X-3994Y-2239D02*
D03*
Y-2049D02*
D03*
D15*
X-4922Y-480D02*
D03*
Y0D02*
D03*
X-2700Y-1392D02*
D03*
Y-1873D02*
D03*
D16*
X-3443Y-362D02*
D03*
X-2962D02*
D03*
D17*
X-2777Y2902D02*
D03*
X-2377D02*
D03*
X-2777Y3583D02*
D03*
X-3577Y2902D02*
D03*
X-3177D02*
D03*
X-3577Y3583D02*
D03*
D18*
X-2377Y3583D02*
D03*
X-3177Y3583D02*
D03*
D19*
X1090Y1588D02*
D03*
X200D02*
D03*
Y2350D02*
D03*
Y2096D02*
D03*
Y1842D02*
D03*
X1090D02*
D03*
Y2096D02*
D03*
Y2350D02*
D03*
D20*
X-782Y-1465D02*
D03*
X-1733D02*
D03*
D21*
X-2480Y2305D02*
D03*
Y1355D02*
D03*
D22*
X-5383Y295D02*
D03*
X-5510D02*
D03*
X-5383Y650D02*
D03*
X-5510D02*
D03*
D23*
X-3770Y-367D02*
D03*
D24*
X-4430Y-597D02*
D03*
Y-367D02*
D03*
D25*
Y-138D02*
D03*
D26*
X-5508Y-60D02*
D03*
Y-510D02*
D03*
D27*
X-4598Y-1865D02*
D03*
X-4503Y-1630D02*
D03*
D28*
X-4693D02*
D03*
D29*
X-5112Y-1867D02*
D03*
X-5303D02*
D03*
Y-1627D02*
D03*
X-5208D02*
D03*
X-5112D02*
D03*
D30*
X-3455Y-1150D02*
D03*
D31*
X-3550Y-1150D02*
D03*
X-3645D02*
D03*
Y-1365D02*
D03*
X-3455D02*
D03*
D32*
X-1850Y2900D02*
D03*
X-1650D02*
D03*
X-1450D02*
D03*
X-1250D02*
D03*
X-1050D02*
D03*
X-850D02*
D03*
X-650D02*
D03*
X-450D02*
D03*
X-250D02*
D03*
X-100Y2650D02*
D03*
Y2450D02*
D03*
Y2250D02*
D03*
Y2050D02*
D03*
Y1850D02*
D03*
Y1650D02*
D03*
Y1450D02*
D03*
Y1250D02*
D03*
Y1050D02*
D03*
Y850D02*
D03*
Y650D02*
D03*
Y450D02*
D03*
Y250D02*
D03*
X-250Y100D02*
D03*
X-450D02*
D03*
X-650D02*
D03*
X-850D02*
D03*
X-1050D02*
D03*
X-1250D02*
D03*
X-1450D02*
D03*
X-1650D02*
D03*
X-1850D02*
D03*
X-2000Y250D02*
D03*
Y450D02*
D03*
Y650D02*
D03*
Y850D02*
D03*
Y1050D02*
D03*
Y1250D02*
D03*
Y1450D02*
D03*
Y1650D02*
D03*
Y1850D02*
D03*
Y2050D02*
D03*
Y2250D02*
D03*
Y2450D02*
D03*
Y2650D02*
D03*
D33*
X-560Y-335D02*
D03*
Y-715D02*
D03*
D34*
X-5828Y2732D02*
D03*
Y3483D02*
D03*
D35*
X-5648Y2747D02*
D03*
Y2788D02*
D03*
Y2828D02*
D03*
Y2868D02*
D03*
Y2908D02*
D03*
Y2948D02*
D03*
Y2988D02*
D03*
Y3028D02*
D03*
Y3068D02*
D03*
Y3108D02*
D03*
Y3148D02*
D03*
Y3188D02*
D03*
Y3228D02*
D03*
Y3267D02*
D03*
Y3308D02*
D03*
Y3347D02*
D03*
Y3388D02*
D03*
Y3428D02*
D03*
Y3467D02*
D03*
D42*
X1105Y3075D02*
D03*
D43*
X265Y-335D02*
D03*
Y-1535D02*
D03*
D44*
X-6Y-810D02*
D03*
Y-1060D02*
D03*
X-206D02*
D03*
Y-810D02*
D03*
D45*
X-2136Y-294D02*
D03*
X-1883D02*
D03*
X-2136Y-548D02*
D03*
X-1883D02*
D03*
X-2136Y-802D02*
D03*
X-4743Y3370D02*
D03*
Y3116D02*
D03*
Y2862D02*
D03*
Y2608D02*
D03*
Y2354D02*
D03*
Y2100D02*
D03*
Y1846D02*
D03*
Y1592D02*
D03*
Y1338D02*
D03*
Y1084D02*
D03*
Y830D02*
D03*
Y576D02*
D03*
Y322D02*
D03*
X-3981Y3624D02*
D03*
Y3370D02*
D03*
Y3116D02*
D03*
Y2862D02*
D03*
Y2608D02*
D03*
Y2354D02*
D03*
Y2100D02*
D03*
Y1846D02*
D03*
Y1592D02*
D03*
Y1338D02*
D03*
Y1084D02*
D03*
Y830D02*
D03*
Y576D02*
D03*
Y322D02*
D03*
X-3134Y1857D02*
D03*
Y1602D02*
D03*
X-3388Y1857D02*
D03*
Y1602D02*
D03*
X-3642Y1857D02*
D03*
X-5960Y-1234D02*
D03*
X-5960Y-2054D02*
D03*
D46*
X-1883Y-802D02*
D03*
X-5960Y-980D02*
D03*
X-5960Y-1800D02*
D03*
D47*
X-4743Y3624D02*
D03*
X-3642Y1602D02*
D03*
D48*
X-5965Y-11D02*
D03*
D49*
Y-519D02*
D03*
D50*
X-5747Y2570D02*
D03*
Y3650D02*
D03*
D51*
X-6197D02*
D03*
X-6208Y2565D02*
D03*
M02*
