%FSLAX42Y42*%
%MOMM*%
G71*
G01*
G75*
G04 Layer_Physical_Order=2*
G04 Layer_Color=16711680*
%ADD10R,1.30X1.50*%
%ADD11R,1.00X1.10*%
%ADD12R,1.10X1.00*%
%ADD13O,2.20X0.60*%
%ADD14R,1.50X1.30*%
%ADD15R,1.40X3.00*%
%ADD16R,3.00X1.40*%
%ADD17O,1.00X3.20*%
%ADD18R,1.00X3.20*%
%ADD19R,2.00X1.10*%
%ADD20R,6.00X2.00*%
%ADD21R,2.00X6.00*%
%ADD22R,0.80X2.00*%
%ADD23R,1.75X3.50*%
%ADD24R,1.75X1.10*%
%ADD25R,1.75X1.10*%
%ADD26R,2.30X2.30*%
%ADD27R,0.90X0.95*%
%ADD28R,0.90X0.95*%
%ADD29R,0.65X1.10*%
%ADD30R,0.55X1.45*%
%ADD31R,0.55X1.45*%
%ADD32R,1.00X1.00*%
%ADD33R,3.30X1.40*%
%ADD34C,1.00*%
%ADD35R,1.20X0.23*%
%ADD36C,0.40*%
%ADD37C,0.45*%
%ADD38C,0.25*%
%ADD39C,0.60*%
%ADD40C,0.25*%
%ADD41C,0.30*%
%ADD42C,1.52*%
%ADD43C,3.22*%
%ADD44C,1.68*%
%ADD45C,1.50*%
%ADD46R,1.50X1.50*%
%ADD47R,1.50X1.50*%
%ADD48C,1.85*%
%ADD49R,1.85X1.85*%
G04:AMPARAMS|DCode=50|XSize=1.25mm|YSize=2mm|CornerRadius=0.31mm|HoleSize=0mm|Usage=FLASHONLY|Rotation=270.000|XOffset=0mm|YOffset=0mm|HoleType=Round|Shape=RoundedRectangle|*
%AMROUNDEDRECTD50*
21,1,1.25,1.38,0,0,270.0*
21,1,0.63,2.00,0,0,270.0*
1,1,0.63,-0.69,-0.31*
1,1,0.63,-0.69,0.31*
1,1,0.63,0.69,0.31*
1,1,0.63,0.69,-0.31*
%
%ADD50ROUNDEDRECTD50*%
G04:AMPARAMS|DCode=51|XSize=1.25mm|YSize=1.8mm|CornerRadius=0.31mm|HoleSize=0mm|Usage=FLASHONLY|Rotation=270.000|XOffset=0mm|YOffset=0mm|HoleType=Round|Shape=RoundedRectangle|*
%AMROUNDEDRECTD51*
21,1,1.25,1.18,0,0,270.0*
21,1,0.63,1.80,0,0,270.0*
1,1,0.63,-0.59,-0.31*
1,1,0.63,-0.59,0.31*
1,1,0.63,0.59,0.31*
1,1,0.63,0.59,-0.31*
%
%ADD51ROUNDEDRECTD51*%
%ADD52C,0.70*%
%ADD53C,0.66*%
%ADD54O,0.85X0.30*%
%ADD55O,0.30X0.85*%
%ADD56R,2.80X2.80*%
%ADD57O,0.25X0.75*%
%ADD58O,0.75X0.25*%
%ADD59R,3.80X3.80*%
%ADD60R,1.70X1.10*%
%ADD61R,1.40X3.30*%
%ADD62R,2.00X0.70*%
%ADD63C,0.50*%
G36*
X-4064Y2306D02*
X-4049Y2286D01*
X-4042Y2280D01*
X-4046Y2268D01*
X-4470D01*
X-4487Y2265D01*
X-4501Y2256D01*
X-4613Y2143D01*
X-4659D01*
X-4661Y2147D01*
X-4676Y2167D01*
X-4696Y2182D01*
X-4706Y2187D01*
X-4703Y2199D01*
X-4610D01*
X-4597Y2202D01*
X-4586Y2209D01*
X-4586Y2209D01*
X-4586Y2209D01*
X-4475Y2320D01*
X-4071D01*
X-4064Y2306D01*
D02*
G37*
G36*
X-4046Y2170D02*
X-4049Y2167D01*
X-4062Y2150D01*
X-4384D01*
X-4386Y2151D01*
X-4394Y2153D01*
Y2099D01*
Y2046D01*
X-4386Y2048D01*
X-4384Y2049D01*
X-4062D01*
X-4049Y2032D01*
X-4037Y2022D01*
X-4041Y2010D01*
X-4684D01*
X-4688Y2022D01*
X-4676Y2032D01*
X-4661Y2052D01*
X-4659Y2056D01*
X-4595D01*
X-4579Y2059D01*
X-4565Y2069D01*
X-4452Y2182D01*
X-4050D01*
X-4046Y2170D01*
D02*
G37*
G36*
X-3011Y2692D02*
X-3030Y2680D01*
X-3042Y2661D01*
X-3046Y2640D01*
X-3042Y2619D01*
X-3030Y2600D01*
X-3023Y2596D01*
Y1761D01*
X-3095Y1689D01*
X-3110Y1695D01*
X-3134Y1698D01*
X-3159Y1695D01*
X-3182Y1685D01*
X-3202Y1670D01*
X-3217Y1650D01*
X-3227Y1627D01*
X-3230Y1602D01*
X-3227Y1578D01*
X-3217Y1555D01*
X-3202Y1535D01*
X-3182Y1520D01*
X-3159Y1510D01*
X-3134Y1507D01*
X-3110Y1510D01*
X-3087Y1520D01*
X-3067Y1535D01*
X-3052Y1555D01*
X-3042Y1578D01*
X-3039Y1602D01*
X-3042Y1627D01*
X-3048Y1642D01*
X-2973Y1717D01*
X-2961Y1712D01*
Y1459D01*
X-3049Y1371D01*
X-3355D01*
Y1513D01*
X-3341Y1520D01*
X-3321Y1535D01*
X-3306Y1555D01*
X-3296Y1578D01*
X-3293Y1602D01*
X-3296Y1627D01*
X-3306Y1650D01*
X-3321Y1670D01*
X-3341Y1685D01*
X-3364Y1695D01*
X-3388Y1698D01*
X-3413Y1695D01*
X-3436Y1685D01*
X-3456Y1670D01*
X-3471Y1650D01*
X-3481Y1627D01*
X-3484Y1602D01*
X-3481Y1578D01*
X-3471Y1555D01*
X-3456Y1535D01*
X-3436Y1520D01*
X-3422Y1513D01*
Y1371D01*
X-3892D01*
X-3899Y1385D01*
X-3914Y1405D01*
X-3934Y1420D01*
X-3957Y1430D01*
X-3981Y1433D01*
X-4006Y1430D01*
X-4029Y1420D01*
X-4049Y1405D01*
X-4064Y1385D01*
X-4071Y1371D01*
X-4431D01*
X-4435Y1377D01*
X-4454Y1389D01*
X-4475Y1394D01*
X-4496Y1389D01*
X-4515Y1377D01*
X-4527Y1359D01*
X-4531Y1338D01*
X-4527Y1316D01*
X-4515Y1298D01*
X-4496Y1286D01*
X-4475Y1281D01*
X-4454Y1286D01*
X-4435Y1298D01*
X-4431Y1304D01*
X-4071D01*
X-4064Y1290D01*
X-4049Y1270D01*
X-4029Y1255D01*
X-4006Y1245D01*
X-3981Y1242D01*
X-3957Y1245D01*
X-3934Y1255D01*
X-3914Y1270D01*
X-3899Y1290D01*
X-3892Y1304D01*
X-3035D01*
X-3022Y1307D01*
X-3011Y1314D01*
X-3011Y1314D01*
X-3011Y1314D01*
X-2908Y1418D01*
X-2896Y1413D01*
Y1196D01*
X-2975Y1117D01*
X-3892D01*
X-3899Y1131D01*
X-3914Y1151D01*
X-3934Y1166D01*
X-3957Y1176D01*
X-3981Y1179D01*
X-4006Y1176D01*
X-4021Y1170D01*
X-4087Y1236D01*
X-4098Y1243D01*
X-4110Y1246D01*
X-4687D01*
X-4691Y1258D01*
X-4676Y1270D01*
X-4661Y1290D01*
X-4651Y1313D01*
X-4648Y1338D01*
X-4651Y1362D01*
X-4661Y1385D01*
X-4676Y1405D01*
X-4696Y1420D01*
X-4719Y1430D01*
X-4743Y1433D01*
X-4768Y1430D01*
X-4791Y1420D01*
X-4806Y1409D01*
X-4813Y1411D01*
X-4938D01*
Y1423D01*
Y1465D01*
X-5058D01*
Y1490D01*
X-4938D01*
Y1523D01*
Y1544D01*
X-4827D01*
X-4826Y1544D01*
X-4811Y1524D01*
X-4791Y1509D01*
X-4768Y1499D01*
X-4743Y1496D01*
X-4719Y1499D01*
X-4696Y1509D01*
X-4676Y1524D01*
X-4661Y1544D01*
X-4651Y1567D01*
X-4648Y1592D01*
X-4651Y1616D01*
X-4661Y1639D01*
X-4676Y1659D01*
X-4696Y1674D01*
X-4719Y1684D01*
X-4743Y1687D01*
X-4768Y1684D01*
X-4791Y1674D01*
X-4811Y1659D01*
X-4826Y1639D01*
X-4836Y1616D01*
X-4837Y1611D01*
X-4938D01*
Y1633D01*
X-5178D01*
Y1528D01*
X-5567D01*
Y1661D01*
X-5555Y1667D01*
X-5549Y1663D01*
X-5528Y1659D01*
X-5506Y1663D01*
X-5488Y1675D01*
X-5484Y1682D01*
X-4934D01*
X-4930Y1675D01*
X-4911Y1663D01*
X-4890Y1659D01*
X-4869Y1663D01*
X-4850Y1675D01*
X-4838Y1694D01*
X-4834Y1715D01*
X-4838Y1736D01*
X-4850Y1755D01*
X-4869Y1767D01*
X-4890Y1771D01*
X-4911Y1767D01*
X-4930Y1755D01*
X-4934Y1748D01*
X-5484D01*
X-5488Y1755D01*
X-5506Y1767D01*
X-5528Y1771D01*
X-5549Y1767D01*
X-5555Y1763D01*
X-5567Y1769D01*
Y1795D01*
X-4824D01*
X-4811Y1778D01*
X-4791Y1763D01*
X-4768Y1753D01*
X-4756Y1751D01*
Y1845D01*
Y1940D01*
X-4743Y1941D01*
X-4743Y1941D01*
X-4741Y1943D01*
X-4026D01*
X-4023Y1931D01*
X-4029Y1928D01*
X-4049Y1913D01*
X-4064Y1893D01*
X-4069Y1884D01*
X-4259D01*
Y1920D01*
X-4409D01*
Y1780D01*
X-4259D01*
Y1817D01*
X-4072D01*
X-4064Y1798D01*
X-4049Y1778D01*
X-4029Y1763D01*
X-4006Y1753D01*
X-3981Y1750D01*
X-3957Y1753D01*
X-3934Y1763D01*
X-3914Y1778D01*
X-3899Y1798D01*
X-3889Y1821D01*
X-3886Y1846D01*
X-3889Y1870D01*
X-3899Y1893D01*
X-3914Y1913D01*
X-3934Y1928D01*
X-3940Y1931D01*
X-3937Y1943D01*
X-3914D01*
X-3910Y1937D01*
X-3891Y1925D01*
X-3870Y1921D01*
X-3849Y1925D01*
X-3830Y1937D01*
X-3818Y1955D01*
X-3814Y1977D01*
X-3818Y1998D01*
X-3830Y2016D01*
X-3849Y2029D01*
X-3870Y2033D01*
X-3891Y2029D01*
X-3910Y2016D01*
X-3911Y2014D01*
X-3924Y2016D01*
X-3926Y2022D01*
X-3914Y2032D01*
X-3899Y2052D01*
X-3889Y2075D01*
X-3887Y2087D01*
X-3982D01*
Y2112D01*
X-3887D01*
X-3889Y2124D01*
X-3899Y2147D01*
X-3914Y2167D01*
X-3917Y2170D01*
X-3913Y2182D01*
X-3858D01*
X-3841Y2171D01*
X-3820Y2166D01*
X-3799Y2171D01*
X-3782Y2182D01*
X-3733D01*
X-3686Y2135D01*
Y1941D01*
X-3690Y1939D01*
X-3710Y1924D01*
X-3725Y1904D01*
X-3735Y1881D01*
X-3737Y1864D01*
X-3930Y1672D01*
X-3934Y1674D01*
X-3957Y1684D01*
X-3981Y1687D01*
X-4006Y1684D01*
X-4029Y1674D01*
X-4049Y1659D01*
X-4064Y1639D01*
X-4066Y1636D01*
X-4343D01*
X-4356Y1644D01*
X-4378Y1649D01*
X-4399Y1644D01*
X-4417Y1632D01*
X-4429Y1614D01*
X-4434Y1593D01*
X-4429Y1571D01*
X-4417Y1553D01*
X-4399Y1541D01*
X-4378Y1536D01*
X-4356Y1541D01*
X-4343Y1549D01*
X-4067D01*
X-4064Y1544D01*
X-4049Y1524D01*
X-4029Y1509D01*
X-4006Y1499D01*
X-3981Y1496D01*
X-3957Y1499D01*
X-3934Y1509D01*
X-3914Y1524D01*
X-3899Y1544D01*
X-3889Y1567D01*
X-3886Y1592D01*
X-3886Y1593D01*
X-3699Y1780D01*
X-3690Y1774D01*
X-3667Y1764D01*
X-3642Y1761D01*
X-3618Y1764D01*
X-3595Y1774D01*
X-3575Y1789D01*
X-3560Y1809D01*
X-3550Y1832D01*
X-3547Y1857D01*
X-3550Y1881D01*
X-3560Y1904D01*
X-3575Y1924D01*
X-3595Y1939D01*
X-3599Y1941D01*
Y2152D01*
X-3602Y2169D01*
X-3606Y2175D01*
X-3612Y2183D01*
X-3684Y2256D01*
X-3698Y2265D01*
X-3715Y2268D01*
X-3790D01*
X-3799Y2274D01*
X-3820Y2279D01*
X-3841Y2274D01*
X-3850Y2268D01*
X-3917D01*
X-3921Y2280D01*
X-3914Y2286D01*
X-3899Y2306D01*
X-3889Y2329D01*
X-3886Y2354D01*
X-3889Y2378D01*
X-3899Y2401D01*
X-3914Y2421D01*
X-3934Y2436D01*
X-3957Y2446D01*
X-3981Y2449D01*
X-4006Y2446D01*
X-4029Y2436D01*
X-4049Y2421D01*
X-4064Y2401D01*
X-4071Y2387D01*
X-4489D01*
X-4502Y2384D01*
X-4513Y2377D01*
X-4624Y2266D01*
X-4682D01*
X-4686Y2278D01*
X-4676Y2286D01*
X-4661Y2306D01*
X-4651Y2329D01*
X-4648Y2354D01*
X-4651Y2378D01*
X-4661Y2401D01*
X-4676Y2421D01*
X-4696Y2436D01*
X-4719Y2446D01*
X-4718Y2449D01*
X-4137D01*
X-4124Y2452D01*
X-4113Y2459D01*
X-4113Y2459D01*
X-4113Y2459D01*
X-4040Y2532D01*
X-4029Y2525D01*
X-4006Y2515D01*
X-3981Y2512D01*
X-3957Y2515D01*
X-3934Y2525D01*
X-3914Y2540D01*
X-3899Y2560D01*
X-3889Y2583D01*
X-3886Y2608D01*
X-3889Y2632D01*
X-3899Y2655D01*
X-3914Y2675D01*
X-3934Y2690D01*
X-3937Y2692D01*
X-3934Y2704D01*
X-3014D01*
X-3011Y2692D01*
D02*
G37*
G36*
X-5701Y2574D02*
X-5698Y2566D01*
X-5698Y2565D01*
X-5698Y2564D01*
X-5701Y2557D01*
X-5794D01*
X-5797Y2564D01*
X-5797Y2565D01*
X-5797Y2566D01*
X-5794Y2574D01*
X-5786Y2577D01*
X-5785Y2577D01*
X-5710D01*
X-5709Y2577D01*
X-5701Y2574D01*
D02*
G37*
G36*
X-6195Y2553D02*
X-6220D01*
Y2565D01*
X-6195D01*
Y2553D01*
D02*
G37*
G36*
X-1058Y-224D02*
Y-270D01*
X-1068Y-278D01*
X-1075Y-277D01*
X-1088Y-279D01*
X-1098Y-287D01*
X-1102D01*
X-1112Y-279D01*
X-1125Y-277D01*
X-1138Y-279D01*
X-1148Y-287D01*
X-1152D01*
X-1162Y-279D01*
X-1175Y-277D01*
X-1188Y-279D01*
X-1198Y-287D01*
X-1202D01*
X-1212Y-279D01*
X-1225Y-277D01*
X-1238Y-279D01*
X-1248Y-287D01*
X-1252D01*
X-1262Y-279D01*
X-1275Y-277D01*
X-1288Y-279D01*
X-1298Y-287D01*
X-1302D01*
X-1312Y-279D01*
X-1325Y-277D01*
X-1332Y-278D01*
X-1342Y-270D01*
Y-257D01*
X-1338Y-255D01*
X-1326Y-236D01*
X-1321Y-215D01*
X-1326Y-194D01*
X-1338Y-175D01*
X-1336Y-168D01*
X-1114D01*
X-1058Y-224D01*
D02*
G37*
G36*
X-2532Y2042D02*
X-2534Y2039D01*
X-2539Y2017D01*
X-2534Y1996D01*
X-2534Y1995D01*
X-2540Y1984D01*
X-2550D01*
Y1834D01*
X-2410D01*
Y1876D01*
X-2322D01*
Y1852D01*
X-2212D01*
X-2170Y1810D01*
X-2175Y1798D01*
X-2305D01*
Y1773D01*
X-2410D01*
Y1814D01*
X-2550D01*
Y1664D01*
X-2518D01*
Y1651D01*
X-2525Y1647D01*
X-2537Y1629D01*
X-2541Y1609D01*
X-2553Y1605D01*
X-2609Y1661D01*
Y2053D01*
X-2538D01*
X-2532Y2042D01*
D02*
G37*
G36*
X272Y1931D02*
Y276D01*
X166Y171D01*
X-3814D01*
X-3906Y263D01*
X-3899Y274D01*
X-3889Y297D01*
X-3886Y322D01*
X-3889Y346D01*
X-3899Y369D01*
X-3914Y389D01*
X-3934Y404D01*
X-3957Y414D01*
X-3957Y417D01*
X-2320D01*
X-2307Y419D01*
X-2296Y426D01*
X-2296Y426D01*
X-2296Y426D01*
X-2161Y561D01*
X-2154Y572D01*
X-2154Y572D01*
X-2154Y572D01*
X-2152Y585D01*
Y1261D01*
X-2046Y1367D01*
X-1871D01*
X-1867Y1360D01*
X-1849Y1348D01*
X-1827Y1344D01*
X-1806Y1348D01*
X-1788Y1360D01*
X-1776Y1379D01*
X-1771Y1400D01*
X-1776Y1421D01*
X-1788Y1440D01*
X-1806Y1452D01*
X-1827Y1456D01*
X-1849Y1452D01*
X-1867Y1440D01*
X-1871Y1433D01*
X-2017D01*
Y1475D01*
X-1976D01*
Y1615D01*
X-2126D01*
Y1475D01*
X-2084D01*
Y1458D01*
Y1423D01*
X-2209Y1299D01*
X-2216Y1288D01*
X-2218Y1275D01*
Y599D01*
X-2334Y483D01*
X-3926D01*
X-3930Y495D01*
X-3914Y508D01*
X-3899Y528D01*
X-3892Y542D01*
X-2864D01*
X-2852Y545D01*
X-2841Y552D01*
X-2841Y552D01*
X-2841Y552D01*
X-2721Y671D01*
X-2721Y671D01*
X-2721Y671D01*
X-2714Y682D01*
X-2712Y695D01*
Y1605D01*
X-2700Y1609D01*
X-2696Y1604D01*
X-2576Y1484D01*
X-2560Y1473D01*
X-2556Y1472D01*
X-2540Y1469D01*
X-2268D01*
X-2249Y1473D01*
X-2245Y1476D01*
X-2241Y1478D01*
X-2248D01*
Y1553D01*
Y1628D01*
X-2305D01*
Y1571D01*
X-2430D01*
X-2436Y1582D01*
X-2433Y1586D01*
X-2429Y1608D01*
X-2433Y1629D01*
X-2445Y1647D01*
X-2452Y1651D01*
Y1664D01*
X-2410D01*
Y1706D01*
X-2305D01*
Y1648D01*
X-2165D01*
Y1672D01*
X-1847D01*
X-1839Y1662D01*
X-1841Y1655D01*
X-1838Y1641D01*
X-1830Y1630D01*
X-1828Y1628D01*
X-1827Y1624D01*
X-1836Y1615D01*
X-1956D01*
Y1475D01*
X-1806D01*
Y1542D01*
X-1754Y1594D01*
X-1750Y1600D01*
X-1747Y1605D01*
X-1745Y1614D01*
X-1733Y1617D01*
X-1733D01*
X-1728Y1613D01*
X-1731Y1600D01*
Y1545D01*
X-1728Y1533D01*
Y1399D01*
X-1879Y1249D01*
X-1886Y1238D01*
X-1888Y1225D01*
Y291D01*
X-1895Y287D01*
X-1907Y269D01*
X-1911Y247D01*
X-1907Y226D01*
X-1895Y208D01*
X-1876Y196D01*
X-1855Y191D01*
X-1834Y196D01*
X-1815Y208D01*
X-1803Y226D01*
X-1799Y247D01*
X-1803Y269D01*
X-1815Y287D01*
X-1822Y291D01*
Y1211D01*
X-1690Y1343D01*
X-1678Y1338D01*
Y586D01*
X-1685Y582D01*
X-1697Y564D01*
X-1701Y543D01*
X-1697Y521D01*
X-1685Y503D01*
X-1666Y491D01*
X-1645Y486D01*
X-1624Y491D01*
X-1605Y503D01*
X-1593Y521D01*
X-1589Y543D01*
X-1593Y564D01*
X-1605Y582D01*
X-1612Y586D01*
Y616D01*
X-1600Y620D01*
X-1595Y613D01*
X-1576Y601D01*
X-1555Y596D01*
X-1534Y601D01*
X-1515Y613D01*
X-1503Y631D01*
X-1499Y653D01*
X-1503Y674D01*
X-1515Y692D01*
X-1534Y704D01*
X-1555Y709D01*
X-1562Y714D01*
Y895D01*
X-1550Y900D01*
X-1507Y857D01*
X-1509Y850D01*
X-1504Y829D01*
X-1492Y810D01*
X-1474Y798D01*
X-1452Y794D01*
X-1431Y798D01*
X-1413Y810D01*
X-1401Y829D01*
X-1396Y850D01*
X-1401Y871D01*
X-1413Y890D01*
X-1431Y902D01*
X-1452Y906D01*
X-1460Y905D01*
X-1512Y956D01*
Y1503D01*
X-1502Y1511D01*
X-1495Y1509D01*
X-1481Y1512D01*
X-1470Y1520D01*
X-1459Y1512D01*
X-1445Y1509D01*
X-1431Y1512D01*
X-1420Y1520D01*
X-1412Y1531D01*
X-1409Y1545D01*
Y1600D01*
X-1412Y1613D01*
X-1403Y1622D01*
X-1390Y1619D01*
X-1335D01*
X-1321Y1622D01*
X-1310Y1630D01*
X-1302Y1641D01*
X-1299Y1655D01*
X-1302Y1669D01*
X-1310Y1680D01*
X-1302Y1691D01*
X-1299Y1705D01*
X-1302Y1719D01*
X-1310Y1730D01*
X-1302Y1741D01*
X-1302Y1742D01*
X-1363D01*
Y1768D01*
X-1302D01*
X-1302Y1769D01*
X-1310Y1780D01*
X-1302Y1791D01*
X-1300Y1802D01*
X-1288Y1806D01*
X-1251Y1769D01*
Y1091D01*
X-1257Y1087D01*
X-1269Y1069D01*
X-1274Y1048D01*
X-1269Y1026D01*
X-1257Y1008D01*
X-1239Y996D01*
X-1218Y991D01*
X-1196Y996D01*
X-1178Y1008D01*
X-1166Y1026D01*
X-1161Y1048D01*
X-1166Y1069D01*
X-1178Y1087D01*
X-1184Y1091D01*
Y1783D01*
X-1187Y1795D01*
X-1190Y1800D01*
X-1194Y1806D01*
X-1247Y1859D01*
X-1239Y1869D01*
X-1226Y1861D01*
X-1205Y1856D01*
X-1184Y1861D01*
X-1165Y1873D01*
X-1153Y1891D01*
X-1149Y1912D01*
X-1153Y1934D01*
X-1165Y1952D01*
X-1165Y1954D01*
X66D01*
X167Y1854D01*
Y1481D01*
X160Y1477D01*
X148Y1459D01*
X144Y1438D01*
X148Y1416D01*
X160Y1398D01*
X179Y1386D01*
X200Y1381D01*
X221Y1386D01*
X240Y1398D01*
X252Y1416D01*
X256Y1438D01*
X252Y1459D01*
X240Y1477D01*
X233Y1481D01*
Y1867D01*
X231Y1880D01*
X224Y1891D01*
X104Y2011D01*
X93Y2018D01*
X89Y2019D01*
X90Y2032D01*
X171D01*
X272Y1931D01*
D02*
G37*
G36*
X-1913Y-458D02*
X-1930Y-466D01*
X-1950Y-481D01*
X-1965Y-501D01*
X-1975Y-524D01*
X-1978Y-548D01*
X-1975Y-573D01*
X-1965Y-596D01*
X-1950Y-616D01*
X-1930Y-631D01*
X-1907Y-641D01*
X-1883Y-644D01*
X-1858Y-641D01*
X-1835Y-631D01*
X-1815Y-616D01*
X-1800Y-596D01*
X-1793Y-581D01*
X-1670D01*
X-1657Y-578D01*
X-1646Y-571D01*
X-1632Y-557D01*
X-1621Y-562D01*
X-1617Y-584D01*
X-1605Y-602D01*
X-1586Y-614D01*
X-1575Y-617D01*
X-1577Y-629D01*
X-1590D01*
X-1603Y-632D01*
X-1614Y-639D01*
X-1696Y-721D01*
X-1703Y-732D01*
X-1706Y-745D01*
Y-1164D01*
X-1717Y-1170D01*
X-1724Y-1166D01*
X-1745Y-1161D01*
X-1766Y-1166D01*
X-1785Y-1178D01*
X-1797Y-1196D01*
X-1801Y-1218D01*
X-1797Y-1239D01*
X-1788Y-1252D01*
Y-1505D01*
X-1868Y-1584D01*
X-3114D01*
Y-871D01*
X-2488D01*
X-2485Y-883D01*
X-2497Y-901D01*
X-2501Y-923D01*
X-2497Y-944D01*
X-2485Y-962D01*
X-2481Y-965D01*
Y-1000D01*
X-2478Y-1013D01*
X-2471Y-1024D01*
X-2419Y-1076D01*
X-2408Y-1083D01*
X-2395Y-1086D01*
X-2394D01*
Y-1122D01*
X-2244D01*
Y-982D01*
X-2394D01*
Y-990D01*
X-2406Y-994D01*
X-2414Y-986D01*
Y-968D01*
X-2405Y-962D01*
X-2393Y-944D01*
X-2389Y-923D01*
X-2393Y-901D01*
X-2405Y-883D01*
X-2402Y-871D01*
X-2203D01*
X-2184Y-885D01*
X-2161Y-895D01*
X-2136Y-898D01*
X-2112Y-895D01*
X-2089Y-885D01*
X-2069Y-870D01*
X-2054Y-850D01*
X-2044Y-827D01*
X-2041Y-802D01*
X-2044Y-778D01*
X-2054Y-755D01*
X-2069Y-735D01*
X-2089Y-720D01*
X-2087Y-713D01*
X-2044D01*
X-1999Y-759D01*
Y-759D01*
D01*
D01*
X-1999D01*
X-1999Y-759D01*
Y-759D01*
X-1999Y-759D01*
D01*
D01*
D01*
Y-759D01*
X-1999Y-759D01*
X-1977Y-780D01*
Y-897D01*
X-1788D01*
Y-707D01*
X-1955D01*
X-2006Y-656D01*
X-2017Y-649D01*
X-2030Y-647D01*
X-2093D01*
X-2095Y-634D01*
X-2089Y-631D01*
X-2069Y-616D01*
X-2054Y-596D01*
X-2044Y-573D01*
X-2041Y-548D01*
X-2043Y-528D01*
X-1962Y-446D01*
X-1915D01*
X-1913Y-458D01*
D02*
G37*
G36*
X-1849Y2112D02*
X-1855Y2101D01*
X-1870Y2104D01*
X-1891Y2099D01*
X-1910Y2087D01*
X-1922Y2069D01*
X-1926Y2048D01*
X-1922Y2026D01*
X-1910Y2008D01*
X-1908Y2007D01*
Y1833D01*
X-1906Y1820D01*
X-1899Y1809D01*
X-1890Y1800D01*
X-1895Y1788D01*
X-2054D01*
X-2182Y1916D01*
Y2002D01*
X-2322D01*
Y1943D01*
X-2410D01*
Y1984D01*
X-2425D01*
X-2431Y1995D01*
X-2431Y1996D01*
X-2426Y2017D01*
X-2431Y2039D01*
X-2433Y2042D01*
X-2427Y2053D01*
X-2322D01*
Y2022D01*
X-2265D01*
Y2097D01*
Y2172D01*
X-2322D01*
Y2145D01*
X-2642D01*
X-2659Y2142D01*
X-2660Y2141D01*
X-2660Y2141D01*
X-2647Y2139D01*
Y2085D01*
X-2673D01*
Y2139D01*
X-2675Y2138D01*
X-2681Y2149D01*
X-2639Y2192D01*
X-1929D01*
X-1849Y2112D01*
D02*
G37*
G36*
X-1420Y-180D02*
X-1429Y-194D01*
X-1434Y-215D01*
X-1429Y-236D01*
X-1417Y-255D01*
X-1408Y-261D01*
Y-335D01*
X-1408Y-336D01*
Y-360D01*
X-1406Y-373D01*
X-1406Y-373D01*
X-1410Y-378D01*
X-1415Y-382D01*
X-1428Y-379D01*
X-1451D01*
X-1453Y-379D01*
X-1817D01*
X-1821Y-367D01*
X-1815Y-362D01*
X-1800Y-342D01*
X-1790Y-319D01*
X-1787Y-294D01*
X-1790Y-270D01*
X-1799Y-247D01*
X-1721Y-168D01*
X-1426D01*
X-1420Y-180D01*
D02*
G37*
G36*
X-6293Y3582D02*
X-6276Y3570D01*
X-6258Y3567D01*
Y2649D01*
X-6266D01*
X-6286Y2645D01*
X-6300Y2635D01*
X-6312Y2641D01*
Y3588D01*
X-6300Y3591D01*
X-6293Y3582D01*
D02*
G37*
G36*
X-5478Y3440D02*
X-5386D01*
X-5301Y3354D01*
X-5287Y3345D01*
X-5287Y3345D01*
X-5287Y3345D01*
D01*
X-5287Y3345D01*
X-5287Y3345D01*
X-5270Y3342D01*
X-4910D01*
X-4893Y3345D01*
X-4879Y3354D01*
X-4872Y3365D01*
X-4849Y3388D01*
X-4838Y3383D01*
X-4839Y3370D01*
X-4836Y3345D01*
X-4826Y3322D01*
X-4811Y3302D01*
X-4803Y3295D01*
X-4807Y3283D01*
X-5771D01*
X-5775Y3290D01*
X-5794Y3302D01*
X-5815Y3306D01*
X-5836Y3302D01*
X-5855Y3290D01*
X-5867Y3271D01*
X-5871Y3250D01*
X-5867Y3229D01*
X-5855Y3210D01*
X-5836Y3198D01*
X-5815Y3194D01*
X-5794Y3198D01*
X-5775Y3210D01*
X-5771Y3217D01*
X-4780D01*
X-4778Y3204D01*
X-4791Y3198D01*
X-4811Y3183D01*
X-4826Y3163D01*
X-4836Y3140D01*
X-4839Y3116D01*
X-4836Y3091D01*
X-4826Y3068D01*
X-4811Y3048D01*
X-4791Y3033D01*
X-4787Y3031D01*
X-4790Y3018D01*
X-5300D01*
X-5313Y3016D01*
X-5324Y3009D01*
X-5406Y2926D01*
X-5420Y2929D01*
X-5441Y2924D01*
X-5460Y2912D01*
X-5472Y2894D01*
X-5476Y2873D01*
X-5472Y2851D01*
X-5460Y2833D01*
X-5441Y2821D01*
X-5420Y2816D01*
X-5399Y2821D01*
X-5380Y2833D01*
X-5368Y2851D01*
X-5364Y2873D01*
X-5364Y2874D01*
X-5286Y2952D01*
X-4802D01*
X-4798Y2940D01*
X-4811Y2929D01*
X-4826Y2909D01*
X-4836Y2886D01*
X-4839Y2862D01*
X-4836Y2837D01*
X-4826Y2814D01*
X-4811Y2794D01*
X-4791Y2779D01*
X-4768Y2769D01*
X-4743Y2766D01*
X-4727Y2768D01*
X-4673Y2714D01*
X-4662Y2707D01*
X-4662Y2707D01*
X-4662Y2707D01*
D01*
X-4662Y2707D01*
X-4662Y2707D01*
X-4649Y2704D01*
X-4029D01*
X-4026Y2692D01*
X-4029Y2690D01*
X-4049Y2675D01*
X-4064Y2655D01*
X-4074Y2632D01*
X-4077Y2608D01*
X-4075Y2591D01*
X-4150Y2516D01*
X-4687D01*
X-4691Y2528D01*
X-4676Y2540D01*
X-4661Y2560D01*
X-4651Y2583D01*
X-4648Y2608D01*
X-4651Y2632D01*
X-4661Y2655D01*
X-4676Y2675D01*
X-4696Y2690D01*
X-4719Y2700D01*
X-4743Y2703D01*
X-4768Y2700D01*
X-4791Y2690D01*
X-4811Y2675D01*
X-4826Y2655D01*
X-4836Y2632D01*
X-4839Y2608D01*
X-4836Y2583D01*
X-4826Y2560D01*
X-4811Y2540D01*
X-4796Y2528D01*
X-4800Y2516D01*
X-5309D01*
X-5313Y2522D01*
X-5331Y2534D01*
X-5353Y2539D01*
X-5374Y2534D01*
X-5392Y2522D01*
X-5404Y2504D01*
X-5409Y2483D01*
X-5404Y2461D01*
X-5392Y2443D01*
X-5374Y2431D01*
X-5353Y2426D01*
X-5331Y2431D01*
X-5313Y2443D01*
X-5309Y2449D01*
X-4793D01*
X-4791Y2437D01*
X-4791Y2436D01*
X-4811Y2421D01*
X-4826Y2401D01*
X-4836Y2378D01*
X-4839Y2354D01*
X-4836Y2329D01*
X-4826Y2306D01*
X-4811Y2286D01*
X-4801Y2278D01*
X-4805Y2266D01*
X-5254D01*
X-5260Y2275D01*
X-5279Y2287D01*
X-5300Y2291D01*
X-5321Y2287D01*
X-5340Y2275D01*
X-5352Y2256D01*
X-5356Y2235D01*
X-5352Y2214D01*
X-5340Y2195D01*
X-5321Y2183D01*
X-5300Y2179D01*
X-5279Y2183D01*
X-5260Y2195D01*
X-5258Y2199D01*
X-4784D01*
X-4781Y2187D01*
X-4791Y2182D01*
X-4811Y2167D01*
X-4826Y2147D01*
X-4836Y2124D01*
X-4839Y2100D01*
X-4836Y2075D01*
X-4826Y2052D01*
X-4811Y2032D01*
X-4799Y2022D01*
X-4803Y2010D01*
X-5283D01*
X-5288Y2017D01*
X-5306Y2029D01*
X-5328Y2034D01*
X-5349Y2029D01*
X-5367Y2017D01*
X-5379Y1999D01*
X-5384Y1977D01*
X-5379Y1956D01*
X-5367Y1938D01*
X-5349Y1926D01*
X-5328Y1921D01*
X-5306Y1926D01*
X-5288Y1938D01*
X-5284Y1943D01*
X-4788D01*
X-4785Y1931D01*
X-4791Y1928D01*
X-4811Y1913D01*
X-4824Y1896D01*
X-5597D01*
X-5697Y1996D01*
Y2484D01*
X-5688Y2485D01*
X-5684Y2486D01*
X-5679D01*
X-5659Y2490D01*
X-5642Y2502D01*
X-5630Y2519D01*
X-5626Y2539D01*
Y2557D01*
X-5628D01*
X-5627Y2565D01*
X-5629Y2583D01*
X-5626D01*
Y2601D01*
X-5630Y2621D01*
X-5642Y2638D01*
X-5659Y2650D01*
X-5679Y2654D01*
X-5735D01*
Y2648D01*
X-5760D01*
Y2654D01*
X-5816D01*
X-5836Y2650D01*
X-5853Y2638D01*
X-5865Y2621D01*
X-5869Y2601D01*
Y2583D01*
X-5866D01*
X-5868Y2565D01*
X-5867Y2557D01*
X-5869D01*
Y2539D01*
X-5865Y2519D01*
X-5853Y2502D01*
X-5836Y2490D01*
X-5816Y2486D01*
X-5811D01*
X-5807Y2485D01*
X-5798Y2484D01*
Y1975D01*
X-5798Y1975D01*
X-5798D01*
X-5795Y1955D01*
X-5784Y1939D01*
X-5668Y1824D01*
Y305D01*
X-5665Y285D01*
X-5665Y285D01*
X-5664Y290D01*
X-5610D01*
Y278D01*
X-5597D01*
Y224D01*
X-5589Y226D01*
X-5570Y238D01*
X-5558Y256D01*
X-5557Y262D01*
X-5553Y268D01*
X-5549Y288D01*
X-5553Y307D01*
X-5564Y324D01*
X-5564Y324D01*
X-5567Y326D01*
Y1051D01*
X-5554Y1055D01*
X-5550Y1048D01*
X-5531Y1036D01*
X-5510Y1031D01*
X-5489Y1036D01*
X-5470Y1048D01*
X-5465Y1056D01*
X-5218D01*
Y1020D01*
X-5068D01*
Y1160D01*
X-5218D01*
Y1123D01*
X-5468D01*
X-5470Y1127D01*
X-5489Y1139D01*
X-5510Y1144D01*
X-5531Y1139D01*
X-5550Y1127D01*
X-5554Y1120D01*
X-5567Y1124D01*
Y1427D01*
X-5178D01*
Y1423D01*
Y1323D01*
X-4938D01*
Y1344D01*
X-4845D01*
X-4839Y1338D01*
X-4836Y1313D01*
X-4826Y1290D01*
X-4811Y1270D01*
X-4796Y1258D01*
X-4800Y1246D01*
X-5264D01*
X-5268Y1252D01*
X-5286Y1264D01*
X-5308Y1269D01*
X-5329Y1264D01*
X-5347Y1252D01*
X-5359Y1234D01*
X-5364Y1212D01*
X-5359Y1191D01*
X-5347Y1173D01*
X-5329Y1161D01*
X-5308Y1156D01*
X-5286Y1161D01*
X-5268Y1173D01*
X-5264Y1179D01*
X-4793D01*
X-4791Y1167D01*
X-4791Y1166D01*
X-4811Y1151D01*
X-4826Y1131D01*
X-4830Y1123D01*
X-4898D01*
Y1160D01*
X-5048D01*
Y1020D01*
X-4898D01*
Y1056D01*
X-4835D01*
X-4826Y1036D01*
X-4811Y1016D01*
X-4791Y1001D01*
X-4768Y991D01*
X-4743Y988D01*
X-4719Y991D01*
X-4696Y1001D01*
X-4676Y1016D01*
X-4661Y1036D01*
X-4651Y1059D01*
X-4648Y1084D01*
X-4651Y1108D01*
X-4661Y1131D01*
X-4676Y1151D01*
X-4696Y1166D01*
X-4719Y1176D01*
X-4718Y1179D01*
X-4124D01*
X-4068Y1123D01*
X-4074Y1108D01*
X-4077Y1084D01*
X-4074Y1059D01*
X-4064Y1036D01*
X-4049Y1016D01*
X-4029Y1001D01*
X-4006Y991D01*
X-3981Y988D01*
X-3957Y991D01*
X-3934Y1001D01*
X-3914Y1016D01*
X-3899Y1036D01*
X-3892Y1050D01*
X-2961D01*
X-2949Y1053D01*
X-2938Y1060D01*
X-2938Y1060D01*
X-2938Y1060D01*
X-2850Y1148D01*
X-2838Y1143D01*
Y981D01*
X-2957Y863D01*
X-3892D01*
X-3899Y877D01*
X-3914Y897D01*
X-3934Y912D01*
X-3957Y922D01*
X-3981Y925D01*
X-4006Y922D01*
X-4029Y912D01*
X-4049Y897D01*
X-4064Y877D01*
X-4074Y854D01*
X-4077Y830D01*
X-4074Y805D01*
X-4064Y782D01*
X-4049Y762D01*
X-4029Y747D01*
X-4006Y737D01*
X-3981Y734D01*
X-3957Y737D01*
X-3934Y747D01*
X-3914Y762D01*
X-3899Y782D01*
X-3892Y796D01*
X-2943D01*
X-2930Y799D01*
X-2919Y806D01*
X-2919Y806D01*
X-2919Y806D01*
X-2790Y935D01*
X-2778Y930D01*
Y709D01*
X-2878Y609D01*
X-3892D01*
X-3899Y623D01*
X-3914Y643D01*
X-3934Y658D01*
X-3957Y668D01*
X-3981Y671D01*
X-4006Y668D01*
X-4029Y658D01*
X-4049Y643D01*
X-4064Y623D01*
X-4074Y600D01*
X-4077Y576D01*
X-4074Y551D01*
X-4064Y528D01*
X-4049Y508D01*
X-4033Y495D01*
X-4037Y483D01*
X-4062D01*
X-4075Y481D01*
X-4086Y474D01*
X-4181Y379D01*
X-4188Y368D01*
X-4191Y355D01*
Y-1060D01*
X-4188Y-1073D01*
X-4181Y-1084D01*
X-4181Y-1084D01*
X-4181Y-1084D01*
X-4031Y-1234D01*
X-4031Y-1234D01*
X-4031D01*
X-4031Y-1234D01*
X-4031D01*
X-4031Y-1234D01*
Y-1234D01*
Y-1234D01*
D01*
D01*
X-4031D01*
Y-1234D01*
X-4020Y-1241D01*
X-4008Y-1243D01*
X-3296D01*
X-3290Y-1252D01*
X-3271Y-1264D01*
X-3250Y-1269D01*
X-3229Y-1264D01*
X-3212Y-1253D01*
X-3201Y-1259D01*
Y-1584D01*
X-4783D01*
X-4796Y-1576D01*
X-4817Y-1571D01*
X-4839Y-1576D01*
X-4857Y-1588D01*
X-4869Y-1606D01*
X-4874Y-1627D01*
X-4869Y-1649D01*
X-4857Y-1667D01*
X-4839Y-1679D01*
X-4817Y-1684D01*
X-4796Y-1679D01*
X-4783Y-1671D01*
X-1850D01*
X-1833Y-1668D01*
X-1819Y-1658D01*
X-1819Y-1658D01*
X-1819Y-1658D01*
X-1718Y-1556D01*
X-1706Y-1561D01*
Y-2020D01*
X-1703Y-2033D01*
X-1696Y-2044D01*
X-1696Y-2044D01*
X-1696Y-2044D01*
X-1498Y-2242D01*
Y-2242D01*
D01*
Y-2242D01*
X-1498Y-2242D01*
D01*
D01*
X-1498D01*
X-1498Y-2242D01*
Y-2242D01*
Y-2242D01*
D01*
D01*
X-1498D01*
Y-2242D01*
X-1487Y-2249D01*
X-1474Y-2252D01*
X1115D01*
X1119Y-2258D01*
X1137Y-2270D01*
X1159Y-2275D01*
X1180Y-2270D01*
X1198Y-2258D01*
X1210Y-2240D01*
X1215Y-2219D01*
X1210Y-2197D01*
X1198Y-2179D01*
X1180Y-2167D01*
X1159Y-2162D01*
X1137Y-2167D01*
X1119Y-2179D01*
X1118Y-2180D01*
X1106Y-2178D01*
X1104Y-2173D01*
X1180Y-2097D01*
X1187Y-2086D01*
X1187Y-2086D01*
X1187Y-2086D01*
X1190Y-2074D01*
Y-1972D01*
X1196Y-1968D01*
X1208Y-1950D01*
X1213Y-1929D01*
X1208Y-1907D01*
X1196Y-1889D01*
X1178Y-1877D01*
X1156Y-1872D01*
X1135Y-1877D01*
X1117Y-1889D01*
X1105Y-1907D01*
X1100Y-1929D01*
X1105Y-1950D01*
X1117Y-1968D01*
X1123Y-1972D01*
Y-2060D01*
X1064Y-2119D01*
X-1419D01*
X-1582Y-1956D01*
Y-1098D01*
X-1571Y-1095D01*
X-1561Y-1103D01*
Y-1123D01*
X-1567D01*
Y-1273D01*
X-1427D01*
Y-1123D01*
X-1494D01*
Y-1097D01*
X-1490Y-1095D01*
X-1478Y-1076D01*
X-1476Y-1065D01*
X-1465Y-1058D01*
X-1450Y-1061D01*
X-1429Y-1057D01*
X-1410Y-1045D01*
X-1406Y-1038D01*
X-1359D01*
X-1311Y-1086D01*
Y-1294D01*
X-1348D01*
Y-1336D01*
X-1427D01*
Y-1293D01*
X-1567D01*
Y-1443D01*
X-1427D01*
Y-1403D01*
X-1348D01*
Y-1444D01*
X-1208D01*
Y-1294D01*
X-1244D01*
Y-1212D01*
X-1232Y-1208D01*
X-1230Y-1212D01*
X-1211Y-1224D01*
X-1190Y-1229D01*
X-1169Y-1224D01*
X-1150Y-1212D01*
X-1146Y-1206D01*
X-1110D01*
Y-1297D01*
X-1163D01*
Y-1447D01*
X-1023D01*
Y-1297D01*
X-1043D01*
Y-1173D01*
X-1043Y-1173D01*
X-1043Y-1173D01*
Y-1173D01*
Y-1102D01*
X-1002D01*
Y-962D01*
X-1042D01*
Y-905D01*
X-1032Y-897D01*
X-1025Y-898D01*
X-1016Y-896D01*
X-962Y-951D01*
X-966Y-962D01*
X-982D01*
Y-1102D01*
X-921D01*
Y-1304D01*
X-925D01*
Y-1454D01*
X-785D01*
Y-1304D01*
X-854D01*
Y-1273D01*
X-744D01*
X-740Y-1280D01*
X-721Y-1292D01*
X-700Y-1296D01*
X-679Y-1292D01*
X-660Y-1280D01*
X-648Y-1261D01*
X-644Y-1240D01*
X-648Y-1219D01*
X-660Y-1200D01*
X-679Y-1188D01*
X-700Y-1184D01*
X-721Y-1188D01*
X-740Y-1200D01*
X-744Y-1207D01*
X-854D01*
Y-1102D01*
X-832D01*
Y-963D01*
X-811Y-959D01*
X-793Y-947D01*
X-790Y-944D01*
X-778Y-947D01*
Y-1055D01*
X-776Y-1068D01*
X-776Y-1068D01*
Y-1168D01*
X-626D01*
Y-1028D01*
X-712D01*
Y-858D01*
X-703D01*
Y-858D01*
X-553D01*
Y-718D01*
X-619D01*
Y-683D01*
X-619Y-682D01*
X-619Y-682D01*
Y-682D01*
X-619D01*
X-619Y-682D01*
X-622Y-670D01*
X-629Y-659D01*
X-672Y-615D01*
X-671Y-613D01*
X-459D01*
X-446Y-610D01*
X-436Y-603D01*
X-436Y-603D01*
X-436Y-603D01*
X-391Y-558D01*
X-387Y-552D01*
X-339D01*
Y-531D01*
X-143D01*
Y-611D01*
X-39D01*
Y-711D01*
X-58Y-719D01*
X-80Y-736D01*
X-97Y-758D01*
X-100Y-765D01*
X-112D01*
X-115Y-758D01*
X-132Y-736D01*
X-154Y-719D01*
X-179Y-709D01*
X-206Y-705D01*
X-233Y-709D01*
X-258Y-719D01*
X-280Y-736D01*
X-297Y-758D01*
X-307Y-783D01*
X-311Y-810D01*
X-307Y-837D01*
X-297Y-862D01*
X-280Y-884D01*
X-258Y-901D01*
X-233Y-911D01*
X-206Y-915D01*
X-179Y-911D01*
X-154Y-901D01*
X-132Y-884D01*
X-115Y-862D01*
X-112Y-855D01*
X-100D01*
X-97Y-862D01*
X-80Y-884D01*
X-58Y-901D01*
X-33Y-911D01*
X-6Y-915D01*
X21Y-911D01*
X46Y-901D01*
X68Y-884D01*
X85Y-862D01*
X95Y-837D01*
X99Y-810D01*
X95Y-783D01*
X85Y-758D01*
X68Y-736D01*
X46Y-719D01*
X27Y-711D01*
Y-611D01*
X47D01*
Y-441D01*
X-143D01*
Y-464D01*
X-339D01*
Y-412D01*
X-489D01*
Y-546D01*
X-509D01*
Y-412D01*
X-659D01*
Y-479D01*
X-883D01*
X-891Y-469D01*
X-889Y-462D01*
X-892Y-450D01*
X-899Y-439D01*
Y-436D01*
X-892Y-425D01*
X-889Y-412D01*
X-892Y-400D01*
X-899Y-389D01*
X-910Y-382D01*
X-923Y-379D01*
X-973D01*
X-985Y-382D01*
X-990Y-378D01*
X-994Y-373D01*
X-994Y-373D01*
X-992Y-360D01*
Y-336D01*
X-992Y-335D01*
Y-303D01*
X-868D01*
Y-342D01*
X-728D01*
Y-303D01*
X-670D01*
Y-345D01*
X-460D01*
Y-195D01*
X-670D01*
Y-237D01*
X-728D01*
Y-192D01*
X-868D01*
Y-237D01*
X-992D01*
Y-210D01*
X-994Y-197D01*
X-1001Y-186D01*
X-1076Y-111D01*
X-1087Y-104D01*
X-1100Y-102D01*
X-1325D01*
X-1331Y-90D01*
X-1323Y-79D01*
X-1319Y-57D01*
X-1323Y-36D01*
X-1335Y-18D01*
X-1354Y-6D01*
X-1375Y-1D01*
X-1396Y-6D01*
X-1415Y-18D01*
X-1419Y-24D01*
X-2148D01*
X-2160Y-27D01*
X-2160Y-27D01*
X-2160Y-27D01*
X-2161Y-27D01*
X-2168Y-17D01*
X-2168Y-16D01*
X-2166Y-8D01*
X-2207D01*
Y-49D01*
X-2202Y-47D01*
X-2196Y-59D01*
X-2329Y-191D01*
X-2336Y-202D01*
X-2338Y-215D01*
Y-612D01*
X-2336Y-625D01*
X-2329Y-636D01*
X-2329Y-636D01*
X-2329Y-636D01*
X-2261Y-704D01*
X-2250Y-711D01*
X-2250Y-711D01*
X-2250Y-711D01*
D01*
X-2250Y-711D01*
X-2250Y-711D01*
X-2238Y-713D01*
X-2196D01*
X-2192Y-725D01*
X-2204Y-735D01*
X-2219Y-755D01*
X-2229Y-778D01*
X-2230Y-784D01*
X-3140D01*
X-3388Y-536D01*
X-3391Y-521D01*
X-3403Y-503D01*
X-3421Y-491D01*
X-3442Y-486D01*
X-3464Y-491D01*
X-3482Y-503D01*
X-3494Y-521D01*
X-3499Y-543D01*
X-3494Y-564D01*
X-3482Y-582D01*
X-3464Y-594D01*
X-3449Y-597D01*
X-3201Y-845D01*
Y-1166D01*
X-3212Y-1172D01*
X-3229Y-1161D01*
X-3229Y-1161D01*
X-3235Y-1157D01*
X-3247Y-1154D01*
X-3260Y-1157D01*
X-3264Y-1159D01*
X-3271Y-1161D01*
X-3290Y-1173D01*
X-3292Y-1177D01*
X-3994D01*
X-4124Y-1046D01*
Y341D01*
X-4049Y417D01*
X-4034D01*
X-4029Y404D01*
X-4049Y389D01*
X-4064Y369D01*
X-4074Y346D01*
X-4077Y322D01*
X-4074Y297D01*
X-4064Y274D01*
X-4049Y254D01*
X-4029Y239D01*
X-4006Y229D01*
X-3981Y226D01*
X-3965Y228D01*
X-3851Y114D01*
Y114D01*
D01*
Y114D01*
X-3851Y114D01*
D01*
D01*
X-3851D01*
X-3851Y114D01*
Y114D01*
X-3851Y114D01*
Y114D01*
X-3840Y107D01*
X-3827Y104D01*
X180D01*
X193Y107D01*
X204Y114D01*
X204Y114D01*
X204Y114D01*
X329Y239D01*
X329Y239D01*
X329Y239D01*
X336Y250D01*
X338Y262D01*
Y1945D01*
X336Y1958D01*
X329Y1969D01*
X209Y2089D01*
X198Y2096D01*
X185Y2098D01*
X-1048D01*
X-1052Y2110D01*
X-1048Y2113D01*
X-1044Y2119D01*
X393D01*
X531Y1982D01*
Y1657D01*
X489D01*
Y1517D01*
X639D01*
Y1657D01*
X598D01*
Y1996D01*
X595Y2009D01*
X588Y2019D01*
X431Y2176D01*
X420Y2184D01*
X407Y2186D01*
X-1044D01*
X-1048Y2192D01*
X-1066Y2205D01*
X-1088Y2209D01*
X-1109Y2205D01*
X-1127Y2192D01*
X-1131Y2186D01*
X-1207D01*
Y2223D01*
X-1357D01*
Y2108D01*
X-1368Y2103D01*
X-1377Y2111D01*
Y2223D01*
X-1512D01*
Y2857D01*
X-1503Y2863D01*
X-1491Y2881D01*
X-1489Y2890D01*
X-1543D01*
Y2900D01*
X-25D01*
X255Y2900D01*
X263Y2890D01*
X259Y2870D01*
X263Y2849D01*
X275Y2830D01*
X294Y2818D01*
X315Y2814D01*
X336Y2818D01*
X349Y2827D01*
X907D01*
X924Y2830D01*
X938Y2839D01*
X938Y2839D01*
X938Y2839D01*
X999Y2900D01*
X1242Y2900D01*
Y-2359D01*
X-6312D01*
Y2489D01*
X-6300Y2495D01*
X-6286Y2485D01*
X-6266Y2481D01*
X-6220D01*
Y2482D01*
X-6195D01*
Y2481D01*
X-6149D01*
X-6129Y2485D01*
X-6112Y2497D01*
X-6100Y2514D01*
X-6099Y2522D01*
X-6098Y2523D01*
X-6090Y2543D01*
X-6087Y2565D01*
X-6090Y2587D01*
X-6098Y2607D01*
X-6099Y2608D01*
X-6100Y2616D01*
X-6112Y2633D01*
X-6129Y2645D01*
X-6149Y2649D01*
X-6157D01*
Y3566D01*
X-6139D01*
X-6119Y3570D01*
X-6102Y3582D01*
X-6090Y3599D01*
X-6090Y3599D01*
X-5865D01*
X-5865Y3599D01*
X-5853Y3582D01*
X-5836Y3570D01*
X-5816Y3566D01*
X-5760D01*
Y3567D01*
X-5735D01*
Y3566D01*
X-5679D01*
X-5659Y3570D01*
X-5642Y3582D01*
X-5630Y3599D01*
X-5626Y3619D01*
Y3637D01*
X-5628D01*
X-5627Y3650D01*
X-5628Y3663D01*
X-5626D01*
Y3681D01*
X-5630Y3701D01*
X-5642Y3718D01*
X-5659Y3730D01*
X-5679Y3734D01*
X-5735D01*
Y3733D01*
X-5760D01*
Y3734D01*
X-5816D01*
X-5836Y3730D01*
X-5853Y3718D01*
X-5865Y3701D01*
X-5865Y3701D01*
X-6090D01*
X-6090Y3701D01*
X-6102Y3718D01*
X-6119Y3730D01*
X-6139Y3734D01*
X-6185D01*
Y3733D01*
X-6210D01*
Y3734D01*
X-6256D01*
X-6276Y3730D01*
X-6293Y3718D01*
X-6300Y3709D01*
X-6312Y3712D01*
Y3807D01*
X-5478D01*
Y3440D01*
D02*
G37*
G36*
X-2170Y3297D02*
X-2173D01*
Y3297D01*
X-2236D01*
Y3227D01*
X-2248D01*
Y3215D01*
X-2323D01*
Y3157D01*
X-2299D01*
Y2952D01*
X-2318D01*
Y2895D01*
X-2243D01*
Y2882D01*
X-2231D01*
Y2812D01*
X-2168D01*
Y2852D01*
X-1578D01*
Y2340D01*
X-1590Y2335D01*
X-1684Y2429D01*
X-1695Y2436D01*
X-1708Y2438D01*
X-2812D01*
X-2825Y2436D01*
X-2836Y2429D01*
X-2945Y2320D01*
X-2957Y2325D01*
Y2596D01*
X-2950Y2600D01*
X-2938Y2619D01*
X-2934Y2640D01*
X-2938Y2661D01*
X-2950Y2680D01*
X-2969Y2692D01*
X-2990Y2696D01*
X-2982Y2704D01*
X-2748D01*
X-2735Y2707D01*
X-2724Y2714D01*
X-2724Y2714D01*
X-2724Y2714D01*
X-2590Y2848D01*
X-2583Y2846D01*
X-2561Y2851D01*
X-2543Y2863D01*
X-2539Y2869D01*
X-2488D01*
Y2812D01*
X-2338D01*
Y2952D01*
X-2488D01*
Y2936D01*
X-2539D01*
X-2543Y2942D01*
X-2561Y2954D01*
X-2583Y2959D01*
X-2604Y2954D01*
X-2622Y2942D01*
X-2634Y2924D01*
X-2639Y2902D01*
X-2637Y2895D01*
X-2761Y2771D01*
X-3924D01*
X-3928Y2783D01*
X-3914Y2794D01*
X-3899Y2814D01*
X-3892Y2828D01*
X-3422D01*
X-3422Y2828D01*
X-3404Y2816D01*
X-3383Y2811D01*
X-3361Y2816D01*
X-3343Y2828D01*
X-3331Y2846D01*
X-3326Y2867D01*
X-3331Y2889D01*
X-3343Y2907D01*
X-3347Y2910D01*
Y3088D01*
X-3241Y3194D01*
X-2493D01*
Y3157D01*
X-2343D01*
Y3297D01*
X-2493D01*
Y3261D01*
X-3255D01*
X-3268Y3258D01*
X-3279Y3251D01*
X-3404Y3126D01*
X-3411Y3115D01*
X-3414Y3102D01*
Y2913D01*
X-3422Y2907D01*
X-3430Y2895D01*
X-3892D01*
X-3899Y2909D01*
X-3914Y2929D01*
X-3934Y2944D01*
X-3957Y2954D01*
X-3981Y2957D01*
X-4006Y2954D01*
X-4024Y2947D01*
X-4086Y3009D01*
X-4097Y3016D01*
X-4110Y3018D01*
X-4697D01*
X-4700Y3031D01*
X-4696Y3033D01*
X-4676Y3048D01*
X-4661Y3068D01*
X-4651Y3091D01*
X-4648Y3116D01*
X-4651Y3140D01*
X-4660Y3163D01*
X-4650Y3170D01*
X-4549Y3069D01*
X-4549D01*
X-4549Y3069D01*
X-4549Y3069D01*
Y3069D01*
X-4538Y3062D01*
X-4525Y3059D01*
X-4058D01*
X-4049Y3048D01*
X-4029Y3033D01*
X-4006Y3023D01*
X-3981Y3020D01*
X-3957Y3023D01*
X-3934Y3033D01*
X-3914Y3048D01*
X-3899Y3068D01*
X-3889Y3091D01*
X-3886Y3116D01*
X-3889Y3140D01*
X-3899Y3163D01*
X-3914Y3183D01*
X-3934Y3198D01*
X-3957Y3208D01*
X-3981Y3211D01*
X-4006Y3208D01*
X-4029Y3198D01*
X-4049Y3183D01*
X-4064Y3163D01*
X-4074Y3140D01*
X-4076Y3126D01*
X-4180D01*
X-4186Y3137D01*
X-4178Y3149D01*
X-4174Y3170D01*
X-4178Y3191D01*
X-4190Y3210D01*
X-4209Y3222D01*
X-4229Y3226D01*
X-4396Y3393D01*
X-4407Y3400D01*
X-4420Y3403D01*
X-4654D01*
X-4661Y3417D01*
X-4676Y3437D01*
X-4696Y3452D01*
X-4695Y3458D01*
X-4042D01*
X-4038Y3446D01*
X-4049Y3437D01*
X-4064Y3417D01*
X-4074Y3394D01*
X-4077Y3370D01*
X-4074Y3345D01*
X-4064Y3322D01*
X-4049Y3302D01*
X-4029Y3287D01*
X-4006Y3277D01*
X-3981Y3274D01*
X-3957Y3277D01*
X-3934Y3287D01*
X-3914Y3302D01*
X-3899Y3322D01*
X-3889Y3345D01*
X-3886Y3370D01*
X-3889Y3394D01*
X-3899Y3417D01*
X-3914Y3437D01*
X-3934Y3452D01*
X-3933Y3458D01*
X-3863D01*
Y3017D01*
X-3872Y3004D01*
X-3876Y2983D01*
X-3872Y2961D01*
X-3860Y2943D01*
X-3841Y2931D01*
X-3820Y2926D01*
X-3799Y2931D01*
X-3780Y2943D01*
X-3768Y2961D01*
X-3764Y2983D01*
X-3768Y3004D01*
X-3777Y3017D01*
Y3458D01*
X-3485D01*
X-3469Y3447D01*
X-3447Y3442D01*
X-3426Y3447D01*
X-3410Y3458D01*
X-3119D01*
X-3106Y3455D01*
X-3090Y3458D01*
X-3076Y3468D01*
X-3011Y3533D01*
X-2996Y3536D01*
X-2978Y3548D01*
X-2966Y3566D01*
X-2961Y3588D01*
X-2966Y3609D01*
X-2978Y3627D01*
X-2996Y3639D01*
X-3017Y3644D01*
X-3039Y3639D01*
X-3057Y3627D01*
X-3069Y3609D01*
X-3072Y3594D01*
X-3127Y3539D01*
X-3410D01*
X-3426Y3550D01*
X-3447Y3555D01*
X-3469Y3550D01*
X-3485Y3539D01*
X-3807D01*
X-3820Y3542D01*
X-3833Y3539D01*
X-3915D01*
X-3920Y3551D01*
X-3914Y3556D01*
X-3899Y3576D01*
X-3889Y3599D01*
X-3886Y3624D01*
X-3889Y3648D01*
X-3899Y3671D01*
X-3914Y3691D01*
X-3934Y3706D01*
X-3957Y3716D01*
X-3981Y3719D01*
X-4006Y3716D01*
X-4029Y3706D01*
X-4049Y3691D01*
X-4064Y3671D01*
X-4074Y3648D01*
X-4077Y3624D01*
X-4074Y3599D01*
X-4064Y3576D01*
X-4049Y3556D01*
X-4043Y3551D01*
X-4048Y3539D01*
X-4648D01*
Y3719D01*
X-4838D01*
Y3657D01*
X-4917D01*
Y3807D01*
X-2170D01*
Y3297D01*
D02*
G37*
G36*
X-5097Y3440D02*
X-5097D01*
Y3437D01*
X-5106Y3428D01*
X-5252D01*
X-5297Y3474D01*
Y3569D01*
X-5288Y3577D01*
X-5272Y3574D01*
X-5251Y3578D01*
X-5233Y3590D01*
X-5221Y3609D01*
X-5216Y3630D01*
X-5221Y3651D01*
X-5233Y3670D01*
X-5251Y3682D01*
X-5272Y3686D01*
X-5288Y3683D01*
X-5297Y3691D01*
Y3807D01*
X-5097D01*
Y3440D01*
D02*
G37*
G36*
X-5701Y3659D02*
X-5698Y3651D01*
X-5698Y3650D01*
X-5698Y3649D01*
X-5701Y3641D01*
X-5709Y3638D01*
X-5710Y3638D01*
X-5760D01*
Y3650D01*
Y3662D01*
X-5710D01*
X-5710Y3662D01*
Y3662D01*
X-5709Y3662D01*
X-5701Y3659D01*
D02*
G37*
G36*
X-6185Y3650D02*
X-6210D01*
Y3662D01*
X-6185D01*
Y3650D01*
D02*
G37*
G36*
X-4283Y3186D02*
X-4286Y3170D01*
X-4282Y3149D01*
X-4274Y3137D01*
X-4280Y3126D01*
X-4511D01*
X-4659Y3274D01*
X-4670Y3281D01*
X-4683Y3283D01*
X-4683Y3297D01*
X-4676Y3302D01*
X-4661Y3322D01*
X-4654Y3336D01*
X-4433D01*
X-4283Y3186D01*
D02*
G37*
G36*
X-1744Y-103D02*
X-1748Y-104D01*
X-1759Y-111D01*
X-1852Y-204D01*
X-1858Y-202D01*
X-1883Y-199D01*
X-1907Y-202D01*
X-1930Y-212D01*
X-1950Y-227D01*
X-1965Y-247D01*
X-1975Y-270D01*
X-1978Y-294D01*
X-1975Y-319D01*
X-1965Y-342D01*
X-1950Y-362D01*
X-1944Y-367D01*
X-1948Y-379D01*
X-1975D01*
X-1988Y-382D01*
X-1999Y-389D01*
X-2081Y-471D01*
X-2089Y-466D01*
X-2112Y-456D01*
X-2136Y-453D01*
X-2161Y-456D01*
X-2184Y-466D01*
X-2204Y-481D01*
X-2219Y-501D01*
X-2229Y-524D01*
X-2232Y-548D01*
X-2229Y-573D01*
X-2219Y-596D01*
X-2204Y-616D01*
X-2184Y-631D01*
X-2178Y-634D01*
X-2180Y-647D01*
X-2224D01*
X-2272Y-599D01*
Y-229D01*
X-2134Y-91D01*
X-1745D01*
X-1744Y-103D01*
D02*
G37*
G36*
X-4069Y2897D02*
X-4074Y2886D01*
X-4077Y2862D01*
X-4074Y2837D01*
X-4064Y2814D01*
X-4049Y2794D01*
X-4035Y2783D01*
X-4039Y2771D01*
X-4636D01*
X-4668Y2803D01*
X-4661Y2814D01*
X-4651Y2837D01*
X-4648Y2862D01*
X-4651Y2886D01*
X-4661Y2909D01*
X-4676Y2929D01*
X-4696Y2944D01*
X-4694Y2952D01*
X-4124D01*
X-4069Y2897D01*
D02*
G37*
%LPC*%
G36*
X-383Y-718D02*
X-533D01*
Y-858D01*
X-492D01*
Y-885D01*
X-498Y-890D01*
X-510Y-908D01*
X-514Y-929D01*
X-510Y-951D01*
X-498Y-969D01*
X-480Y-981D01*
X-458Y-985D01*
X-437Y-981D01*
X-419Y-969D01*
X-406Y-951D01*
X-402Y-929D01*
X-406Y-908D01*
X-419Y-890D01*
X-425Y-885D01*
Y-858D01*
X-383D01*
Y-718D01*
D02*
G37*
G36*
X-2584Y-235D02*
X-2625D01*
Y-276D01*
X-2616Y-274D01*
X-2598Y-262D01*
X-2586Y-244D01*
X-2584Y-235D01*
D02*
G37*
G36*
X-2650D02*
X-2691D01*
X-2689Y-244D01*
X-2677Y-262D01*
X-2659Y-274D01*
X-2650Y-276D01*
Y-235D01*
D02*
G37*
G36*
X-2074Y-982D02*
X-2224D01*
Y-1122D01*
X-2074D01*
Y-1081D01*
X-2024D01*
X-2020Y-1087D01*
Y-1098D01*
X-2032Y-1116D01*
X-2036Y-1138D01*
X-2032Y-1159D01*
X-2020Y-1177D01*
X-2020Y-1177D01*
X-2059Y-1216D01*
X-2072D01*
Y-1180D01*
X-2222D01*
Y-1320D01*
X-2072D01*
Y-1283D01*
X-2045D01*
X-2032Y-1281D01*
X-2021Y-1273D01*
X-1956Y-1209D01*
X-1956Y-1209D01*
X-1956Y-1209D01*
X-1949Y-1198D01*
X-1947Y-1185D01*
Y-1181D01*
X-1940Y-1177D01*
X-1928Y-1159D01*
X-1924Y-1138D01*
X-1928Y-1116D01*
X-1940Y-1098D01*
Y-1087D01*
X-1928Y-1069D01*
X-1924Y-1048D01*
X-1928Y-1026D01*
X-1940Y-1008D01*
X-1959Y-996D01*
X-1980Y-991D01*
X-2001Y-996D01*
X-2020Y-1008D01*
X-2024Y-1014D01*
X-2074D01*
Y-982D01*
D02*
G37*
G36*
X-6Y-955D02*
X-33Y-959D01*
X-58Y-969D01*
X-80Y-986D01*
X-97Y-1008D01*
X-100Y-1015D01*
X-112D01*
X-115Y-1008D01*
X-132Y-986D01*
X-154Y-969D01*
X-179Y-959D01*
X-206Y-955D01*
X-233Y-959D01*
X-258Y-969D01*
X-280Y-986D01*
X-297Y-1008D01*
X-307Y-1033D01*
X-307Y-1034D01*
X-456D01*
Y-1028D01*
X-606D01*
Y-1168D01*
X-549D01*
Y-1262D01*
X-585D01*
Y-1412D01*
X-445D01*
Y-1262D01*
X-482D01*
Y-1168D01*
X-456D01*
Y-1101D01*
X-301D01*
X-297Y-1112D01*
X-280Y-1134D01*
X-258Y-1151D01*
X-233Y-1161D01*
X-206Y-1165D01*
X-179Y-1161D01*
X-154Y-1151D01*
X-132Y-1134D01*
X-115Y-1112D01*
X-112Y-1105D01*
X-100D01*
X-97Y-1112D01*
X-80Y-1134D01*
X-58Y-1151D01*
X-39Y-1159D01*
Y-1260D01*
X-93Y-1313D01*
X-138D01*
Y-1272D01*
X-278D01*
Y-1422D01*
X-138D01*
Y-1380D01*
X-79D01*
X-66Y-1378D01*
X-56Y-1370D01*
X-56Y-1370D01*
X-56Y-1370D01*
X18Y-1297D01*
X25Y-1286D01*
X25Y-1286D01*
X25Y-1286D01*
X27Y-1273D01*
Y-1159D01*
X46Y-1151D01*
X68Y-1134D01*
X85Y-1112D01*
X95Y-1087D01*
X99Y-1060D01*
X95Y-1033D01*
X85Y-1008D01*
X68Y-986D01*
X46Y-969D01*
X21Y-959D01*
X-6Y-955D01*
D02*
G37*
G36*
X-5865Y-885D02*
X-6055D01*
Y-1075D01*
X-5865D01*
Y-885D01*
D02*
G37*
G36*
X-4475Y389D02*
X-4496Y384D01*
X-4515Y372D01*
X-4527Y354D01*
X-4531Y332D01*
X-4527Y311D01*
X-4515Y293D01*
X-4508Y289D01*
Y-779D01*
X-4515Y-783D01*
X-4527Y-801D01*
X-4531Y-823D01*
X-4527Y-844D01*
X-4515Y-862D01*
X-4496Y-874D01*
X-4475Y-879D01*
X-4454Y-874D01*
X-4435Y-862D01*
X-4423Y-844D01*
X-4419Y-823D01*
X-4423Y-801D01*
X-4435Y-783D01*
X-4442Y-779D01*
Y289D01*
X-4435Y293D01*
X-4423Y311D01*
X-4419Y332D01*
X-4423Y354D01*
X-4435Y372D01*
X-4454Y384D01*
X-4475Y389D01*
D02*
G37*
G36*
X-2149Y-200D02*
X-2161Y-202D01*
X-2184Y-212D01*
X-2204Y-227D01*
X-2219Y-247D01*
X-2229Y-270D01*
X-2231Y-282D01*
X-2149D01*
Y-200D01*
D02*
G37*
G36*
X-2124D02*
Y-282D01*
X-2042D01*
X-2044Y-270D01*
X-2054Y-247D01*
X-2069Y-227D01*
X-2089Y-212D01*
X-2112Y-202D01*
X-2124Y-200D01*
D02*
G37*
G36*
X-5965Y102D02*
X-5994Y99D01*
X-6022Y87D01*
X-6045Y69D01*
X-6063Y46D01*
X-6075Y18D01*
X-6078Y-11D01*
X-6075Y-40D01*
X-6063Y-68D01*
X-6045Y-91D01*
X-6022Y-109D01*
X-5994Y-121D01*
X-5965Y-124D01*
X-5936Y-121D01*
X-5908Y-109D01*
X-5885Y-91D01*
X-5867Y-68D01*
X-5855Y-40D01*
X-5852Y-11D01*
X-5855Y18D01*
X-5867Y46D01*
X-5885Y69D01*
X-5908Y87D01*
X-5936Y99D01*
X-5965Y102D01*
D02*
G37*
G36*
X265Y-153D02*
X230Y-157D01*
X195Y-167D01*
X164Y-184D01*
X137Y-207D01*
X114Y-234D01*
X97Y-265D01*
X87Y-300D01*
X87Y-302D01*
X47D01*
Y-251D01*
X-143D01*
Y-421D01*
X47D01*
Y-369D01*
X87D01*
X87Y-370D01*
X97Y-405D01*
X114Y-436D01*
X137Y-463D01*
X164Y-486D01*
X195Y-503D01*
X230Y-513D01*
X232Y-513D01*
Y-1357D01*
X230Y-1357D01*
X195Y-1367D01*
X164Y-1384D01*
X137Y-1407D01*
X114Y-1434D01*
X97Y-1465D01*
X95Y-1473D01*
X-138D01*
Y-1442D01*
X-278D01*
Y-1473D01*
X-445D01*
Y-1432D01*
X-585D01*
Y-1582D01*
X-445D01*
Y-1540D01*
X-278D01*
Y-1592D01*
X-138D01*
Y-1540D01*
X84D01*
X87Y-1570D01*
X97Y-1605D01*
X114Y-1636D01*
X137Y-1663D01*
X164Y-1686D01*
X195Y-1703D01*
X230Y-1713D01*
X265Y-1717D01*
X300Y-1713D01*
X335Y-1703D01*
X366Y-1686D01*
X393Y-1663D01*
X416Y-1636D01*
X433Y-1605D01*
X443Y-1570D01*
X447Y-1535D01*
X443Y-1500D01*
X433Y-1465D01*
X416Y-1434D01*
X393Y-1407D01*
X366Y-1384D01*
X335Y-1367D01*
X300Y-1357D01*
X298Y-1357D01*
Y-513D01*
X300Y-513D01*
X335Y-503D01*
X366Y-486D01*
X393Y-463D01*
X416Y-436D01*
X433Y-405D01*
X443Y-370D01*
X447Y-335D01*
X443Y-300D01*
X433Y-265D01*
X416Y-234D01*
X393Y-207D01*
X366Y-184D01*
X335Y-167D01*
X300Y-157D01*
X265Y-153D01*
D02*
G37*
G36*
X-5853Y-407D02*
X-6078D01*
Y-632D01*
X-5853D01*
Y-407D01*
D02*
G37*
G36*
X-2149Y-307D02*
X-2231D01*
X-2229Y-319D01*
X-2219Y-342D01*
X-2204Y-362D01*
X-2184Y-377D01*
X-2161Y-387D01*
X-2149Y-389D01*
Y-307D01*
D02*
G37*
G36*
X-2042D02*
X-2124D01*
Y-389D01*
X-2112Y-387D01*
X-2089Y-377D01*
X-2069Y-362D01*
X-2054Y-342D01*
X-2044Y-319D01*
X-2042Y-307D01*
D02*
G37*
G36*
X-5947Y-1140D02*
Y-1221D01*
X-5866D01*
X-5867Y-1209D01*
X-5877Y-1186D01*
X-5892Y-1166D01*
X-5912Y-1151D01*
X-5935Y-1141D01*
X-5947Y-1140D01*
D02*
G37*
G36*
X-5865Y-1705D02*
X-6055D01*
Y-1895D01*
X-5865D01*
Y-1705D01*
D02*
G37*
G36*
X-460Y75D02*
X-670D01*
Y43D01*
X-750D01*
X-767Y40D01*
X-781Y31D01*
X-828Y-17D01*
X-831Y-22D01*
X-868D01*
Y-172D01*
X-728D01*
Y-43D01*
X-670D01*
Y-75D01*
X-460D01*
Y-43D01*
X280D01*
X487Y-250D01*
Y-1802D01*
X367Y-1922D01*
X17D01*
X14Y-1910D01*
X25Y-1902D01*
X37Y-1884D01*
X41Y-1862D01*
X37Y-1841D01*
X25Y-1823D01*
X6Y-1811D01*
X-15Y-1806D01*
X-36Y-1811D01*
X-38Y-1812D01*
X-1340D01*
X-1341Y-1811D01*
X-1362Y-1806D01*
X-1384Y-1811D01*
X-1402Y-1823D01*
X-1414Y-1841D01*
X-1419Y-1862D01*
X-1414Y-1884D01*
X-1402Y-1902D01*
X-1384Y-1914D01*
X-1362Y-1919D01*
X-1341Y-1914D01*
X-1340Y-1913D01*
X-167D01*
X-161Y-1925D01*
X-167Y-1934D01*
X-171Y-1955D01*
X-167Y-1976D01*
X-155Y-1995D01*
X-136Y-2007D01*
X-115Y-2011D01*
X-101Y-2008D01*
X385D01*
X402Y-2005D01*
X416Y-1996D01*
X416Y-1996D01*
X416Y-1996D01*
X561Y-1851D01*
X570Y-1837D01*
X570Y-1837D01*
X570Y-1837D01*
X573Y-1820D01*
Y-233D01*
X570Y-216D01*
X561Y-202D01*
X328Y31D01*
X314Y40D01*
X297Y43D01*
X-460D01*
Y75D01*
D02*
G37*
G36*
X-1105Y-1703D02*
X-1146D01*
X-1144Y-1711D01*
X-1132Y-1730D01*
X-1114Y-1742D01*
X-1105Y-1744D01*
Y-1703D01*
D02*
G37*
G36*
X-1812Y-1806D02*
X-1834Y-1811D01*
X-1839Y-1814D01*
X-4275D01*
X-4276Y-1813D01*
X-4298Y-1809D01*
X-4319Y-1813D01*
X-4337Y-1825D01*
X-4349Y-1844D01*
X-4354Y-1865D01*
X-4349Y-1886D01*
X-4337Y-1905D01*
X-4319Y-1917D01*
X-4298Y-1921D01*
X-4276Y-1917D01*
X-4275Y-1916D01*
X-1825D01*
X-1812Y-1919D01*
X-1791Y-1914D01*
X-1773Y-1902D01*
X-1761Y-1884D01*
X-1756Y-1862D01*
X-1761Y-1841D01*
X-1773Y-1823D01*
X-1791Y-1811D01*
X-1812Y-1806D01*
D02*
G37*
G36*
X-5947Y-1960D02*
Y-2041D01*
X-5866D01*
X-5867Y-2029D01*
X-5877Y-2006D01*
X-5892Y-1986D01*
X-5912Y-1971D01*
X-5935Y-1961D01*
X-5947Y-1960D01*
D02*
G37*
G36*
X-5866Y-2067D02*
X-5947D01*
Y-2148D01*
X-5935Y-2147D01*
X-5912Y-2137D01*
X-5892Y-2122D01*
X-5877Y-2102D01*
X-5867Y-2079D01*
X-5866Y-2067D01*
D02*
G37*
G36*
X-5973D02*
X-6054D01*
X-6053Y-2079D01*
X-6043Y-2102D01*
X-6028Y-2122D01*
X-6008Y-2137D01*
X-5985Y-2147D01*
X-5973Y-2148D01*
Y-2067D01*
D02*
G37*
G36*
Y-1960D02*
X-5985Y-1961D01*
X-6008Y-1971D01*
X-6028Y-1986D01*
X-6043Y-2006D01*
X-6053Y-2029D01*
X-6054Y-2041D01*
X-5973D01*
Y-1960D01*
D02*
G37*
G36*
X-5920Y3439D02*
X-5941Y3434D01*
X-5960Y3422D01*
X-5972Y3404D01*
X-5976Y3383D01*
X-5972Y3361D01*
X-5960Y3343D01*
X-5953Y3339D01*
Y1762D01*
X-5951Y1750D01*
X-5944Y1739D01*
X-5944Y1739D01*
X-5944Y1739D01*
X-5803Y1599D01*
Y-1398D01*
X-5801Y-1410D01*
X-5794Y-1421D01*
X-5794Y-1421D01*
X-5794Y-1421D01*
X-5671Y-1544D01*
X-5660Y-1551D01*
X-5647Y-1553D01*
X-4979D01*
X-4975Y-1560D01*
X-4968Y-1564D01*
Y-2044D01*
X-4975Y-2048D01*
X-4987Y-2066D01*
X-4991Y-2088D01*
X-4987Y-2109D01*
X-4975Y-2127D01*
X-4956Y-2139D01*
X-4935Y-2144D01*
X-4914Y-2139D01*
X-4895Y-2127D01*
X-4883Y-2109D01*
X-4879Y-2088D01*
X-4883Y-2066D01*
X-4895Y-2048D01*
X-4902Y-2044D01*
Y-1564D01*
X-4895Y-1560D01*
X-4883Y-1541D01*
X-4879Y-1520D01*
X-4883Y-1499D01*
X-4895Y-1480D01*
X-4914Y-1468D01*
X-4935Y-1464D01*
X-4956Y-1468D01*
X-4975Y-1480D01*
X-4979Y-1487D01*
X-5634D01*
X-5737Y-1384D01*
Y1612D01*
X-5739Y1625D01*
X-5746Y1636D01*
X-5887Y1776D01*
Y3339D01*
X-5880Y3343D01*
X-5868Y3361D01*
X-5864Y3383D01*
X-5868Y3404D01*
X-5880Y3422D01*
X-5899Y3434D01*
X-5920Y3439D01*
D02*
G37*
G36*
X-1039Y-1703D02*
X-1080D01*
Y-1744D01*
X-1071Y-1742D01*
X-1053Y-1730D01*
X-1041Y-1711D01*
X-1039Y-1703D01*
D02*
G37*
G36*
X-5973Y-1247D02*
X-6054D01*
X-6053Y-1259D01*
X-6043Y-1282D01*
X-6028Y-1302D01*
X-6008Y-1317D01*
X-5985Y-1327D01*
X-5973Y-1328D01*
Y-1247D01*
D02*
G37*
G36*
X-2242Y-1180D02*
X-2392D01*
Y-1320D01*
X-2361D01*
Y-1356D01*
X-2367Y-1360D01*
X-2379Y-1379D01*
X-2384Y-1400D01*
X-2379Y-1421D01*
X-2367Y-1440D01*
X-2349Y-1452D01*
X-2327Y-1456D01*
X-2306Y-1452D01*
X-2288Y-1440D01*
X-2276Y-1421D01*
X-2271Y-1400D01*
X-2276Y-1379D01*
X-2288Y-1360D01*
X-2294Y-1356D01*
Y-1320D01*
X-2242D01*
Y-1180D01*
D02*
G37*
G36*
X-5973Y-1140D02*
X-5985Y-1141D01*
X-6008Y-1151D01*
X-6028Y-1166D01*
X-6043Y-1186D01*
X-6053Y-1209D01*
X-6054Y-1221D01*
X-5973D01*
Y-1140D01*
D02*
G37*
G36*
X-5866Y-1247D02*
X-5947D01*
Y-1328D01*
X-5935Y-1327D01*
X-5912Y-1317D01*
X-5892Y-1302D01*
X-5877Y-1282D01*
X-5867Y-1259D01*
X-5866Y-1247D01*
D02*
G37*
G36*
X-1290Y-1464D02*
X-1348D01*
Y-1527D01*
X-1290D01*
Y-1464D01*
D02*
G37*
G36*
X-785Y-1562D02*
X-843D01*
Y-1624D01*
X-785D01*
Y-1562D01*
D02*
G37*
G36*
X-1208Y-1464D02*
X-1265D01*
Y-1539D01*
Y-1614D01*
X-1208D01*
Y-1600D01*
X-1163D01*
Y-1617D01*
X-1143D01*
Y-1667D01*
X-1144Y-1669D01*
X-1146Y-1677D01*
X-1039D01*
X-1041Y-1669D01*
X-1042Y-1667D01*
Y-1617D01*
X-1023D01*
Y-1600D01*
X-925D01*
Y-1624D01*
X-868D01*
Y-1549D01*
Y-1474D01*
X-925D01*
Y-1498D01*
X-1023D01*
Y-1467D01*
X-1080D01*
Y-1542D01*
X-1105D01*
Y-1467D01*
X-1163D01*
Y-1498D01*
X-1208D01*
Y-1464D01*
D02*
G37*
G36*
X-785Y-1474D02*
X-843D01*
Y-1537D01*
X-785D01*
Y-1474D01*
D02*
G37*
G36*
X-1290Y-1552D02*
X-1348D01*
Y-1614D01*
X-1290D01*
Y-1552D01*
D02*
G37*
G36*
X485Y-38D02*
X444D01*
X446Y-46D01*
X458Y-65D01*
X476Y-77D01*
X485Y-79D01*
Y-38D01*
D02*
G37*
G36*
X-4429Y1838D02*
X-4492D01*
Y1780D01*
X-4429D01*
Y1838D01*
D02*
G37*
G36*
X-4731Y1940D02*
Y1845D01*
Y1751D01*
X-4719Y1753D01*
X-4696Y1763D01*
X-4676Y1778D01*
X-4663Y1795D01*
X-4579D01*
Y1780D01*
X-4517D01*
Y1850D01*
Y1920D01*
X-4579D01*
Y1896D01*
X-4663D01*
X-4676Y1913D01*
X-4696Y1928D01*
X-4719Y1938D01*
X-4731Y1940D01*
D02*
G37*
G36*
X-3147Y1951D02*
X-3159Y1949D01*
X-3182Y1939D01*
X-3202Y1924D01*
X-3217Y1904D01*
X-3227Y1881D01*
X-3229Y1869D01*
X-3147D01*
Y1951D01*
D02*
G37*
G36*
X-4429Y1920D02*
X-4492D01*
Y1863D01*
X-4429D01*
Y1920D01*
D02*
G37*
G36*
X-3040Y1844D02*
X-3122D01*
Y1762D01*
X-3110Y1764D01*
X-3087Y1774D01*
X-3067Y1789D01*
X-3052Y1809D01*
X-3042Y1832D01*
X-3040Y1844D01*
D02*
G37*
G36*
X-2165Y1628D02*
X-2223D01*
Y1566D01*
X-2165D01*
Y1628D01*
D02*
G37*
G36*
X809Y1657D02*
X659D01*
Y1517D01*
X809D01*
Y1550D01*
X821Y1553D01*
X824Y1549D01*
X843Y1537D01*
X864Y1532D01*
X885Y1537D01*
X904Y1549D01*
X916Y1567D01*
X920Y1588D01*
X916Y1610D01*
X904Y1628D01*
X885Y1640D01*
X864Y1645D01*
X843Y1640D01*
X824Y1628D01*
X821Y1624D01*
X809Y1627D01*
Y1657D01*
D02*
G37*
G36*
X-3147Y1844D02*
X-3229D01*
X-3227Y1832D01*
X-3217Y1809D01*
X-3202Y1789D01*
X-3182Y1774D01*
X-3159Y1764D01*
X-3147Y1762D01*
Y1844D01*
D02*
G37*
G36*
X-3388Y1952D02*
X-3413Y1949D01*
X-3436Y1939D01*
X-3456Y1924D01*
X-3471Y1904D01*
X-3481Y1881D01*
X-3484Y1857D01*
X-3481Y1832D01*
X-3471Y1809D01*
X-3456Y1789D01*
X-3436Y1774D01*
X-3413Y1764D01*
X-3388Y1761D01*
X-3364Y1764D01*
X-3341Y1774D01*
X-3321Y1789D01*
X-3306Y1809D01*
X-3296Y1832D01*
X-3293Y1857D01*
X-3296Y1881D01*
X-3306Y1904D01*
X-3321Y1924D01*
X-3341Y1939D01*
X-3364Y1949D01*
X-3388Y1952D01*
D02*
G37*
G36*
X-3122Y1951D02*
Y1869D01*
X-3040D01*
X-3042Y1881D01*
X-3052Y1904D01*
X-3067Y1924D01*
X-3087Y1939D01*
X-3110Y1949D01*
X-3122Y1951D01*
D02*
G37*
G36*
X1103Y2786D02*
Y2745D01*
X1144D01*
X1142Y2754D01*
X1130Y2772D01*
X1111Y2784D01*
X1103Y2786D01*
D02*
G37*
G36*
X1077D02*
X1069Y2784D01*
X1050Y2772D01*
X1038Y2754D01*
X1036Y2745D01*
X1077D01*
Y2786D01*
D02*
G37*
G36*
X-2261Y3297D02*
X-2323D01*
Y3240D01*
X-2261D01*
Y3297D01*
D02*
G37*
G36*
X-2256Y2870D02*
X-2318D01*
Y2812D01*
X-2256D01*
Y2870D01*
D02*
G37*
G36*
X-4420Y2153D02*
X-4428Y2151D01*
X-4447Y2139D01*
X-4459Y2121D01*
X-4461Y2112D01*
X-4420D01*
Y2153D01*
D02*
G37*
G36*
X-2090Y2087D02*
X-2131D01*
Y2046D01*
X-2122Y2047D01*
X-2104Y2060D01*
X-2091Y2078D01*
X-2090Y2087D01*
D02*
G37*
G36*
X-2182Y2172D02*
X-2240D01*
Y2097D01*
Y2022D01*
X-2182D01*
Y2046D01*
X-2171Y2052D01*
X-2165Y2047D01*
X-2156Y2046D01*
Y2099D01*
Y2153D01*
X-2165Y2151D01*
X-2171Y2147D01*
X-2182Y2153D01*
Y2172D01*
D02*
G37*
G36*
X-2131Y2153D02*
Y2112D01*
X-2090D01*
X-2091Y2121D01*
X-2104Y2139D01*
X-2122Y2151D01*
X-2131Y2153D01*
D02*
G37*
G36*
X-4420Y2087D02*
X-4461D01*
X-4459Y2078D01*
X-4447Y2060D01*
X-4428Y2048D01*
X-4420Y2046D01*
Y2087D01*
D02*
G37*
G36*
X747Y482D02*
X597D01*
Y342D01*
X747D01*
Y381D01*
X955D01*
X959Y374D01*
X977Y362D01*
X999Y358D01*
X1020Y362D01*
X1039Y374D01*
X1051Y392D01*
X1055Y414D01*
X1051Y435D01*
X1039Y454D01*
X1020Y466D01*
X999Y470D01*
X977Y466D01*
X959Y454D01*
X955Y447D01*
X747D01*
Y482D01*
D02*
G37*
G36*
X-4743Y417D02*
X-4768Y414D01*
X-4791Y404D01*
X-4811Y389D01*
X-4826Y369D01*
X-4836Y346D01*
X-4839Y322D01*
X-4836Y297D01*
X-4826Y274D01*
X-4811Y254D01*
X-4791Y239D01*
X-4768Y229D01*
X-4743Y226D01*
X-4719Y229D01*
X-4696Y239D01*
X-4676Y254D01*
X-4661Y274D01*
X-4651Y297D01*
X-4648Y322D01*
X-4651Y346D01*
X-4661Y369D01*
X-4676Y389D01*
X-4696Y404D01*
X-4719Y414D01*
X-4743Y417D01*
D02*
G37*
G36*
Y671D02*
X-4768Y668D01*
X-4791Y658D01*
X-4811Y643D01*
X-4826Y623D01*
X-4836Y600D01*
X-4839Y576D01*
X-4836Y551D01*
X-4826Y528D01*
X-4811Y508D01*
X-4791Y493D01*
X-4768Y483D01*
X-4743Y480D01*
X-4719Y483D01*
X-4696Y493D01*
X-4676Y508D01*
X-4661Y528D01*
X-4651Y551D01*
X-4648Y576D01*
X-4651Y600D01*
X-4661Y623D01*
X-4676Y643D01*
X-4696Y658D01*
X-4719Y668D01*
X-4743Y671D01*
D02*
G37*
G36*
X569Y665D02*
X419D01*
Y607D01*
X443D01*
Y482D01*
X427D01*
Y425D01*
X577D01*
Y482D01*
X545D01*
Y607D01*
X569D01*
Y665D01*
D02*
G37*
G36*
X-5623Y265D02*
X-5664D01*
X-5662Y256D01*
X-5650Y238D01*
X-5631Y226D01*
X-5623Y224D01*
Y265D01*
D02*
G37*
G36*
X-2233Y59D02*
X-2241Y57D01*
X-2243Y56D01*
X-2542D01*
X-2562Y52D01*
X-2579Y41D01*
X-2676Y-56D01*
X-2687Y-73D01*
X-2691Y-93D01*
Y-209D01*
X-2691Y-210D01*
X-2584D01*
X-2586Y-201D01*
X-2589Y-196D01*
Y-114D01*
X-2521Y-46D01*
X-2243D01*
X-2241Y-47D01*
X-2233Y-49D01*
Y5D01*
Y59D01*
D02*
G37*
G36*
X551Y-38D02*
X510D01*
Y-79D01*
X519Y-77D01*
X537Y-65D01*
X549Y-46D01*
X551Y-38D01*
D02*
G37*
G36*
X-2207Y59D02*
Y18D01*
X-2166D01*
X-2168Y26D01*
X-2180Y45D01*
X-2199Y57D01*
X-2207Y59D01*
D02*
G37*
G36*
X577Y400D02*
X427D01*
Y342D01*
X447D01*
Y-2D01*
X446Y-4D01*
X444Y-12D01*
X551D01*
X549Y-4D01*
X548Y-2D01*
Y342D01*
X577D01*
Y400D01*
D02*
G37*
G36*
X739Y747D02*
X589D01*
Y607D01*
X739D01*
Y647D01*
X949D01*
X954Y639D01*
X972Y627D01*
X994Y623D01*
X1015Y627D01*
X1034Y639D01*
X1046Y657D01*
X1050Y679D01*
X1046Y700D01*
X1034Y719D01*
X1015Y731D01*
X994Y735D01*
X972Y731D01*
X954Y719D01*
X951Y713D01*
X739D01*
Y747D01*
D02*
G37*
G36*
X1144Y2720D02*
X1036D01*
X1038Y2711D01*
X1042Y2706D01*
Y1541D01*
X941Y1441D01*
X572D01*
X553Y1437D01*
X536Y1426D01*
X458Y1348D01*
X447Y1331D01*
X443Y1312D01*
Y1287D01*
X419D01*
Y1230D01*
X569D01*
Y1287D01*
X558D01*
X554Y1299D01*
X594Y1339D01*
X962D01*
X982Y1343D01*
X999Y1354D01*
X1129Y1484D01*
X1140Y1500D01*
X1143Y1520D01*
X1143Y1520D01*
X1143Y1520D01*
Y1520D01*
Y2719D01*
X1144Y2720D01*
D02*
G37*
G36*
X739Y1287D02*
X589D01*
Y1147D01*
X739D01*
Y1184D01*
X944D01*
X947Y1179D01*
X965Y1167D01*
X986Y1163D01*
X1008Y1167D01*
X1026Y1179D01*
X1038Y1198D01*
X1043Y1219D01*
X1038Y1240D01*
X1026Y1259D01*
X1008Y1271D01*
X986Y1275D01*
X965Y1271D01*
X947Y1259D01*
X941Y1251D01*
X739D01*
Y1287D01*
D02*
G37*
G36*
X-3547Y1698D02*
X-3738D01*
Y1507D01*
X-3547D01*
Y1698D01*
D02*
G37*
G36*
X-2165Y1541D02*
X-2223D01*
Y1478D01*
X-2165D01*
Y1541D01*
D02*
G37*
G36*
X569Y1205D02*
X419D01*
Y1147D01*
X443D01*
Y1022D01*
X422D01*
Y965D01*
X572D01*
Y1022D01*
X545D01*
Y1147D01*
X569D01*
Y1205D01*
D02*
G37*
G36*
X-5073Y902D02*
X-5223D01*
Y866D01*
X-5343D01*
X-5348Y872D01*
X-5366Y884D01*
X-5388Y889D01*
X-5409Y884D01*
X-5427Y872D01*
X-5439Y854D01*
X-5444Y832D01*
X-5439Y811D01*
X-5427Y793D01*
X-5409Y781D01*
X-5388Y776D01*
X-5366Y781D01*
X-5348Y793D01*
X-5344Y799D01*
X-5223D01*
Y762D01*
X-5073D01*
Y902D01*
D02*
G37*
G36*
X572Y940D02*
X422D01*
Y882D01*
X443D01*
Y747D01*
X419D01*
Y690D01*
X569D01*
Y747D01*
X545D01*
Y882D01*
X572D01*
Y940D01*
D02*
G37*
G36*
X742Y1022D02*
X592D01*
Y882D01*
X742D01*
Y919D01*
X933D01*
X939Y909D01*
X957Y897D01*
X979Y893D01*
X1000Y897D01*
X1019Y909D01*
X1031Y927D01*
X1035Y949D01*
X1031Y970D01*
X1019Y989D01*
X1000Y1001D01*
X979Y1005D01*
X957Y1001D01*
X939Y989D01*
X937Y986D01*
X742D01*
Y1022D01*
D02*
G37*
G36*
X-4743Y925D02*
X-4768Y922D01*
X-4791Y912D01*
X-4811Y897D01*
X-4826Y877D01*
X-4831Y866D01*
X-4903D01*
Y902D01*
X-5053D01*
Y762D01*
X-4903D01*
Y799D01*
X-4834D01*
X-4826Y782D01*
X-4811Y762D01*
X-4791Y747D01*
X-4768Y737D01*
X-4743Y734D01*
X-4719Y737D01*
X-4696Y747D01*
X-4676Y762D01*
X-4661Y782D01*
X-4651Y805D01*
X-4648Y830D01*
X-4651Y854D01*
X-4661Y877D01*
X-4676Y897D01*
X-4696Y912D01*
X-4719Y922D01*
X-4743Y925D01*
D02*
G37*
%LPD*%
D11*
X-1497Y-1368D02*
D03*
Y-1198D02*
D03*
X-208Y-1347D02*
D03*
Y-1517D02*
D03*
X-515Y-1337D02*
D03*
Y-1507D02*
D03*
X-1278Y-1369D02*
D03*
Y-1539D02*
D03*
X-1093Y-1372D02*
D03*
Y-1542D02*
D03*
X-855Y-1379D02*
D03*
Y-1549D02*
D03*
X-2480Y1739D02*
D03*
Y1909D02*
D03*
X-2235Y1723D02*
D03*
Y1553D02*
D03*
X-2252Y1927D02*
D03*
Y2097D02*
D03*
X-798Y-97D02*
D03*
Y-267D02*
D03*
D12*
X494Y1217D02*
D03*
X664D02*
D03*
X497Y952D02*
D03*
X667D02*
D03*
X494Y677D02*
D03*
X664D02*
D03*
X502Y412D02*
D03*
X672D02*
D03*
X-2051Y1545D02*
D03*
X-1881D02*
D03*
X-414Y-482D02*
D03*
X-584D02*
D03*
X-628Y-788D02*
D03*
X-458D02*
D03*
X-701Y-1098D02*
D03*
X-531D02*
D03*
X564Y1587D02*
D03*
X734D02*
D03*
X-907Y-1032D02*
D03*
X-1077D02*
D03*
X-1282Y2153D02*
D03*
X-1452D02*
D03*
X-2413Y2882D02*
D03*
X-2243D02*
D03*
X-2147Y-1250D02*
D03*
X-2317D02*
D03*
X-2149Y-1052D02*
D03*
X-2319D02*
D03*
X-4334Y1850D02*
D03*
X-4504D02*
D03*
X-5148Y832D02*
D03*
X-4978D02*
D03*
X-5143Y1090D02*
D03*
X-4973D02*
D03*
X-2418Y3227D02*
D03*
X-2248D02*
D03*
D14*
X-48Y-526D02*
D03*
Y-336D02*
D03*
D36*
X-3447Y3499D02*
X-3106D01*
X-3820D02*
X-3447D01*
X-948Y-793D02*
X-832Y-907D01*
X-948Y-793D02*
Y-768D01*
X-4910Y3385D02*
X-4796Y3499D01*
X-3820D01*
D37*
X-4470Y2225D02*
X-3820D01*
Y2983D02*
Y3499D01*
X1105Y3067D02*
Y3075D01*
X907Y2870D02*
X1105Y3067D01*
X315Y2870D02*
X907D01*
X-832Y-907D02*
X-830Y-910D01*
X-798Y-97D02*
Y-48D01*
X-750Y0D01*
X-565D01*
X-4774Y2100D02*
X-4743D01*
X-5388Y3503D02*
Y3625D01*
Y3503D02*
X-5270Y3385D01*
X-3106Y3499D02*
X-3017Y3588D01*
X-565Y0D02*
X297D01*
X530Y-233D01*
X-4820Y-1627D02*
X-4817D01*
X-3442Y-543D02*
X-3158Y-827D01*
Y-1627D02*
Y-827D01*
X530Y-1820D02*
Y-233D01*
X-4378Y1593D02*
X-3982D01*
X-3981Y1592D01*
X-5383Y3630D02*
X-5272D01*
X-5388Y3625D02*
X-5383Y3630D01*
X-4743Y2100D02*
X-4595D01*
X-4470Y2225D01*
X-4012Y1592D02*
X-3948D01*
X-3683Y1857D01*
X-3642D01*
X-1745Y-1523D02*
Y-1218D01*
X-1850Y-1627D02*
X-1745Y-1523D01*
X-4817Y-1627D02*
X-1850D01*
X-3158Y-827D02*
X-2136D01*
X-115Y-1965D02*
X385D01*
X530Y-1820D01*
X-3817Y2225D02*
X-3715D01*
X-3642Y2152D01*
Y1857D02*
Y2152D01*
X-5270Y3385D02*
X-4910D01*
D38*
X-3380Y2862D02*
Y3102D01*
X-3255Y3227D01*
X-2418D01*
X-3987Y2862D02*
X-3380D01*
X-4774D02*
X-4649Y2738D01*
X735Y1588D02*
X864D01*
X734Y1587D02*
X735Y1588D01*
X673Y414D02*
X999D01*
X672Y412D02*
X673Y414D01*
X667Y680D02*
X995D01*
X667Y952D02*
X985D01*
X985Y952D01*
X664Y1217D02*
X985D01*
X986Y1219D01*
X-513Y-1068D02*
X-214D01*
X-206Y-1060D01*
X-515Y-1337D02*
Y-1070D01*
X-513Y-1068D01*
X237Y-1507D02*
X265Y-1535D01*
X-515Y-1507D02*
X237D01*
X-208Y-1347D02*
X-79D01*
X-6Y-1273D01*
Y-1060D01*
Y-1019D01*
Y-810D02*
Y-568D01*
X-48Y-336D02*
X264D01*
X265Y-335D01*
Y-1535D02*
Y-335D01*
X-948Y-612D02*
X-722D01*
X-948Y-662D02*
X-947Y-662D01*
X-788D01*
X-745Y-705D01*
Y-1055D02*
Y-705D01*
X-948Y-712D02*
X-838D01*
X-948Y-512D02*
X-584D01*
X-584Y-512D01*
X-948Y-562D02*
X-688D01*
X-1125Y-840D02*
Y-662D01*
X-1075Y-1008D02*
Y-840D01*
X-1077Y-1010D02*
X-1075Y-1008D01*
X-1077Y-1010D02*
X-1073Y-1014D01*
X-1175Y-970D02*
Y-840D01*
X-1212Y-1007D02*
X-1175Y-970D01*
X-688Y-562D02*
X-671Y-579D01*
X-1108Y-1372D02*
X-1077Y-1341D01*
X-1202Y-1173D02*
X-1077D01*
Y-1341D02*
Y-1173D01*
Y-1032D01*
X-1073D02*
Y-1014D01*
X-888Y-1240D02*
X-700D01*
X-1615Y-775D02*
X-1552Y-712D01*
X-1453D01*
X-1590Y-662D02*
X-1453D01*
X-1488Y-762D02*
X-1453D01*
X-1543Y-818D02*
X-1488Y-762D01*
X-1453Y-918D02*
X-1375Y-840D01*
X-1538Y-918D02*
X-1453D01*
X-1565Y-562D02*
X-1453D01*
X-1453Y-562D01*
X-458Y-929D02*
Y-788D01*
X-1025Y-335D02*
Y-303D01*
Y-270D02*
X-565D01*
X-1585Y-462D02*
X-1453D01*
X-1975Y-412D02*
X-1453D01*
X-1100Y-135D02*
X-1025Y-210D01*
Y-335D02*
Y-210D01*
X-1975Y-735D02*
X-1975D01*
X-1883Y-827D01*
X-1375Y-335D02*
Y-215D01*
X-1377Y-212D02*
X-1375Y-215D01*
X-2485Y1608D02*
Y1734D01*
X-2480Y1739D01*
X-2483Y1912D02*
Y2025D01*
Y1912D02*
X-2480Y1909D01*
X-2247D01*
X-2235Y1922D01*
X-2480Y1739D02*
X-2251D01*
X-2235Y1723D01*
X-2217Y1705D02*
X-1777D01*
X-2235Y1723D02*
X-2217Y1705D01*
X-2068Y1755D02*
X-1777D01*
X-2235Y1922D02*
X-2068Y1755D01*
X-1777Y1855D02*
X-1645D01*
X-1545Y1755D02*
X-1362D01*
X-1545Y1805D02*
Y1988D01*
X-1645Y543D02*
Y1573D01*
X-1645Y543D02*
X-1645Y543D01*
X-1362Y1855D02*
X-1290D01*
X-1218Y1783D01*
Y1048D02*
Y1783D01*
X-1495Y1988D02*
Y2166D01*
X-1485Y2176D01*
X-1545Y1988D02*
Y2900D01*
X-1362Y1905D02*
X-1215D01*
X-1205Y1915D01*
X-1848Y1805D02*
X-1777D01*
X-1595Y1988D02*
Y2292D01*
X-1777Y1905D02*
Y2088D01*
X-1695Y1988D02*
Y2190D01*
X-1645Y1988D02*
Y2258D01*
X-1875Y1833D02*
X-1848Y1805D01*
X-1875Y1833D02*
Y2027D01*
X-2051Y1458D02*
Y1545D01*
X-671Y-579D02*
X-459D01*
X-414Y-534D01*
Y-512D01*
X-399Y-497D01*
X-77D01*
X-6Y-568D01*
X-2583Y2902D02*
X-2433D01*
X-2413Y2882D01*
X-2149Y-1052D02*
X-2144Y-1048D01*
X-1980D01*
X-4012Y830D02*
X-2943D01*
X-4012Y576D02*
X-2864D01*
X-1915Y2225D02*
X-1777Y2088D01*
X-1783Y2277D02*
X-1695Y2190D01*
X-1733Y2345D02*
X-1645Y2258D01*
X-1708Y2405D02*
X-1595Y2292D01*
X-2864Y576D02*
X-2745Y695D01*
Y2133D01*
X-2652Y2225D01*
X-2775Y2345D02*
X-1733D01*
X-2812Y2405D02*
X-1708D01*
X-1452Y2139D02*
Y2153D01*
Y2139D02*
X-1377Y2065D01*
X-4012Y322D02*
X-3827Y138D01*
X-2748Y2738D02*
X-2583Y2902D01*
X-4649Y2738D02*
X-2748D01*
X-3388Y1344D02*
Y1602D01*
X-3383Y1338D02*
X-3035D01*
X-3388Y1344D02*
X-3383Y1338D01*
X-3134Y1602D02*
X-2990Y1747D01*
Y2640D01*
X-3000Y2650D02*
X-2990Y2640D01*
X-5300Y2235D02*
X-5297Y2233D01*
X-5058Y1377D02*
X-4813D01*
X-4774Y1338D01*
X-5058Y1577D02*
X-4788D01*
X-4774Y1592D01*
X-5297Y2233D02*
X-4610D01*
X-4489Y2354D01*
X-4012D01*
X-4307Y1850D02*
X-3986D01*
X-3981Y1846D01*
X-4936Y3624D02*
X-4743D01*
X-4953Y3608D02*
X-4936Y3624D01*
X-5815Y3250D02*
X-4683D01*
X-2715Y2277D02*
X-1783D01*
X-2652Y2225D02*
X-1915D01*
X-4683Y3250D02*
X-4525Y3092D01*
X-4035D01*
X-4012Y3116D01*
X-5308Y1212D02*
X-4110D01*
X-3981Y1084D01*
X-4012D02*
X-3981D01*
X-2961D01*
X-2319Y-1052D02*
X-2319Y-1052D01*
X-2327Y-1400D02*
Y-1261D01*
X-2317Y-1250D01*
X-4978Y832D02*
X-4746D01*
X-4743Y830D01*
X-4973Y1090D02*
X-4750D01*
X-4743Y1084D01*
X-5508Y1090D02*
X-5143D01*
X-5510Y1088D02*
X-5508Y1090D01*
X-5387Y832D02*
X-5148D01*
X-5388Y832D02*
X-5387Y832D01*
X-4475Y1338D02*
X-3981D01*
X-4012D02*
X-3981D01*
X-3383D01*
X-5528Y1715D02*
X-4890D01*
X-5328Y1977D02*
X-3870D01*
X-2350Y-1052D02*
X-2319D01*
X-4935Y-2088D02*
Y-1520D01*
X-4475Y-823D02*
Y332D01*
X-2060Y1400D02*
X-1827D01*
X-1282Y2153D02*
X-1088D01*
X-2051Y1409D02*
Y1545D01*
X-2060Y1400D02*
X-2051Y1409D01*
X-2185Y1275D02*
X-2060Y1400D01*
X-2395Y-1052D02*
X-2319D01*
X-2448Y-1000D02*
X-2395Y-1052D01*
X-2448Y-1000D02*
Y-920D01*
X-4158Y355D02*
X-4062Y450D01*
X-3272Y-1212D02*
X-3247Y-1188D01*
X-4062Y450D02*
X-2320D01*
X-2185Y585D01*
Y1275D01*
X1077Y-2152D02*
X1156Y-2074D01*
Y-1929D01*
X-2136Y-574D02*
X-1975Y-412D01*
X-2030Y-680D02*
X-1975Y-735D01*
X-1883Y-574D02*
X-1857Y-547D01*
X-1670D01*
X-1585Y-462D01*
X-1883Y-319D02*
Y-283D01*
X-1735Y-135D01*
X-1100D01*
X-1673Y-745D02*
X-1590Y-662D01*
X-1527Y-1148D02*
X-1477Y-1198D01*
X-1527Y-1148D02*
Y-1075D01*
X-1548Y-1055D02*
X-1527Y-1075D01*
X-1444Y-1369D02*
X-1278D01*
X-1445Y-1368D02*
X-1444Y-1369D01*
X-2448Y-920D02*
X-2445Y-922D01*
Y-923D02*
Y-922D01*
X-5920Y1762D02*
Y3383D01*
Y1762D02*
X-5770Y1612D01*
X-5353Y2483D02*
X-4137D01*
X-4012Y2608D01*
X-5420Y2865D02*
X-5300Y2985D01*
X-4110D01*
X-3987Y2862D01*
X-4743Y3370D02*
X-4420D01*
X-4228Y3177D01*
X-3035Y1338D02*
X-2927Y1445D01*
Y2290D01*
X-2812Y2405D01*
X-2862Y2258D02*
X-2775Y2345D01*
X-2961Y1084D02*
X-2862Y1182D01*
Y2258D01*
X-2943Y830D02*
X-2805Y968D01*
Y2188D01*
X-2715Y2277D01*
X-1595Y693D02*
Y1573D01*
Y693D02*
X-1555Y653D01*
X-1545Y943D02*
Y1573D01*
Y943D02*
X-1452Y850D01*
X-1881Y1545D02*
X-1850D01*
X-1777Y1617D01*
Y1655D01*
X-1855Y247D02*
Y1225D01*
X-1695Y1385D01*
Y1573D01*
X-3827Y138D02*
X180D01*
X305Y262D01*
X-4158Y-1060D02*
Y355D01*
Y-1060D02*
X-4008Y-1210D01*
X-3270D01*
X-5770Y-1398D02*
Y1612D01*
Y-1398D02*
X-5647Y-1520D01*
X-4935D01*
X-1088Y2153D02*
X407D01*
X564Y1996D01*
Y1587D02*
Y1996D01*
X-1377Y2065D02*
X185D01*
X305Y1945D01*
Y262D02*
Y1945D01*
X-1445Y1988D02*
X80D01*
X200Y1867D01*
Y1438D02*
Y1867D01*
X-653Y-763D02*
Y-682D01*
X-722Y-612D02*
X-653Y-682D01*
X-888Y-1347D02*
Y-978D01*
X-1025Y-840D02*
X-888Y-978D01*
Y-1347D02*
X-855Y-1379D01*
X-1673Y-2020D02*
Y-745D01*
Y-2020D02*
X-1474Y-2219D01*
X1159D01*
X-1615Y-1970D02*
Y-775D01*
Y-1970D02*
X-1432Y-2152D01*
X1077D01*
X-1450Y-1005D02*
X-1345D01*
X-1278Y-1072D01*
Y-1369D02*
Y-1072D01*
X-2147Y-1250D02*
X-2045D01*
X-1980Y-1185D01*
Y-1138D01*
X-2148Y-57D02*
X-1375D01*
X-2305Y-215D02*
X-2148Y-57D01*
X-2305Y-612D02*
Y-215D01*
Y-612D02*
X-2238Y-680D01*
X-2030D01*
D39*
X-2268Y1520D02*
X-2235Y1553D01*
X-2540Y1520D02*
X-2268D01*
X-2660Y1640D02*
X-2540Y1520D01*
X494Y420D02*
X502Y412D01*
X494Y1217D02*
Y1312D01*
X572Y1390D01*
X494Y420D02*
Y1217D01*
X-1645Y1855D02*
X-1630Y1840D01*
X-1570Y1780D02*
X-1545Y1755D01*
X-1570Y1780D02*
X-1545Y1805D01*
Y2900D02*
X-1543Y2902D01*
X-2248Y2887D02*
Y3227D01*
Y2887D02*
X-2243Y2882D01*
X-2223Y2902D02*
X-1543D01*
X-2243Y2882D02*
X-2223Y2902D01*
X497Y-25D02*
Y408D01*
X502Y412D01*
X-2660Y1640D02*
Y2085D01*
X-6208Y2565D02*
Y3640D01*
X-6197Y3650D01*
X-5747D01*
X-6208Y2565D02*
X-6203Y2570D01*
X-5617Y1846D02*
X-4743D01*
X-5617Y1477D02*
X-5058D01*
X-5610Y278D02*
X-5600Y288D01*
X-4298Y-1865D02*
X-1815D01*
X-1812Y-1862D01*
X-1093Y-1690D02*
Y-1559D01*
X-1278Y-1549D02*
X-1093D01*
X-1082D02*
X-855D01*
X-1093Y-1559D02*
X-1082Y-1549D01*
X-1362Y-1862D02*
X-15D01*
X-4743Y1846D02*
X-4505D01*
X-4407Y2100D02*
X-3981D01*
X-2640Y-93D02*
X-2542Y5D01*
X-2220D01*
X-2640Y-222D02*
Y-93D01*
X-5617Y305D02*
X-5600Y288D01*
X-5747Y1975D02*
Y2570D01*
Y1975D02*
X-5617Y1845D01*
Y305D02*
Y1845D01*
X572Y1390D02*
X962D01*
X1093Y1520D01*
Y2727D01*
D41*
X-6272Y2565D02*
G03*
X-6225Y2517I47J0D01*
G01*
X-6170D02*
G03*
X-6122Y2565I0J47D01*
G01*
D02*
G03*
X-6170Y2612I-47J0D01*
G01*
X-6225D02*
G03*
X-6272Y2565I0J-47D01*
G01*
Y3650D02*
G03*
X-6225Y3602I47J0D01*
G01*
X-6170D02*
G03*
X-6122Y3650I0J47D01*
G01*
D02*
G03*
X-6170Y3697I-47J0D01*
G01*
X-6225D02*
G03*
X-6272Y3650I0J-47D01*
G01*
X-5833Y2565D02*
G03*
X-5785Y2517I47J0D01*
G01*
X-5710D02*
G03*
X-5662Y2565I0J47D01*
G01*
D02*
G03*
X-5710Y2612I-47J0D01*
G01*
X-5785D02*
G03*
X-5833Y2565I0J-47D01*
G01*
Y3650D02*
G03*
X-5785Y3602I47J0D01*
G01*
X-5710D02*
G03*
X-5662Y3650I0J47D01*
G01*
D02*
G03*
X-5710Y3697I-47J0D01*
G01*
X-5785D02*
G03*
X-5833Y3650I0J-47D01*
G01*
X-6225Y2518D02*
X-6170D01*
X-6225Y2612D02*
X-6170D01*
X-6225Y3603D02*
X-6170D01*
X-6225Y3697D02*
X-6170D01*
X-5785Y2518D02*
X-5710D01*
X-5785Y2612D02*
X-5710D01*
X-5785Y3603D02*
X-5710D01*
X-5785Y3697D02*
X-5710D01*
D42*
X1105Y3075D02*
D03*
D43*
X265Y-335D02*
D03*
Y-1535D02*
D03*
D44*
X-6Y-810D02*
D03*
Y-1060D02*
D03*
X-206D02*
D03*
Y-810D02*
D03*
D45*
X-2136Y-294D02*
D03*
X-1883D02*
D03*
X-2136Y-548D02*
D03*
X-1883D02*
D03*
X-2136Y-802D02*
D03*
X-4743Y3370D02*
D03*
Y3116D02*
D03*
Y2862D02*
D03*
Y2608D02*
D03*
Y2354D02*
D03*
Y2100D02*
D03*
Y1846D02*
D03*
Y1592D02*
D03*
Y1338D02*
D03*
Y1084D02*
D03*
Y830D02*
D03*
Y576D02*
D03*
Y322D02*
D03*
X-3981Y3624D02*
D03*
Y3370D02*
D03*
Y3116D02*
D03*
Y2862D02*
D03*
Y2608D02*
D03*
Y2354D02*
D03*
Y2100D02*
D03*
Y1846D02*
D03*
Y1592D02*
D03*
Y1338D02*
D03*
Y1084D02*
D03*
Y830D02*
D03*
Y576D02*
D03*
Y322D02*
D03*
X-3134Y1857D02*
D03*
Y1602D02*
D03*
X-3388Y1857D02*
D03*
Y1602D02*
D03*
X-3642Y1857D02*
D03*
X-5960Y-1234D02*
D03*
X-5960Y-2054D02*
D03*
D46*
X-1883Y-802D02*
D03*
X-5960Y-980D02*
D03*
X-5960Y-1800D02*
D03*
D47*
X-4743Y3624D02*
D03*
X-3642Y1602D02*
D03*
D48*
X-5965Y-11D02*
D03*
D49*
Y-519D02*
D03*
D50*
X-5747Y2570D02*
D03*
Y3650D02*
D03*
D51*
X-6197D02*
D03*
X-6208Y2565D02*
D03*
D52*
X-3447Y3499D02*
D03*
X315Y2870D02*
D03*
X-820Y-730D02*
D03*
X-700Y-1240D02*
D03*
X999Y414D02*
D03*
X994Y679D02*
D03*
X979Y949D02*
D03*
X986Y1219D02*
D03*
X864Y1588D02*
D03*
X1090Y2733D02*
D03*
X-1190Y-1173D02*
D03*
X-1212Y-1007D02*
D03*
X1156Y-1929D02*
D03*
X1159Y-2219D02*
D03*
X-1543Y-818D02*
D03*
X-1538Y-918D02*
D03*
X-1450Y-1005D02*
D03*
X-1565Y-562D02*
D03*
X-458Y-929D02*
D03*
X-832Y-907D02*
D03*
X-1375Y-57D02*
D03*
X-1377Y-215D02*
D03*
X-2485Y1608D02*
D03*
X-1855Y247D02*
D03*
X-1645Y543D02*
D03*
X-1555Y653D02*
D03*
X-1452Y850D02*
D03*
X-1218Y1048D02*
D03*
X200Y1438D02*
D03*
X-1543Y2902D02*
D03*
X-1205Y1912D02*
D03*
X-1870Y2048D02*
D03*
X-1088Y2153D02*
D03*
X-2143Y2099D02*
D03*
X-1827Y1400D02*
D03*
X-3383Y2867D02*
D03*
X-2583Y2902D02*
D03*
X-1980Y-1048D02*
D03*
Y-1138D02*
D03*
X497Y-25D02*
D03*
X-2660Y2085D02*
D03*
X-2990Y2640D02*
D03*
X-5353Y2483D02*
D03*
X-5300Y2235D02*
D03*
X-5420Y2873D02*
D03*
X-5815Y3250D02*
D03*
X-5328Y1977D02*
D03*
X-3870Y1977D02*
D03*
X-5308Y1212D02*
D03*
X-5272Y3630D02*
D03*
X-3820Y2223D02*
D03*
Y2983D02*
D03*
X-3017Y3588D02*
D03*
X-2483Y2017D02*
D03*
X-4230Y3170D02*
D03*
X-2327Y-1400D02*
D03*
X-5388Y832D02*
D03*
X-5510Y1088D02*
D03*
X-4475Y1338D02*
D03*
X-4890Y1715D02*
D03*
X-5528D02*
D03*
X-5610Y278D02*
D03*
X-1530Y-1055D02*
D03*
X-115Y-1955D02*
D03*
X-4298Y-1865D02*
D03*
X-4935Y-1520D02*
D03*
Y-2088D02*
D03*
X-3442Y-543D02*
D03*
X-4817Y-1627D02*
D03*
X-4475Y332D02*
D03*
Y-823D02*
D03*
X-3250Y-1212D02*
D03*
X-1093Y-1690D02*
D03*
X-1745Y-1218D02*
D03*
X-15Y-1862D02*
D03*
X-1812D02*
D03*
X-1362D02*
D03*
X-4378Y1593D02*
D03*
X-4407Y2100D02*
D03*
X-5920Y3383D02*
D03*
X-2220Y5D02*
D03*
X-2638Y-222D02*
D03*
X-2445Y-923D02*
D03*
D53*
X-1630Y1720D02*
D03*
X-1510D02*
D03*
X-1630Y1840D02*
D03*
X-1510D02*
D03*
X-1080Y-707D02*
D03*
Y-588D02*
D03*
Y-468D02*
D03*
X-1200Y-707D02*
D03*
Y-588D02*
D03*
Y-468D02*
D03*
X-1320Y-707D02*
D03*
Y-588D02*
D03*
Y-468D02*
D03*
D54*
X-1777Y1655D02*
D03*
Y1705D02*
D03*
Y1755D02*
D03*
Y1805D02*
D03*
Y1855D02*
D03*
Y1905D02*
D03*
X-1362D02*
D03*
Y1855D02*
D03*
Y1805D02*
D03*
Y1755D02*
D03*
Y1705D02*
D03*
Y1655D02*
D03*
D55*
X-1695Y1988D02*
D03*
X-1645D02*
D03*
X-1595D02*
D03*
X-1545D02*
D03*
X-1495D02*
D03*
X-1445D02*
D03*
Y1573D02*
D03*
X-1495D02*
D03*
X-1545D02*
D03*
X-1595D02*
D03*
X-1645D02*
D03*
X-1695D02*
D03*
D56*
X-1570Y1780D02*
D03*
D57*
X-1025Y-840D02*
D03*
X-1075D02*
D03*
X-1125D02*
D03*
X-1175D02*
D03*
X-1225D02*
D03*
X-1275D02*
D03*
X-1325D02*
D03*
X-1375D02*
D03*
Y-335D02*
D03*
X-1325D02*
D03*
X-1275D02*
D03*
X-1225D02*
D03*
X-1175D02*
D03*
X-1125D02*
D03*
X-1075D02*
D03*
X-1025D02*
D03*
D58*
X-1453Y-762D02*
D03*
Y-712D02*
D03*
Y-662D02*
D03*
Y-612D02*
D03*
Y-562D02*
D03*
Y-512D02*
D03*
Y-462D02*
D03*
Y-412D02*
D03*
X-948D02*
D03*
Y-462D02*
D03*
Y-512D02*
D03*
Y-562D02*
D03*
Y-612D02*
D03*
Y-662D02*
D03*
Y-712D02*
D03*
Y-762D02*
D03*
D59*
X-1200Y-588D02*
D03*
D60*
X-565Y-270D02*
D03*
Y0D02*
D03*
D61*
X-5008Y3625D02*
D03*
X-5388D02*
D03*
D62*
X-5058Y1377D02*
D03*
Y1477D02*
D03*
Y1577D02*
D03*
D63*
X-2642Y2099D02*
X-2143D01*
M02*
