M48
;Layer_Color=9474304
;FILE_FORMAT=4:2
METRIC,LZ
;TYPE=PLATED
T1F00S00C0.30
T2F00S00C0.33
T4F00S00C0.76
T5F00S00C0.90
T6F00S00C0.95
T7F00S00C1.10
T8F00S00C2.20
;TYPE=NON_PLATED
T9F00S00C1.00
%
T01
X-000115Y-001955
X-000015Y-001862
X001156Y-001929
X001159Y-002219
X000999Y000414
X000994Y000679
X000979Y000949
X000986Y001219
X0002Y001438
X000497Y-000025
X-000458Y-000929
X-000832Y-000907
X-00082Y-00073
X-0007Y-00124
X-00119Y-001173
X-001212Y-001007
X-00145Y-001005
X-00153Y-001055
X-001538Y-000918
X-001543Y-000818
X-001565Y-000562
X-001377Y-000215
X-001375Y-000057
X-001855Y000247
X-001645Y000543
X-001555Y000653
X-001452Y00085
X-001218Y001048
X-001827Y0014
X-00222Y000005
X-002638Y-000222
X-002445Y-000923
X-00198Y-001048
Y-001138
X-001745Y-001218
X-001812Y-001862
X-001362
X-001093Y-00169
X-002327Y-0014
X-00325Y-001212
X-003442Y-000543
X-004475Y-000823
X-004817Y-001627
X-004935Y-00152
Y-002088
X-004298Y-001865
X-004475Y000332
Y001338
X-005308Y001212
X-00551Y001088
X-005388Y000832
X-00561Y000278
X-005528Y001715
X-005328Y001977
X-0053Y002235
X-005353Y002483
X-00542Y002873
X-005815Y00325
X-00592Y003383
X-005272Y00363
X-00423Y00317
X-004407Y0021
X-004378Y001593
X-00489Y001715
X-00387Y001977
X-00382Y002223
Y002983
X-003383Y002867
X-00299Y00264
X-002583Y002902
X-00266Y002085
X-002483Y002017
X-002485Y001608
X-002143Y002099
X-00187Y002048
X-001205Y001912
X-001088Y002153
X-001543Y002902
X-003017Y003588
X-003447Y003499
X000315Y00287
X00109Y002733
X000864Y001588
T02
X-00132Y-000707
Y-000588
X-0012
X-00108
Y-000707
X-0012
Y-000468
X-00108
X-00132
X-00151Y00172
X-00163
Y00184
X-00151
T04
X001105Y003075
T05
X-003981Y000322
Y000576
Y00083
Y001084
Y001338
X-002136Y-000294
X-001883
Y-000548
X-002136
Y-000802
X-001883
X-004743Y000322
Y000576
Y00083
Y001084
Y001338
X-00596Y-00098
Y-001234
X-00596Y-0018
Y-002054
X-004743Y001592
Y001846
Y0021
Y002354
Y002608
Y002862
Y003116
Y00337
Y003624
X-003981
Y00337
Y003116
Y002862
Y002608
Y002354
Y0021
Y001846
Y001592
X-003642Y001602
X-003388
X-003134
Y001857
X-003388
X-003642
T06
X-000006Y-00106
Y-00081
X-000206
Y-00106
T07
X-005965Y-000519
Y-000011
T08
X000265Y-001535
Y-000335
T09
X-005828Y002732
Y003483
M30
